<?xml version="1.0" encoding="utf-8"?>
<!-- Generator: Adobe Illustrator 28.3.0, SVG Export Plug-In . SVG Version: 6.00 Build 0)  -->
<svg version="1.1" xmlns="http://www.w3.org/2000/svg" xmlns:xlink="http://www.w3.org/1999/xlink" x="0px" y="0px"
	 viewBox="0 0 883 310" style="enable-background:new 0 0 883 310;" xml:space="preserve">
<style type="text/css">
	.st0{fill:#29ABE2;}
	.st1{fill:#FF0000;}
	.st2{fill:#666666;}
	.st3{fill:#FBB03B;}
	.st4{font-family:'MicrosoftSansSerif';}
	.st5{font-size:12px;}
</style>
<g id="Слой_1">
</g>
<g id="Слой_1__x28_копия3_x29_">
</g>
<g id="Слой_1__x28_копия2_x29_">
</g>
<g id="Слой_1__x28_копия_x29_">
</g>
<g id="Слой_1_копия_2">
</g>
<g id="Слой_1__x28_копия6_x29_">
</g>
<g id="Слой_1__x28_копия5_x29_">
</g>
<g id="Слой_1__x28_копия4_x29_">
</g>
<g id="Слой_1_копия_3">
	<g>
		<g>
			<path class="st0" d="M499.89,28.25c16.72-0.02,33.43-0.05,50.15-0.07c1.93,0,1.93-3,0-3c-16.72,0.02-33.43,0.05-50.15,0.07
				C497.96,25.25,497.96,28.25,499.89,28.25L499.89,28.25z"/>
		</g>
	</g>
	<g>
		<g>
			<path class="st0" d="M500,78.13c16.68,0.05,33.37,0.1,50.05,0.15c1.93,0.01,1.93-2.99,0-3c-16.68-0.05-33.37-0.1-50.05-0.15
				C498.07,75.13,498.06,78.13,500,78.13L500,78.13z"/>
		</g>
	</g>
	<g>
		<g>
			<path class="st0" d="M599.92,28.32c16.68,0.05,33.37,0.1,50.05,0.15c1.93,0.01,1.93-2.99,0-3c-16.68-0.05-33.37-0.1-50.05-0.15
				C597.99,25.32,597.99,28.32,599.92,28.32L599.92,28.32z"/>
		</g>
	</g>
	<g>
		<g>
			<path class="st0" d="M599.86,78.39c16.68,0.05,33.37,0.1,50.05,0.15c1.93,0.01,1.93-2.99,0-3c-16.68-0.05-33.37-0.1-50.05-0.15
				C597.93,75.39,597.92,78.39,599.86,78.39L599.86,78.39z"/>
		</g>
	</g>
	<g>
		<g>
			<path class="st0" d="M699.89,29.36c16.68,0.05,33.37,0.1,50.05,0.15c1.93,0.01,1.93-2.99,0-3c-16.68-0.05-33.37-0.1-50.05-0.15
				C697.96,26.35,697.96,29.35,699.89,29.36L699.89,29.36z"/>
		</g>
	</g>
	<g>
		<g>
			<path class="st0" d="M699.83,79.43c16.68,0.05,33.37,0.1,50.05,0.15c1.93,0.01,1.93-2.99,0-3c-16.68-0.05-33.37-0.1-50.05-0.15
				C697.89,76.42,697.89,79.42,699.83,79.43L699.83,79.43z"/>
		</g>
	</g>
	<g>
		<g>
			<path class="st0" d="M799.89,29.36c16.68,0.05,33.37,0.1,50.05,0.15c1.93,0.01,1.93-2.99,0-3c-16.68-0.05-33.37-0.1-50.05-0.15
				C797.96,26.35,797.96,29.35,799.89,29.36L799.89,29.36z"/>
		</g>
	</g>
	<g>
		<g>
			<path class="st0" d="M799.83,79.43c16.68,0.05,33.37,0.1,50.05,0.15c1.93,0.01,1.93-2.99,0-3c-16.68-0.05-33.37-0.1-50.05-0.15
				C797.89,76.42,797.89,79.42,799.83,79.43L799.83,79.43z"/>
		</g>
	</g>
</g>
<g id="Слой_1__x28_копия9_x29_">
	<g>
		<g>
			<path class="st1" d="M499.18,26.5c0.03,16.63,0.07,33.26,0.1,49.88c0,1.93,3,1.93,3,0c-0.03-16.63-0.07-33.26-0.1-49.88
				C502.17,24.57,499.17,24.57,499.18,26.5L499.18,26.5z"/>
		</g>
	</g>
	<g>
		<g>
			<path class="st1" d="M549.23,26.65c0.03,16.63,0.07,33.26,0.1,49.88c0,1.93,3,1.93,3,0c-0.03-16.63-0.07-33.26-0.1-49.88
				C552.22,24.72,549.22,24.71,549.23,26.65L549.23,26.65z"/>
		</g>
	</g>
	<g>
		<g>
			<path class="st1" d="M599.2,26.58c0.03,16.63,0.07,33.26,0.1,49.88c0,1.93,3,1.93,3,0c-0.03-16.63-0.07-33.26-0.1-49.88
				C602.2,24.64,599.2,24.64,599.2,26.58L599.2,26.58z"/>
		</g>
	</g>
	<g>
		<g>
			<path class="st1" d="M649.26,26.72c0.03,16.63,0.07,33.26,0.1,49.88c0,1.93,3,1.93,3,0c-0.03-16.63-0.07-33.26-0.1-49.88
				C652.25,24.79,649.25,24.79,649.26,26.72L649.26,26.72z"/>
		</g>
	</g>
	<g>
		<g>
			<path class="st1" d="M698.52,27.33c0.03,16.63,0.07,33.26,0.1,49.88c0,1.93,3,1.93,3,0c-0.03-16.63-0.07-33.26-0.1-49.88
				C701.51,25.4,698.51,25.4,698.52,27.33L698.52,27.33z"/>
		</g>
	</g>
	<g>
		<g>
			<path class="st1" d="M748.57,27.48c0.03,16.63,0.07,33.26,0.1,49.88c0,1.93,3,1.93,3,0c-0.03-16.63-0.07-33.26-0.1-49.88
				C751.57,25.55,748.57,25.54,748.57,27.48L748.57,27.48z"/>
		</g>
	</g>
	<g>
		<g>
			<path class="st1" d="M798.54,27.4c0.03,16.63,0.07,33.26,0.1,49.88c0,1.93,3,1.93,3,0c-0.03-16.63-0.07-33.26-0.1-49.88
				C801.54,25.47,798.54,25.47,798.54,27.4L798.54,27.4z"/>
		</g>
	</g>
	<g>
		<g>
			<path class="st1" d="M848.6,27.55c0.03,16.63,0.07,33.26,0.1,49.88c0,1.93,3,1.93,3,0c-0.03-16.63-0.07-33.26-0.1-49.88
				C851.59,25.62,848.59,25.62,848.6,27.55L848.6,27.55z"/>
		</g>
	</g>
</g>
<g id="Слой_1__x28_копия8_x29_">
	<g>
		<g>
			<path class="st2" d="M550.4,28.02c16.66-0.02,33.32-0.05,49.97-0.07c1.93,0,1.93-3,0-3c-16.66,0.02-33.32,0.05-49.97,0.07
				C548.47,25.03,548.46,28.03,550.4,28.02L550.4,28.02z"/>
		</g>
	</g>
	<g>
		<g>
			<path class="st2" d="M650.42,28.1c16.63,0.14,33.27,0.28,49.9,0.41c1.93,0.02,1.93-2.98,0-3c-16.63-0.14-33.27-0.28-49.9-0.41
				C648.49,25.08,648.49,28.08,650.42,28.1L650.42,28.1z"/>
		</g>
	</g>
	<g>
		<g>
			<path class="st2" d="M800.35,25.58c-16.78-0.03-33.57-0.05-50.35-0.08c-1.93,0-1.93,3,0,3c16.78,0.03,33.57,0.05,50.35,0.08
				C802.28,28.59,802.29,25.59,800.35,25.58L800.35,25.58z"/>
		</g>
	</g>
	<g>
		<g>
			<path class="st2" d="M849.35,28.29c4.11,4.06,7.18,9.28,8.81,14.82c2.61,8.86,1.3,18.43-3.35,26.37
				c-1.37,2.33-2.98,4.51-4.86,6.46c-1.34,1.39,0.78,3.51,2.12,2.12c4.78-4.95,8.21-11.35,9.64-18.08
				c2.01-9.5,0.05-19.44-5.22-27.57c-1.45-2.24-3.12-4.37-5.02-6.24C850.09,24.81,847.97,26.93,849.35,28.29L849.35,28.29z"/>
		</g>
	</g>
	<g>
		<g>
			<path class="st2" d="M550.81,77.2c16.66-0.02,33.32-0.05,49.97-0.07c1.93,0,1.93-3,0-3c-16.66,0.02-33.32,0.05-49.97,0.07
				C548.88,74.2,548.88,77.2,550.81,77.2L550.81,77.2z"/>
		</g>
	</g>
	<g>
		<g>
			<path class="st2" d="M650.84,77.27c16.63,0.14,33.27,0.28,49.9,0.41c1.93,0.02,1.93-2.98,0-3c-16.63-0.14-33.27-0.28-49.9-0.41
				C648.91,74.26,648.9,77.26,650.84,77.27L650.84,77.27z"/>
		</g>
	</g>
	<g>
		<g>
			<path class="st2" d="M800.77,74.76c-16.78-0.03-33.57-0.05-50.35-0.08c-1.93,0-1.93,3,0,3c16.78,0.03,33.57,0.05,50.35,0.08
				C802.7,77.76,802.7,74.76,800.77,74.76L800.77,74.76z"/>
		</g>
	</g>
</g>
<g id="Слой_1__x28_копия7_x29_">
	<g>
		<g>
			<path class="st0" d="M300.51,28.68c16.68,0.05,33.37,0.1,50.05,0.15c1.93,0.01,1.93-2.99,0-3c-16.68-0.05-33.37-0.1-50.05-0.15
				C298.58,25.68,298.58,28.68,300.51,28.68L300.51,28.68z"/>
		</g>
	</g>
	<g>
		<g>
			<path class="st0" d="M300.45,78.75c16.68,0.05,33.37,0.1,50.05,0.15c1.93,0.01,1.93-2.99,0-3c-16.68-0.05-33.37-0.1-50.05-0.15
				C298.52,75.74,298.51,78.74,300.45,78.75L300.45,78.75z"/>
		</g>
	</g>
	<g>
		<g>
			<path class="st0" d="M400.51,28.68c16.68,0.05,33.37,0.1,50.05,0.15c1.93,0.01,1.93-2.99,0-3c-16.68-0.05-33.37-0.1-50.05-0.15
				C398.58,25.68,398.58,28.68,400.51,28.68L400.51,28.68z"/>
		</g>
	</g>
	<g>
		<g>
			<path class="st0" d="M400.45,78.75c16.68,0.05,33.37,0.1,50.05,0.15c1.93,0.01,1.93-2.99,0-3c-16.68-0.05-33.37-0.1-50.05-0.15
				C398.52,75.74,398.51,78.74,400.45,78.75L400.45,78.75z"/>
		</g>
	</g>
	<g>
		<g>
			<path class="st1" d="M298.94,27c0.03,16.63,0.07,33.26,0.1,49.88c0,1.93,3,1.93,3,0c-0.03-16.63-0.07-33.26-0.1-49.88
				C301.93,25.07,298.93,25.07,298.94,27L298.94,27z"/>
		</g>
	</g>
	<g>
		<g>
			<path class="st1" d="M348.99,27.15c0.03,16.63,0.07,33.26,0.1,49.88c0,1.93,3,1.93,3,0c-0.03-16.63-0.07-33.26-0.1-49.88
				C351.99,25.22,348.99,25.21,348.99,27.15L348.99,27.15z"/>
		</g>
	</g>
	<g>
		<g>
			<path class="st1" d="M398.96,27.08c0.03,16.63,0.07,33.26,0.1,49.88c0,1.93,3,1.93,3,0c-0.03-16.63-0.07-33.26-0.1-49.88
				C401.96,25.14,398.96,25.14,398.96,27.08L398.96,27.08z"/>
		</g>
	</g>
	<g>
		<g>
			<path class="st1" d="M449.02,27.22c0.03,16.63,0.07,33.26,0.1,49.88c0,1.93,3,1.93,3,0c-0.03-16.63-0.07-33.26-0.1-49.88
				C452.01,25.29,449.01,25.29,449.02,27.22L449.02,27.22z"/>
		</g>
	</g>
	<g>
		<g>
			<path class="st2" d="M300.66,78.5c1.93,0,1.93-3,0-3C298.73,75.5,298.73,78.5,300.66,78.5L300.66,78.5z"/>
		</g>
	</g>
	<g>
		<g>
			<path class="st2" d="M351.66,78.5c4-0.04,7.47-2.4,10.3-5.02c3.71-3.44,6.72-7.62,9.58-11.77c6.19-8.98,11.41-18.91,18.84-26.95
				c1.57-1.7,3.26-3.33,5.22-4.56c1.61-1.01,3.31-1.68,5.06-1.7c1.93-0.02,1.93-3.02,0-3c-4,0.04-7.47,2.4-10.3,5.02
				c-3.71,3.44-6.72,7.62-9.58,11.77c-6.19,8.98-11.41,18.91-18.84,26.95c-1.57,1.7-3.26,3.33-5.22,4.56
				c-1.61,1.01-3.31,1.68-5.06,1.7C349.74,75.52,349.73,78.52,351.66,78.5L351.66,78.5z"/>
		</g>
	</g>
	<g>
		<g>
			<path class="st2" d="M351.73,26.06c3.79-4.02,9.13-6.37,14.29-8.07c6.81-2.25,13.95-3.5,21.08-4.19
				c15.12-1.46,31.05-0.86,45.7,3.4c5.95,1.73,12.29,4.17,16.65,8.74c1.34,1.4,3.45-0.72,2.12-2.12c-4.07-4.26-9.72-6.81-15.22-8.65
				c-7.13-2.39-14.63-3.65-22.09-4.37c-8.14-0.78-16.36-0.85-24.52-0.22c-7.62,0.58-15.28,1.73-22.61,3.92
				c-6.28,1.88-12.93,4.58-17.52,9.45C348.28,25.34,350.4,27.47,351.73,26.06L351.73,26.06z"/>
		</g>
	</g>
	<g>
		<g>
			<path class="st2" d="M300.66,28.5c1.93,0,1.93-3,0-3C298.73,25.5,298.73,28.5,300.66,28.5L300.66,28.5z"/>
		</g>
	</g>
	<g>
		<g>
			<path class="st2" d="M299.6,77.06c4.08,3.91,9.76,6.02,15.08,7.58c7.32,2.15,14.95,3.27,22.54,3.94
				c8.28,0.73,16.63,0.84,24.93,0.34c7.63-0.46,15.31-1.4,22.71-3.35c5.93-1.56,12.62-3.82,16.85-8.51
				c1.29-1.43-0.82-3.56-2.12-2.12c-3.38,3.74-8.63,5.73-13.47,7.17c-6.94,2.06-14.17,3.08-21.38,3.64
				c-15.43,1.19-31.55,0.58-46.59-3.26c-5.7-1.46-12.21-3.49-16.44-7.54C300.33,73.6,298.21,75.72,299.6,77.06L299.6,77.06z"/>
		</g>
	</g>
	<g>
		<g>
			<path class="st2" d="M450.66,78.5c4.01-0.04,7.5-2.39,10.36-4.99c3.8-3.45,6.9-7.65,9.86-11.82
				c6.35-8.96,11.78-18.85,19.33-26.89c1.62-1.72,3.36-3.37,5.37-4.62c1.63-1.01,3.32-1.67,5.07-1.68c1.93-0.02,1.93-3.02,0-3
				c-4.01,0.04-7.5,2.39-10.36,4.99c-3.8,3.45-6.9,7.65-9.86,11.82c-6.35,8.96-11.78,18.85-19.33,26.89
				c-1.62,1.72-3.36,3.37-5.37,4.62c-1.63,1.01-3.32,1.67-5.07,1.68C448.74,75.52,448.73,78.52,450.66,78.5L450.66,78.5z"/>
		</g>
	</g>
	<g>
		<g>
			<path class="st0" d="M100.36,27.7c16.72-0.02,33.43-0.05,50.15-0.07c1.93,0,1.93-3,0-3c-16.72,0.02-33.43,0.05-50.15,0.07
				C98.43,24.71,98.42,27.71,100.36,27.7L100.36,27.7z"/>
		</g>
	</g>
	<g>
		<g>
			<path class="st0" d="M100.46,77.59c16.68,0.05,33.37,0.1,50.05,0.15c1.93,0.01,1.93-2.99,0-3c-16.68-0.05-33.37-0.1-50.05-0.15
				C98.53,74.58,98.52,77.58,100.46,77.59L100.46,77.59z"/>
		</g>
	</g>
	<g>
		<g>
			<path class="st0" d="M200.38,27.78c16.68,0.05,33.37,0.1,50.05,0.15c1.93,0.01,1.93-2.99,0-3c-16.68-0.05-33.37-0.1-50.05-0.15
				C198.45,24.77,198.45,27.77,200.38,27.78L200.38,27.78z"/>
		</g>
	</g>
	<g>
		<g>
			<path class="st0" d="M200.32,77.84c16.68,0.05,33.37,0.1,50.05,0.15c1.93,0.01,1.93-2.99,0-3c-16.68-0.05-33.37-0.1-50.05-0.15
				C198.39,74.84,198.39,77.84,200.32,77.84L200.32,77.84z"/>
		</g>
	</g>
	<g>
		<g>
			<path class="st1" d="M98.86,26.2c0.03,16.63,0.07,33.26,0.1,49.88c0,1.93,3,1.93,3,0c-0.03-16.63-0.07-33.26-0.1-49.88
				C101.85,24.27,98.85,24.27,98.86,26.2L98.86,26.2z"/>
		</g>
	</g>
	<g>
		<g>
			<path class="st1" d="M148.91,26.35c0.03,16.63,0.07,33.26,0.1,49.88c0,1.93,3,1.93,3,0c-0.03-16.63-0.07-33.26-0.1-49.88
				C151.91,24.42,148.91,24.41,148.91,26.35L148.91,26.35z"/>
		</g>
	</g>
	<g>
		<g>
			<path class="st1" d="M198.88,26.28c0.03,16.63,0.07,33.26,0.1,49.88c0,1.93,3,1.93,3,0c-0.03-16.63-0.07-33.26-0.1-49.88
				C201.88,24.35,198.88,24.34,198.88,26.28L198.88,26.28z"/>
		</g>
	</g>
	<g>
		<g>
			<path class="st1" d="M248.94,26.42c0.03,16.63,0.07,33.26,0.1,49.88c0,1.93,3,1.93,3,0c-0.03-16.63-0.07-33.26-0.1-49.88
				C251.93,24.49,248.93,24.49,248.94,26.42L248.94,26.42z"/>
		</g>
	</g>
	<g>
		<g>
			<path class="st2" d="M100.36,24.7c-7.48,0.45-10.97,8.89-12.71,15.07c-2.67,9.5-3.13,19.83-2.13,29.61
				c0.76,7.49,2.21,17.37,8.18,22.7c3.22,2.87,7.85,2.91,11.94,3.33c11.58,1.17,23.24,1.61,34.87,2.02
				c17.24,0.61,34.5,0.91,51.75,1.08c20.74,0.21,41.49,0.2,62.24,0.04c22.11-0.17,44.22-0.52,66.33-1.08
				c21.35-0.54,42.69-1.27,64.02-2.3c18.45-0.89,36.91-1.99,55.31-3.61c13.51-1.19,27.07-2.53,40.41-5.03
				c4.21-0.79,8.45-1.67,12.52-3.06c2.39-0.81,5.19-1.8,6.94-3.73c0.68-0.76,1.15-1.69,1.16-2.73c0.02-1.93-2.98-1.93-3,0
				c0,0.16-0.03,0.2-0.05,0.25c-0.25,0.6,0.02,0.15-0.49,0.63c-0.11,0.1-0.56,0.48-0.38,0.34c0.15-0.12-0.38,0.26-0.53,0.36
				c-0.5,0.31-1.01,0.59-1.53,0.84c-1.09,0.53-2.44,1.02-3.98,1.5c-1.9,0.6-3.83,1.09-5.78,1.54c-11.58,2.66-23.49,3.96-35.3,5.15
				c-17.14,1.73-34.33,2.88-51.52,3.84c-20.29,1.12-40.59,1.93-60.9,2.54c-21.61,0.66-43.24,1.1-64.86,1.37
				c-20.88,0.26-41.77,0.36-62.66,0.27c-18.16-0.08-36.32-0.29-54.48-0.75c-13.44-0.34-26.9-0.77-40.32-1.68
				c-4.32-0.29-8.65-0.63-12.95-1.16c-1.3-0.16-3.2-0.22-4.77-0.88c-2.74-1.16-4.43-4.14-5.59-6.72
				c-3.73-8.31-4.27-18.25-3.95-27.22c0.3-8.35,1.34-18.1,6.08-25.24c1.41-2.12,3.46-4.12,6.14-4.28
				C102.27,27.59,102.29,24.59,100.36,24.7L100.36,24.7z"/>
		</g>
	</g>
	<g>
		<g>
			<path class="st2" d="M150.51,77.63c4.38-0.03,8.26-1.6,11.33-4.74c3.62-3.71,6.08-8.49,8.68-12.92
				c3.51-5.99,7.22-11.87,10.95-17.72c2.45-3.84,4.93-7.88,8.36-10.94c3.02-2.7,6.7-3.66,10.68-3.68c1.93-0.01,1.93-3.01,0-3
				c-3.74,0.02-7.46,0.73-10.6,2.84c-3.49,2.34-6.05,5.81-8.39,9.24c-3.69,5.41-7.1,11.05-10.53,16.63
				c-3.06,4.99-5.73,10.3-9.22,15.01c-1.33,1.8-2.9,3.51-4.83,4.67c-1.96,1.17-4.16,1.6-6.42,1.62
				C148.58,74.64,148.57,77.64,150.51,77.63L150.51,77.63z"/>
		</g>
	</g>
	<g>
		<g>
			<path class="st2" d="M300.51,25.63c-3.93,0.04-7.36,2.38-10.19,4.91c-3.77,3.37-6.88,7.45-9.86,11.5
				c-6.49,8.83-12.1,18.56-19.74,26.48c-1.59,1.65-3.29,3.22-5.24,4.43c-1.6,0.99-3.27,1.66-4.98,1.68c-1.93,0.02-1.93,3.02,0,3
				c3.93-0.04,7.36-2.38,10.19-4.91c3.77-3.37,6.88-7.45,9.86-11.5c6.49-8.83,12.1-18.56,19.74-26.48c1.59-1.65,3.29-3.22,5.24-4.43
				c1.6-0.99,3.27-1.66,4.98-1.68C302.43,28.61,302.44,25.61,300.51,25.63L300.51,25.63z"/>
		</g>
	</g>
	<g>
		<g>
			<path class="st2" d="M99.44,77.19c3.78,4.81,9.45,7.84,15.07,9.98c7.06,2.69,14.61,4.05,22.11,4.78
				c8.13,0.79,16.35,0.76,24.48-0.02c7.66-0.73,15.34-2.08,22.66-4.49c6.43-2.13,13.18-5.12,17.8-10.24
				c1.29-1.43-0.82-3.56-2.12-2.12c-3.78,4.19-9.11,6.81-14.34,8.73c-6.87,2.52-14.13,4-21.38,4.85
				c-15.07,1.76-31.19,1.33-45.71-3.42c-6.12-2-12.38-4.99-16.45-10.16C100.37,73.55,98.26,75.69,99.44,77.19L99.44,77.19z"/>
		</g>
	</g>
	<g>
		<g>
			<path class="st2" d="M252.01,27.13c0.6-5.76-4.61-9.7-9.24-11.9c-7.43-3.53-15.83-4.94-23.94-5.84
				c-9.78-1.09-19.69-1.19-29.5-0.46c-8.74,0.65-17.66,1.86-25.97,4.76c-5.3,1.85-12.06,4.79-13.97,10.61
				c-0.2,0.6-0.3,1.21-0.37,1.84c-0.24,1.91,2.77,1.89,3,0c-0.05,0.4,0.06-0.28,0.09-0.43c0.07-0.28,0.15-0.54,0.24-0.81
				c0.02-0.06,0.17-0.42,0.08-0.22c-0.08,0.19,0.07-0.15,0.1-0.21c0.13-0.24,0.25-0.49,0.4-0.72c0.14-0.22,0.29-0.44,0.44-0.65
				c0.22-0.3-0.09,0.1,0.08-0.11c0.1-0.12,0.2-0.24,0.31-0.36c0.41-0.47,0.86-0.9,1.33-1.3c0.84-0.72,2-1.5,3.23-2.18
				c1.39-0.77,2.8-1.41,4.17-1.94c7.62-2.96,15.9-4.27,24-5.03c9.39-0.88,18.89-0.94,28.29-0.17c8.07,0.66,16.33,1.86,23.93,4.74
				c1.41,0.54,2.72,1.11,4.14,1.89c1.2,0.66,2.4,1.46,3.19,2.14c0.45,0.39,0.88,0.8,1.27,1.25c0.23,0.26,0.36,0.43,0.35,0.42
				c0.18,0.24,0.34,0.49,0.5,0.74c0.13,0.22,0.25,0.44,0.36,0.67c0.03,0.06,0.18,0.4,0.1,0.21c-0.08-0.19,0.07,0.19,0.1,0.27
				c0.07,0.24,0.15,0.47,0.21,0.71c0.03,0.12,0.05,0.24,0.08,0.36c0.09,0.43,0-0.17,0.03,0.18c0.04,0.53,0.04,1.04-0.01,1.57
				C248.8,29.05,251.81,29.03,252.01,27.13L252.01,27.13z"/>
		</g>
	</g>
	<g>
		<g>
			<path class="st3" d="M500.34,29.38c3.86,0,3.87-6,0-6C496.48,23.38,496.48,29.38,500.34,29.38L500.34,29.38z"/>
		</g>
	</g>
	<g>
		<g>
			<path class="st3" d="M500.44,79.26c3.86,0,3.87-6,0-6C496.58,73.26,496.58,79.26,500.44,79.26L500.44,79.26z"/>
		</g>
	</g>
	<g>
		<g>
			<path class="st3" d="M550.4,29.52c3.86,0,3.87-6,0-6C546.54,23.52,546.53,29.52,550.4,29.52L550.4,29.52z"/>
		</g>
	</g>
	<g>
		<g>
			<path class="st3" d="M550.5,79.41c3.86,0,3.87-6,0-6C546.64,73.41,546.63,79.41,550.5,79.41L550.5,79.41z"/>
		</g>
	</g>
	<g>
		<g>
			<path class="st3" d="M600.37,29.45c3.86,0,3.87-6,0-6C596.51,23.45,596.5,29.45,600.37,29.45L600.37,29.45z"/>
		</g>
	</g>
	<g>
		<g>
			<path class="st3" d="M600.47,79.33c3.86,0,3.87-6,0-6C596.61,73.33,596.6,79.33,600.47,79.33L600.47,79.33z"/>
		</g>
	</g>
	<g>
		<g>
			<path class="st3" d="M650.42,29.6c3.86,0,3.87-6,0-6C646.56,23.6,646.56,29.6,650.42,29.6L650.42,29.6z"/>
		</g>
	</g>
	<g>
		<g>
			<path class="st3" d="M650.52,79.48c3.86,0,3.87-6,0-6C646.66,73.48,646.66,79.48,650.52,79.48L650.52,79.48z"/>
		</g>
	</g>
	<g>
		<g>
			<path class="st3" d="M700.33,30.01c3.86,0,3.87-6,0-6C696.47,24.01,696.46,30.01,700.33,30.01L700.33,30.01z"/>
		</g>
	</g>
	<g>
		<g>
			<path class="st3" d="M700.43,79.89c3.86,0,3.87-6,0-6C696.57,73.89,696.56,79.89,700.43,79.89L700.43,79.89z"/>
		</g>
	</g>
	<g>
		<g>
			<path class="st3" d="M750.38,30.15c3.86,0,3.87-6,0-6C746.52,24.15,746.51,30.15,750.38,30.15L750.38,30.15z"/>
		</g>
	</g>
	<g>
		<g>
			<path class="st3" d="M750.48,80.04c3.86,0,3.87-6,0-6C746.62,74.04,746.61,80.04,750.48,80.04L750.48,80.04z"/>
		</g>
	</g>
	<g>
		<g>
			<path class="st3" d="M800.35,30.08c3.86,0,3.87-6,0-6C796.49,24.08,796.49,30.08,800.35,30.08L800.35,30.08z"/>
		</g>
	</g>
	<g>
		<g>
			<path class="st3" d="M800.45,79.97c3.86,0,3.87-6,0-6C796.59,73.97,796.59,79.97,800.45,79.97L800.45,79.97z"/>
		</g>
	</g>
	<g>
		<g>
			<path class="st3" d="M850.41,30.23c3.86,0,3.87-6,0-6C846.55,24.23,846.54,30.23,850.41,30.23L850.41,30.23z"/>
		</g>
	</g>
	<g>
		<g>
			<path class="st3" d="M850.51,80.11c3.86,0,3.87-6,0-6C846.65,74.11,846.64,80.11,850.51,80.11L850.51,80.11z"/>
		</g>
	</g>
	<g>
		<g>
			<path class="st3" d="M100.36,29.2c3.86,0,3.87-6,0-6C96.5,23.2,96.49,29.2,100.36,29.2L100.36,29.2z"/>
		</g>
	</g>
	<g>
		<g>
			<path class="st3" d="M100.46,79.09c3.86,0,3.87-6,0-6C96.6,73.09,96.59,79.09,100.46,79.09L100.46,79.09z"/>
		</g>
	</g>
	<g>
		<g>
			<path class="st3" d="M150.41,29.35c3.86,0,3.87-6,0-6C146.55,23.35,146.54,29.35,150.41,29.35L150.41,29.35z"/>
		</g>
	</g>
	<g>
		<g>
			<path class="st3" d="M150.51,79.23c3.86,0,3.87-6,0-6C146.65,73.23,146.64,79.23,150.51,79.23L150.51,79.23z"/>
		</g>
	</g>
	<g>
		<g>
			<path class="st3" d="M200.38,29.28c3.86,0,3.87-6,0-6C196.52,23.28,196.52,29.28,200.38,29.28L200.38,29.28z"/>
		</g>
	</g>
	<g>
		<g>
			<path class="st3" d="M200.48,79.16c3.86,0,3.87-6,0-6C196.62,73.16,196.62,79.16,200.48,79.16L200.48,79.16z"/>
		</g>
	</g>
	<g>
		<g>
			<path class="st3" d="M250.44,29.42c3.86,0,3.87-6,0-6C246.58,23.42,246.57,29.42,250.44,29.42L250.44,29.42z"/>
		</g>
	</g>
	<g>
		<g>
			<path class="st3" d="M250.54,79.3c3.86,0,3.87-6,0-6C246.68,73.3,246.67,79.3,250.54,79.3L250.54,79.3z"/>
		</g>
	</g>
	<g>
		<g>
			<path class="st3" d="M300.5,29.7c3.86,0,3.87-6,0-6C296.64,23.7,296.63,29.7,300.5,29.7L300.5,29.7z"/>
		</g>
	</g>
	<g>
		<g>
			<path class="st3" d="M300.6,79.59c3.86,0,3.87-6,0-6C296.74,73.59,296.73,79.59,300.6,79.59L300.6,79.59z"/>
		</g>
	</g>
	<g>
		<g>
			<path class="st3" d="M350.55,29.85c3.86,0,3.87-6,0-6C346.69,23.85,346.69,29.85,350.55,29.85L350.55,29.85z"/>
		</g>
	</g>
	<g>
		<g>
			<path class="st3" d="M350.65,79.73c3.86,0,3.87-6,0-6C346.79,73.73,346.79,79.73,350.65,79.73L350.65,79.73z"/>
		</g>
	</g>
	<g>
		<g>
			<path class="st3" d="M400.53,29.78c3.86,0,3.87-6,0-6C396.67,23.78,396.66,29.78,400.53,29.78L400.53,29.78z"/>
		</g>
	</g>
	<g>
		<g>
			<path class="st3" d="M400.63,79.66c3.86,0,3.87-6,0-6C396.77,73.66,396.76,79.66,400.63,79.66L400.63,79.66z"/>
		</g>
	</g>
	<g>
		<g>
			<path class="st3" d="M450.58,29.92c3.86,0,3.87-6,0-6C446.72,23.92,446.71,29.92,450.58,29.92L450.58,29.92z"/>
		</g>
	</g>
	<g>
		<g>
			<path class="st3" d="M450.68,79.81c3.86,0,3.87-6,0-6C446.82,73.81,446.81,79.81,450.68,79.81L450.68,79.81z"/>
		</g>
	</g>
</g>
<g id="Слой_1_копия_4">
	<g>
		<g>
			<path class="st0" d="M499.89,228.25c16.72-0.02,33.43-0.05,50.15-0.07c1.93,0,1.93-3,0-3c-16.72,0.02-33.43,0.05-50.15,0.07
				C497.96,225.25,497.96,228.25,499.89,228.25L499.89,228.25z"/>
		</g>
	</g>
	<g>
		<g>
			<path class="st0" d="M500,278.13c16.68,0.05,33.37,0.1,50.05,0.15c1.93,0.01,1.93-2.99,0-3c-16.68-0.05-33.37-0.1-50.05-0.15
				C498.07,275.13,498.06,278.13,500,278.13L500,278.13z"/>
		</g>
	</g>
	<g>
		<g>
			<path class="st0" d="M599.92,228.32c16.68,0.05,33.37,0.1,50.05,0.15c1.93,0.01,1.93-2.99,0-3c-16.68-0.05-33.37-0.1-50.05-0.15
				C597.99,225.32,597.99,228.32,599.92,228.32L599.92,228.32z"/>
		</g>
	</g>
	<g>
		<g>
			<path class="st0" d="M599.86,278.39c16.68,0.05,33.37,0.1,50.05,0.15c1.93,0.01,1.93-2.99,0-3c-16.68-0.05-33.37-0.1-50.05-0.15
				C597.93,275.39,597.92,278.39,599.86,278.39L599.86,278.39z"/>
		</g>
	</g>
	<g>
		<g>
			<path class="st0" d="M699.89,229.36c16.68,0.05,33.37,0.1,50.05,0.15c1.93,0.01,1.93-2.99,0-3c-16.68-0.05-33.37-0.1-50.05-0.15
				C697.96,226.35,697.96,229.35,699.89,229.36L699.89,229.36z"/>
		</g>
	</g>
	<g>
		<g>
			<path class="st0" d="M699.83,279.43c16.68,0.05,33.37,0.1,50.05,0.15c1.93,0.01,1.93-2.99,0-3c-16.68-0.05-33.37-0.1-50.05-0.15
				C697.89,276.42,697.89,279.42,699.83,279.43L699.83,279.43z"/>
		</g>
	</g>
	<g>
		<g>
			<path class="st0" d="M799.89,229.36c16.68,0.05,33.37,0.1,50.05,0.15c1.93,0.01,1.93-2.99,0-3c-16.68-0.05-33.37-0.1-50.05-0.15
				C797.96,226.35,797.96,229.35,799.89,229.36L799.89,229.36z"/>
		</g>
	</g>
	<g>
		<g>
			<path class="st0" d="M799.83,279.43c16.68,0.05,33.37,0.1,50.05,0.15c1.93,0.01,1.93-2.99,0-3c-16.68-0.05-33.37-0.1-50.05-0.15
				C797.89,276.42,797.89,279.42,799.83,279.43L799.83,279.43z"/>
		</g>
	</g>
</g>
<g id="Слой_1__x28_копия12_x29_">
	<g>
		<g>
			<path class="st1" d="M499.18,226.5c0.03,16.63,0.07,33.26,0.1,49.88c0,1.93,3,1.93,3,0c-0.03-16.63-0.07-33.26-0.1-49.88
				C502.17,224.57,499.17,224.57,499.18,226.5L499.18,226.5z"/>
		</g>
	</g>
	<g>
		<g>
			<path class="st1" d="M549.23,226.65c0.03,16.63,0.07,33.26,0.1,49.88c0,1.93,3,1.93,3,0c-0.03-16.63-0.07-33.26-0.1-49.88
				C552.22,224.72,549.22,224.71,549.23,226.65L549.23,226.65z"/>
		</g>
	</g>
	<g>
		<g>
			<path class="st1" d="M599.2,226.58c0.03,16.63,0.07,33.26,0.1,49.88c0,1.93,3,1.93,3,0c-0.03-16.63-0.07-33.26-0.1-49.88
				C602.2,224.64,599.2,224.64,599.2,226.58L599.2,226.58z"/>
		</g>
	</g>
	<g>
		<g>
			<path class="st1" d="M649.26,226.72c0.03,16.63,0.07,33.26,0.1,49.88c0,1.93,3,1.93,3,0c-0.03-16.63-0.07-33.26-0.1-49.88
				C652.25,224.79,649.25,224.79,649.26,226.72L649.26,226.72z"/>
		</g>
	</g>
	<g>
		<g>
			<path class="st1" d="M698.52,227.33c0.03,16.63,0.07,33.26,0.1,49.88c0,1.93,3,1.93,3,0c-0.03-16.63-0.07-33.26-0.1-49.88
				C701.51,225.4,698.51,225.4,698.52,227.33L698.52,227.33z"/>
		</g>
	</g>
	<g>
		<g>
			<path class="st1" d="M748.57,227.48c0.03,16.63,0.07,33.26,0.1,49.88c0,1.93,3,1.93,3,0c-0.03-16.63-0.07-33.26-0.1-49.88
				C751.57,225.55,748.57,225.54,748.57,227.48L748.57,227.48z"/>
		</g>
	</g>
	<g>
		<g>
			<path class="st1" d="M798.54,227.4c0.03,16.63,0.07,33.26,0.1,49.88c0,1.93,3,1.93,3,0c-0.03-16.63-0.07-33.26-0.1-49.88
				C801.54,225.47,798.54,225.47,798.54,227.4L798.54,227.4z"/>
		</g>
	</g>
	<g>
		<g>
			<path class="st1" d="M848.6,227.55c0.03,16.63,0.07,33.26,0.1,49.88c0,1.93,3,1.93,3,0c-0.03-16.63-0.07-33.26-0.1-49.88
				C851.59,225.62,848.59,225.62,848.6,227.55L848.6,227.55z"/>
		</g>
	</g>
</g>
<g id="Слой_1__x28_копия11_x29_">
	<g>
		<g>
			<path class="st2" d="M500.34,227.88c1.93,0,1.93-3,0-3C498.41,224.88,498.41,227.88,500.34,227.88L500.34,227.88z"/>
		</g>
	</g>
	<g>
		<g>
			<path class="st2" d="M550.4,228.02c1.51,0.01,3.02,0.51,4.45,1.3c1.76,0.98,3.31,2.29,4.75,3.69c3.71,3.62,6.78,7.88,9.73,12.12
				c3.3,4.75,6.43,9.62,9.73,14.37c2.99,4.29,6.09,8.6,9.8,12.3c3.11,3.1,7.04,6.15,11.64,6.19c1.93,0.02,1.93-2.98,0-3
				c-1.51-0.01-3.02-0.51-4.45-1.3c-1.76-0.98-3.31-2.29-4.75-3.69c-3.71-3.62-6.78-7.88-9.73-12.12c-3.3-4.75-6.43-9.62-9.73-14.37
				c-2.99-4.29-6.09-8.6-9.8-12.3c-3.11-3.1-7.04-6.15-11.64-6.19C548.47,225.01,548.46,228.01,550.4,228.02L550.4,228.02z"/>
		</g>
	</g>
	<g>
		<g>
			<path class="st2" d="M601.56,227.56c3.78-4.08,9.13-6.48,14.32-8.2c6.81-2.26,13.96-3.49,21.09-4.14
				c15.13-1.39,31.08-0.64,45.68,3.81c5.97,1.82,12.28,4.37,16.61,9.05c1.31,1.42,3.43-0.71,2.12-2.12
				c-4.02-4.35-9.67-6.99-15.18-8.92c-7.11-2.49-14.6-3.83-22.07-4.62c-8.13-0.86-16.36-0.99-24.51-0.41
				c-7.63,0.54-15.29,1.66-22.63,3.86c-6.32,1.89-12.99,4.64-17.56,9.58C598.13,226.85,600.24,228.98,601.56,227.56L601.56,227.56z"
				/>
		</g>
	</g>
	<g>
		<g>
			<path class="st2" d="M849,277.5c0.01,0.17,0,0.33-0.01,0.49c-0.01,0.22,0.09-0.38,0.01-0.09c-0.03,0.1-0.05,0.21-0.08,0.31
				c-0.1,0.44,0.07-0.05-0.06,0.17c-0.09,0.16-0.19,0.32-0.29,0.49c-0.18,0.3,0.19-0.15-0.16,0.2c-0.15,0.15-0.3,0.31-0.45,0.46
				c-0.1,0.09-0.62,0.5-0.27,0.24c-0.21,0.16-0.43,0.31-0.66,0.46c-0.45,0.29-0.92,0.55-1.4,0.79c-0.25,0.13-0.51,0.25-0.77,0.36
				c-0.48,0.22-0.19,0.1-0.65,0.28c-1.35,0.53-2.73,0.97-4.13,1.35c-7.57,2.06-15.51,2.81-23.31,3.29
				c-9.52,0.59-19.08,0.6-28.6,0.08c-8.26-0.45-16.61-1.21-24.68-3.11c-1.58-0.37-3.15-0.79-4.69-1.29
				c-1.43-0.47-2.36-0.82-3.53-1.4c-0.5-0.25-0.99-0.51-1.47-0.81c-0.21-0.13-0.41-0.27-0.61-0.41c-0.13-0.09-0.29-0.22-0.06-0.03
				c-0.1-0.08-0.2-0.16-0.3-0.24c-0.16-0.14-0.32-0.28-0.47-0.43c-0.11-0.12-0.56-0.67-0.27-0.27c-0.11-0.15-0.21-0.3-0.31-0.46
				c-0.12-0.19-0.26-0.61-0.13-0.22c-0.05-0.16-0.09-0.33-0.15-0.49c-0.1-0.32,0,0.31-0.02-0.21c-0.08-1.92-3.08-1.93-3,0
				c0.2,5.05,7.02,7.16,10.93,8.3c7.98,2.34,16.44,3.22,24.71,3.81c9.87,0.71,19.8,0.82,29.68,0.34c8.54-0.41,17.22-1.14,25.54-3.17
				c2.85-0.69,5.76-1.56,8.35-2.98c1.76-0.97,3.62-2.39,4.15-4.44c0.11-0.44,0.17-0.92,0.14-1.37
				C851.89,275.58,848.89,275.57,849,277.5L849,277.5z"/>
		</g>
	</g>
	<g>
		<g>
			<path class="st2" d="M800.88,227.47c4.06-4.11,9.28-7.18,14.82-8.81c8.86-2.61,18.43-1.3,26.37,3.35
				c2.33,1.37,4.51,2.98,6.46,4.86c1.39,1.34,3.51-0.78,2.12-2.12c-4.95-4.78-11.35-8.21-18.08-9.64
				c-9.5-2.01-19.44-0.05-27.57,5.22c-2.24,1.45-4.37,3.12-6.24,5.02C797.4,226.73,799.52,228.85,800.88,227.47L800.88,227.47z"/>
		</g>
	</g>
	<g>
		<g>
			<path class="st2" d="M500.76,277.05c1.93,0,1.93-3,0-3C498.83,274.05,498.82,277.05,500.76,277.05L500.76,277.05z"/>
		</g>
	</g>
	<g>
		<g>
			<path class="st2" d="M549.75,276.76c4.15,3.97,9.72,6.28,15.11,7.99c7.16,2.27,14.64,3.5,22.1,4.24
				c8.1,0.8,16.28,0.96,24.41,0.49c7.62-0.45,15.28-1.41,22.67-3.36c6.21-1.64,12.81-4.01,17.52-8.55c1.39-1.34-0.73-3.46-2.12-2.12
				c-3.82,3.69-9.2,5.75-14.27,7.24c-6.91,2.03-14.1,3.08-21.28,3.62c-15.04,1.14-30.74,0.41-45.34-3.59
				c-5.86-1.61-12.25-3.82-16.69-8.07C550.48,273.3,548.35,275.42,549.75,276.76L549.75,276.76z"/>
		</g>
	</g>
	<g>
		<g>
			<path class="st2" d="M649.5,228c1.52,0.03,3.06,0.54,4.5,1.34c1.79,0.99,3.38,2.3,4.86,3.7c3.77,3.58,6.93,7.78,9.97,11.97
				c3.42,4.72,6.67,9.56,10.1,14.28c3.1,4.27,6.31,8.56,10.11,12.23c3.17,3.06,7.12,6.07,11.72,6.15c1.93,0.03,1.93-2.97,0-3
				c-1.52-0.03-3.06-0.54-4.5-1.34c-1.79-0.99-3.38-2.3-4.86-3.7c-3.77-3.58-6.93-7.78-9.97-11.97c-3.42-4.72-6.67-9.56-10.1-14.28
				c-3.1-4.27-6.31-8.56-10.11-12.23c-3.17-3.06-7.12-6.07-11.72-6.15C647.57,224.97,647.57,227.97,649.5,228L649.5,228z"/>
		</g>
	</g>
	<g>
		<g>
			<path class="st2" d="M799.5,276c-1.52-0.02-3.02-0.51-4.44-1.31c-1.74-0.98-3.26-2.29-4.67-3.7c-3.63-3.62-6.59-7.88-9.44-12.12
				c-3.18-4.75-6.19-9.61-9.38-14.36c-2.88-4.29-5.89-8.6-9.52-12.3c-3.07-3.13-6.96-6.15-11.55-6.2c-1.93-0.02-1.93,2.98,0,3
				c1.52,0.02,3.02,0.51,4.44,1.31c1.74,0.98,3.26,2.29,4.67,3.7c3.63,3.62,6.59,7.88,9.44,12.12c3.18,4.75,6.19,9.61,9.38,14.36
				c2.88,4.29,5.89,8.6,9.52,12.3c3.07,3.13,6.96,6.15,11.55,6.2C801.43,279.02,801.43,276.02,799.5,276L799.5,276z"/>
		</g>
	</g>
</g>
<g id="Слой_1_копия_5">
	<g>
		<g>
			<path class="st0" d="M300.35,128.18c16.68,0.05,33.37,0.1,50.05,0.15c1.93,0.01,1.93-2.99,0-3c-16.68-0.05-33.37-0.1-50.05-0.15
				C298.41,125.18,298.41,128.18,300.35,128.18L300.35,128.18z"/>
		</g>
	</g>
	<g>
		<g>
			<path class="st0" d="M300.28,178.25c16.68,0.05,33.37,0.1,50.05,0.15c1.93,0.01,1.93-2.99,0-3c-16.68-0.05-33.37-0.1-50.05-0.15
				C298.35,175.24,298.35,178.24,300.28,178.25L300.28,178.25z"/>
		</g>
	</g>
	<g>
		<g>
			<path class="st0" d="M400.35,128.18c16.68,0.05,33.37,0.1,50.05,0.15c1.93,0.01,1.93-2.99,0-3c-16.68-0.05-33.37-0.1-50.05-0.15
				C398.41,125.18,398.41,128.18,400.35,128.18L400.35,128.18z"/>
		</g>
	</g>
	<g>
		<g>
			<path class="st0" d="M400.28,178.25c16.68,0.05,33.37,0.1,50.05,0.15c1.93,0.01,1.93-2.99,0-3c-16.68-0.05-33.37-0.1-50.05-0.15
				C398.35,175.24,398.35,178.24,400.28,178.25L400.28,178.25z"/>
		</g>
	</g>
	<g>
		<g>
			<path class="st0" d="M499.89,128.25c16.72-0.02,33.43-0.05,50.15-0.07c1.93,0,1.93-3,0-3c-16.72,0.02-33.43,0.05-50.15,0.07
				C497.96,125.25,497.96,128.25,499.89,128.25L499.89,128.25z"/>
		</g>
	</g>
	<g>
		<g>
			<path class="st0" d="M500,178.13c16.68,0.05,33.37,0.1,50.05,0.15c1.93,0.01,1.93-2.99,0-3c-16.68-0.05-33.37-0.1-50.05-0.15
				C498.07,175.13,498.06,178.13,500,178.13L500,178.13z"/>
		</g>
	</g>
	<g>
		<g>
			<path class="st0" d="M599.92,128.32c16.68,0.05,33.37,0.1,50.05,0.15c1.93,0.01,1.93-2.99,0-3c-16.68-0.05-33.37-0.1-50.05-0.15
				C597.99,125.32,597.99,128.32,599.92,128.32L599.92,128.32z"/>
		</g>
	</g>
	<g>
		<g>
			<path class="st0" d="M599.86,178.39c16.68,0.05,33.37,0.1,50.05,0.15c1.93,0.01,1.93-2.99,0-3c-16.68-0.05-33.37-0.1-50.05-0.15
				C597.93,175.39,597.92,178.39,599.86,178.39L599.86,178.39z"/>
		</g>
	</g>
	<g>
		<g>
			<path class="st0" d="M699.89,129.36c16.68,0.05,33.37,0.1,50.05,0.15c1.93,0.01,1.93-2.99,0-3c-16.68-0.05-33.37-0.1-50.05-0.15
				C697.96,126.35,697.96,129.35,699.89,129.36L699.89,129.36z"/>
		</g>
	</g>
	<g>
		<g>
			<path class="st0" d="M699.83,179.43c16.68,0.05,33.37,0.1,50.05,0.15c1.93,0.01,1.93-2.99,0-3c-16.68-0.05-33.37-0.1-50.05-0.15
				C697.89,176.42,697.89,179.42,699.83,179.43L699.83,179.43z"/>
		</g>
	</g>
	<g>
		<g>
			<path class="st0" d="M799.89,129.36c16.68,0.05,33.37,0.1,50.05,0.15c1.93,0.01,1.93-2.99,0-3c-16.68-0.05-33.37-0.1-50.05-0.15
				C797.96,126.35,797.96,129.35,799.89,129.36L799.89,129.36z"/>
		</g>
	</g>
	<g>
		<g>
			<path class="st0" d="M799.83,179.43c16.68,0.05,33.37,0.1,50.05,0.15c1.93,0.01,1.93-2.99,0-3c-16.68-0.05-33.37-0.1-50.05-0.15
				C797.89,176.42,797.89,179.42,799.83,179.43L799.83,179.43z"/>
		</g>
	</g>
</g>
<g id="Слой_1__x28_копия15_x29_">
	<g>
		<g>
			<path class="st1" d="M298.77,126.5c0.03,16.63,0.07,33.26,0.1,49.88c0,1.93,3,1.93,3,0c-0.03-16.63-0.07-33.26-0.1-49.88
				C301.77,124.57,298.77,124.57,298.77,126.5L298.77,126.5z"/>
		</g>
	</g>
	<g>
		<g>
			<path class="st1" d="M348.82,126.65c0.03,16.63,0.07,33.26,0.1,49.88c0,1.93,3,1.93,3,0c-0.03-16.63-0.07-33.26-0.1-49.88
				C351.82,124.72,348.82,124.71,348.82,126.65L348.82,126.65z"/>
		</g>
	</g>
	<g>
		<g>
			<path class="st1" d="M398.8,126.58c0.03,16.63,0.07,33.26,0.1,49.88c0,1.93,3,1.93,3,0c-0.03-16.63-0.07-33.26-0.1-49.88
				C401.79,124.64,398.79,124.64,398.8,126.58L398.8,126.58z"/>
		</g>
	</g>
	<g>
		<g>
			<path class="st1" d="M448.85,126.72c0.03,16.63,0.07,33.26,0.1,49.88c0,1.93,3,1.93,3,0c-0.03-16.63-0.07-33.26-0.1-49.88
				C451.85,124.79,448.85,124.79,448.85,126.72L448.85,126.72z"/>
		</g>
	</g>
	<g>
		<g>
			<path class="st1" d="M499.18,126.5c0.03,16.63,0.07,33.26,0.1,49.88c0,1.93,3,1.93,3,0c-0.03-16.63-0.07-33.26-0.1-49.88
				C502.17,124.57,499.17,124.57,499.18,126.5L499.18,126.5z"/>
		</g>
	</g>
	<g>
		<g>
			<path class="st1" d="M549.23,126.65c0.03,16.63,0.07,33.26,0.1,49.88c0,1.93,3,1.93,3,0c-0.03-16.63-0.07-33.26-0.1-49.88
				C552.22,124.72,549.22,124.71,549.23,126.65L549.23,126.65z"/>
		</g>
	</g>
	<g>
		<g>
			<path class="st1" d="M599.2,126.58c0.03,16.63,0.07,33.26,0.1,49.88c0,1.93,3,1.93,3,0c-0.03-16.63-0.07-33.26-0.1-49.88
				C602.2,124.64,599.2,124.64,599.2,126.58L599.2,126.58z"/>
		</g>
	</g>
	<g>
		<g>
			<path class="st1" d="M649.26,126.72c0.03,16.63,0.07,33.26,0.1,49.88c0,1.93,3,1.93,3,0c-0.03-16.63-0.07-33.26-0.1-49.88
				C652.25,124.79,649.25,124.79,649.26,126.72L649.26,126.72z"/>
		</g>
	</g>
	<g>
		<g>
			<path class="st1" d="M698.52,127.33c0.03,16.63,0.07,33.26,0.1,49.88c0,1.93,3,1.93,3,0c-0.03-16.63-0.07-33.26-0.1-49.88
				C701.51,125.4,698.51,125.4,698.52,127.33L698.52,127.33z"/>
		</g>
	</g>
	<g>
		<g>
			<path class="st1" d="M748.57,127.48c0.03,16.63,0.07,33.26,0.1,49.88c0,1.93,3,1.93,3,0c-0.03-16.63-0.07-33.26-0.1-49.88
				C751.57,125.55,748.57,125.54,748.57,127.48L748.57,127.48z"/>
		</g>
	</g>
	<g>
		<g>
			<path class="st1" d="M798.54,127.4c0.03,16.63,0.07,33.26,0.1,49.88c0,1.93,3,1.93,3,0c-0.03-16.63-0.07-33.26-0.1-49.88
				C801.54,125.47,798.54,125.47,798.54,127.4L798.54,127.4z"/>
		</g>
	</g>
	<g>
		<g>
			<path class="st1" d="M848.6,127.55c0.03,16.63,0.07,33.26,0.1,49.88c0,1.93,3,1.93,3,0c-0.03-16.63-0.07-33.26-0.1-49.88
				C851.59,125.62,848.59,125.62,848.6,127.55L848.6,127.55z"/>
		</g>
	</g>
</g>
<g id="Слой_1__x28_копия14_x29_">
	<g>
		<g>
			<path class="st2" d="M300.5,178c1.93,0,1.93-3,0-3C298.57,175,298.57,178,300.5,178L300.5,178z"/>
		</g>
	</g>
	<g>
		<g>
			<path class="st2" d="M351.5,178c4-0.04,7.47-2.4,10.3-5.02c3.71-3.44,6.72-7.62,9.58-11.77c6.19-8.98,11.41-18.91,18.84-26.95
				c1.57-1.7,3.26-3.33,5.22-4.56c1.61-1.01,3.31-1.68,5.06-1.7c1.93-0.02,1.93-3.02,0-3c-4,0.04-7.47,2.4-10.3,5.02
				c-3.71,3.44-6.72,7.62-9.58,11.77c-6.19,8.98-11.41,18.91-18.84,26.95c-1.57,1.7-3.26,3.33-5.22,4.56
				c-1.61,1.01-3.31,1.68-5.06,1.7C349.57,175.02,349.57,178.02,351.5,178L351.5,178z"/>
		</g>
	</g>
	<g>
		<g>
			<path class="st2" d="M351.56,125.56c3.79-4.02,9.13-6.37,14.29-8.07c6.81-2.25,13.95-3.5,21.08-4.19
				c15.12-1.46,31.05-0.86,45.7,3.4c5.95,1.73,12.29,4.17,16.65,8.74c1.34,1.4,3.45-0.72,2.12-2.12c-4.07-4.26-9.72-6.81-15.22-8.65
				c-7.13-2.39-14.63-3.65-22.09-4.37c-8.14-0.78-16.36-0.85-24.52-0.22c-7.62,0.58-15.28,1.73-22.61,3.92
				c-6.28,1.88-12.93,4.58-17.52,9.45C348.12,124.84,350.23,126.97,351.56,125.56L351.56,125.56z"/>
		</g>
	</g>
	<g>
		<g>
			<path class="st2" d="M550.4,128.02c1.51,0.01,3.05,0.5,4.47,1.28c1.77,0.97,3.32,2.25,4.77,3.64c3.68,3.53,6.74,7.68,9.68,11.82
				c3.31,4.67,6.45,9.45,9.76,14.12c3,4.22,6.11,8.46,9.83,12.08c3.12,3.05,7.04,6,11.6,6.03c1.93,0.02,1.93-2.98,0-3
				c-1.51-0.01-3.05-0.5-4.47-1.28c-1.77-0.97-3.32-2.25-4.77-3.64c-3.68-3.53-6.74-7.68-9.68-11.82
				c-3.31-4.67-6.45-9.45-9.76-14.12c-3-4.22-6.11-8.46-9.83-12.08c-3.12-3.05-7.04-6-11.6-6.03
				C548.47,125.01,548.46,128.01,550.4,128.02L550.4,128.02z"/>
		</g>
	</g>
	<g>
		<g>
			<path class="st2" d="M600.56,127.56c3.81-3.23,9.37-5.03,14.31-6.31c7.04-1.82,14.29-2.76,21.53-3.27
				c15.25-1.08,31.07-0.56,46,2.97c5.79,1.37,12.38,3.28,16.87,7.11c1.46,1.25,3.59-0.87,2.12-2.12c-4.31-3.67-9.91-5.66-15.29-7.14
				c-7.3-2.01-14.88-3.05-22.42-3.67c-15.73-1.29-32.13-0.86-47.55,2.72c-6.16,1.43-12.77,3.42-17.68,7.58
				C596.96,126.69,599.1,128.8,600.56,127.56L600.56,127.56z"/>
		</g>
	</g>
	<g>
		<g>
			<path class="st2" d="M800.35,125.58c-16.78-0.03-33.57-0.05-50.35-0.08c-1.93,0-1.93,3,0,3c16.78,0.03,33.57,0.05,50.35,0.08
				C802.28,128.59,802.29,125.59,800.35,125.58L800.35,125.58z"/>
		</g>
	</g>
	<g>
		<g>
			<path class="st2" d="M849.35,128.29c4.11,4.06,7.18,9.28,8.81,14.82c2.61,8.86,1.3,18.43-3.35,26.37
				c-1.37,2.33-2.98,4.51-4.86,6.46c-1.34,1.39,0.78,3.51,2.12,2.12c4.78-4.95,8.21-11.35,9.64-18.08
				c2.01-9.5,0.05-19.44-5.22-27.57c-1.45-2.24-3.12-4.37-5.02-6.24C850.09,124.81,847.97,126.93,849.35,128.29L849.35,128.29z"/>
		</g>
	</g>
	<g>
		<g>
			<path class="st2" d="M300.5,128c1.93,0,1.93-3,0-3C298.57,125,298.57,128,300.5,128L300.5,128z"/>
		</g>
	</g>
	<g>
		<g>
			<path class="st2" d="M299.44,176.56c4.08,3.91,9.76,6.02,15.08,7.58c7.32,2.15,14.95,3.27,22.54,3.94
				c8.28,0.73,16.63,0.84,24.93,0.34c7.63-0.46,15.31-1.4,22.71-3.35c5.93-1.56,12.62-3.82,16.85-8.51
				c1.29-1.43-0.82-3.56-2.12-2.12c-3.38,3.74-8.63,5.73-13.47,7.17c-6.94,2.06-14.17,3.08-21.38,3.64
				c-15.43,1.19-31.55,0.58-46.59-3.26c-5.7-1.46-12.21-3.49-16.44-7.54C300.17,173.1,298.04,175.22,299.44,176.56L299.44,176.56z"
				/>
		</g>
	</g>
	<g>
		<g>
			<path class="st2" d="M450.5,178c4.01-0.04,7.5-2.39,10.36-4.99c3.8-3.45,6.9-7.65,9.86-11.82c6.35-8.96,11.78-18.85,19.33-26.89
				c1.62-1.72,3.36-3.37,5.37-4.62c1.63-1.01,3.32-1.67,5.07-1.68c1.93-0.02,1.93-3.02,0-3c-4.01,0.04-7.5,2.39-10.36,4.99
				c-3.8,3.45-6.9,7.65-9.86,11.82c-6.35,8.96-11.78,18.85-19.33,26.89c-1.62,1.72-3.36,3.37-5.37,4.62
				c-1.63,1.01-3.32,1.67-5.07,1.68C448.57,175.02,448.57,178.02,450.5,178L450.5,178z"/>
		</g>
	</g>
	<g>
		<g>
			<path class="st2" d="M549.75,176.76c4.63,4,10.51,6.38,16.31,8.13c7.3,2.2,14.89,3.43,22.46,4.14
				c8.09,0.77,16.26,0.91,24.37,0.41c7.45-0.46,14.95-1.42,22.16-3.39c5.85-1.6,12.29-3.91,16.51-8.49
				c1.31-1.42-0.81-3.54-2.12-2.12c-3.38,3.67-8.45,5.69-13.21,7.15c-6.71,2.06-13.71,3.1-20.69,3.67
				c-15.24,1.23-31.1,0.45-45.92-3.48c-6.2-1.64-12.83-3.89-17.74-8.14C550.42,173.38,548.29,175.5,549.75,176.76L549.75,176.76z"/>
		</g>
	</g>
	<g>
		<g>
			<path class="st2" d="M649.5,128c1.52,0.03,3.06,0.54,4.5,1.34c1.79,0.99,3.38,2.3,4.86,3.7c3.77,3.58,6.93,7.78,9.97,11.97
				c3.42,4.72,6.67,9.56,10.1,14.28c3.1,4.27,6.31,8.56,10.11,12.23c3.17,3.06,7.12,6.07,11.72,6.15c1.93,0.03,1.93-2.97,0-3
				c-1.52-0.03-3.06-0.54-4.5-1.34c-1.79-0.99-3.38-2.3-4.86-3.7c-3.77-3.58-6.93-7.78-9.97-11.97c-3.42-4.72-6.67-9.56-10.1-14.28
				c-3.1-4.27-6.31-8.56-10.11-12.23c-3.17-3.06-7.12-6.07-11.72-6.15C647.57,124.97,647.57,127.97,649.5,128L649.5,128z"/>
		</g>
	</g>
	<g>
		<g>
			<path class="st2" d="M800.77,174.76c-16.78-0.03-33.57-0.05-50.35-0.08c-1.93,0-1.93,3,0,3c16.78,0.03,33.57,0.05,50.35,0.08
				C802.7,177.76,802.7,174.76,800.77,174.76L800.77,174.76z"/>
		</g>
	</g>
	<g>
		<g>
			<path class="st0" d="M100.19,127.2c16.72-0.02,33.43-0.05,50.15-0.07c1.93,0,1.93-3,0-3c-16.72,0.02-33.43,0.05-50.15,0.07
				C98.26,124.21,98.26,127.21,100.19,127.2L100.19,127.2z"/>
		</g>
	</g>
	<g>
		<g>
			<path class="st0" d="M100.29,177.09c16.68,0.05,33.37,0.1,50.05,0.15c1.93,0.01,1.93-2.99,0-3c-16.68-0.05-33.37-0.1-50.05-0.15
				C98.36,174.08,98.36,177.08,100.29,177.09L100.29,177.09z"/>
		</g>
	</g>
	<g>
		<g>
			<path class="st0" d="M200.22,127.28c16.68,0.05,33.37,0.1,50.05,0.15c1.93,0.01,1.93-2.99,0-3c-16.68-0.05-33.37-0.1-50.05-0.15
				C198.29,124.27,198.28,127.27,200.22,127.28L200.22,127.28z"/>
		</g>
	</g>
	<g>
		<g>
			<path class="st0" d="M200.15,177.34c16.68,0.05,33.37,0.1,50.05,0.15c1.93,0.01,1.93-2.99,0-3c-16.68-0.05-33.37-0.1-50.05-0.15
				C198.22,174.34,198.22,177.34,200.15,177.34L200.15,177.34z"/>
		</g>
	</g>
	<g>
		<g>
			<path class="st1" d="M98.69,125.7c0.03,16.63,0.07,33.26,0.1,49.88c0,1.93,3,1.93,3,0c-0.03-16.63-0.07-33.26-0.1-49.88
				C101.69,123.77,98.69,123.77,98.69,125.7L98.69,125.7z"/>
		</g>
	</g>
	<g>
		<g>
			<path class="st1" d="M148.75,125.85c0.03,16.63,0.07,33.26,0.1,49.88c0,1.93,3,1.93,3,0c-0.03-16.63-0.07-33.26-0.1-49.88
				C151.74,123.92,148.74,123.91,148.75,125.85L148.75,125.85z"/>
		</g>
	</g>
	<g>
		<g>
			<path class="st1" d="M198.72,125.78c0.03,16.63,0.07,33.26,0.1,49.88c0,1.93,3,1.93,3,0c-0.03-16.63-0.07-33.26-0.1-49.88
				C201.71,123.85,198.71,123.84,198.72,125.78L198.72,125.78z"/>
		</g>
	</g>
	<g>
		<g>
			<path class="st1" d="M248.77,125.92c0.03,16.63,0.07,33.26,0.1,49.88c0,1.93,3,1.93,3,0c-0.03-16.63-0.07-33.26-0.1-49.88
				C251.77,123.99,248.77,123.99,248.77,125.92L248.77,125.92z"/>
		</g>
	</g>
	<g>
		<g>
			<path class="st2" d="M100.19,124.2c-7.48,0.45-10.97,8.89-12.71,15.07c-2.67,9.5-3.13,19.83-2.13,29.61
				c0.76,7.49,2.21,17.37,8.18,22.7c3.22,2.87,7.85,2.91,11.94,3.33c11.58,1.17,23.24,1.61,34.87,2.02
				c17.24,0.61,34.5,0.91,51.75,1.08c20.74,0.21,41.49,0.2,62.24,0.04c22.11-0.17,44.22-0.52,66.33-1.08
				c21.35-0.54,42.69-1.27,64.02-2.3c18.45-0.89,36.91-1.99,55.31-3.61c13.51-1.19,27.07-2.53,40.41-5.03
				c4.21-0.79,8.45-1.67,12.52-3.06c2.39-0.81,5.19-1.8,6.94-3.73c0.68-0.76,1.15-1.69,1.16-2.73c0.02-1.93-2.98-1.93-3,0
				c0,0.16-0.03,0.2-0.05,0.25c-0.25,0.6,0.02,0.15-0.49,0.63c-0.11,0.1-0.56,0.48-0.38,0.34c0.15-0.12-0.38,0.26-0.53,0.36
				c-0.5,0.31-1.01,0.59-1.53,0.84c-1.09,0.53-2.44,1.02-3.98,1.5c-1.9,0.6-3.83,1.09-5.78,1.54c-11.58,2.66-23.49,3.96-35.3,5.15
				c-17.14,1.73-34.33,2.88-51.52,3.84c-20.29,1.12-40.59,1.93-60.9,2.54c-21.61,0.66-43.24,1.1-64.86,1.37
				c-20.88,0.26-41.77,0.36-62.66,0.27c-18.16-0.08-36.32-0.29-54.48-0.75c-13.44-0.34-26.9-0.77-40.32-1.68
				c-4.32-0.29-8.65-0.63-12.95-1.16c-1.3-0.16-3.2-0.22-4.77-0.88c-2.74-1.16-4.43-4.14-5.59-6.72
				c-3.73-8.31-4.27-18.25-3.95-27.22c0.3-8.35,1.34-18.1,6.08-25.24c1.41-2.12,3.46-4.12,6.14-4.28
				C102.11,127.09,102.12,124.09,100.19,124.2L100.19,124.2z"/>
		</g>
	</g>
	<g>
		<g>
			<path class="st2" d="M150.34,177.13c4.38-0.03,8.26-1.6,11.33-4.74c3.62-3.71,6.08-8.49,8.68-12.92
				c3.51-5.99,7.22-11.87,10.95-17.72c2.45-3.84,4.93-7.88,8.36-10.94c3.02-2.7,6.7-3.66,10.68-3.68c1.93-0.01,1.93-3.01,0-3
				c-3.74,0.02-7.46,0.73-10.6,2.84c-3.49,2.34-6.05,5.81-8.39,9.24c-3.69,5.41-7.1,11.05-10.53,16.63
				c-3.06,4.99-5.73,10.3-9.22,15.01c-1.33,1.8-2.9,3.51-4.83,4.67c-1.96,1.17-4.16,1.6-6.42,1.62
				C148.41,174.14,148.41,177.14,150.34,177.13L150.34,177.13z"/>
		</g>
	</g>
	<g>
		<g>
			<path class="st2" d="M300.34,125.13c-3.93,0.04-7.36,2.38-10.19,4.91c-3.77,3.37-6.88,7.45-9.86,11.5
				c-6.49,8.83-12.1,18.56-19.74,26.48c-1.59,1.65-3.29,3.22-5.24,4.43c-1.6,0.99-3.27,1.66-4.98,1.68c-1.93,0.02-1.93,3.02,0,3
				c3.93-0.04,7.36-2.38,10.19-4.91c3.77-3.37,6.88-7.45,9.86-11.5c6.49-8.83,12.1-18.56,19.74-26.48c1.59-1.65,3.29-3.22,5.24-4.43
				c1.6-0.99,3.27-1.66,4.98-1.68C302.27,128.11,302.28,125.11,300.34,125.13L300.34,125.13z"/>
		</g>
	</g>
	<g>
		<g>
			<path class="st2" d="M99.28,176.69c3.78,4.81,9.45,7.84,15.07,9.98c7.06,2.69,14.61,4.05,22.11,4.78
				c8.13,0.79,16.35,0.76,24.48-0.02c7.66-0.73,15.34-2.08,22.66-4.49c6.43-2.13,13.18-5.12,17.8-10.24
				c1.29-1.43-0.82-3.56-2.12-2.12c-3.78,4.19-9.11,6.81-14.34,8.73c-6.87,2.52-14.13,4-21.38,4.85
				c-15.07,1.76-31.19,1.33-45.71-3.42c-6.12-2-12.38-4.99-16.45-10.16C100.21,173.05,98.1,175.19,99.28,176.69L99.28,176.69z"/>
		</g>
	</g>
	<g>
		<g>
			<path class="st2" d="M251.84,126.63c0.6-5.76-4.61-9.7-9.24-11.9c-7.43-3.53-15.83-4.94-23.94-5.84
				c-9.78-1.09-19.69-1.19-29.5-0.46c-8.74,0.65-17.66,1.86-25.97,4.76c-5.3,1.85-12.06,4.79-13.97,10.61
				c-0.2,0.6-0.3,1.21-0.37,1.84c-0.24,1.91,2.77,1.89,3,0c-0.05,0.4,0.06-0.28,0.09-0.43c0.07-0.28,0.15-0.54,0.24-0.81
				c0.02-0.06,0.17-0.42,0.08-0.22c-0.08,0.19,0.07-0.15,0.1-0.21c0.13-0.24,0.25-0.49,0.4-0.72c0.14-0.22,0.29-0.44,0.44-0.65
				c0.22-0.3-0.09,0.1,0.08-0.11c0.1-0.12,0.2-0.24,0.31-0.36c0.41-0.47,0.86-0.9,1.33-1.3c0.84-0.72,2-1.5,3.23-2.18
				c1.39-0.77,2.8-1.41,4.17-1.94c7.62-2.96,15.9-4.27,24-5.03c9.39-0.88,18.89-0.94,28.29-0.17c8.07,0.66,16.33,1.86,23.93,4.74
				c1.41,0.54,2.72,1.11,4.14,1.89c1.2,0.66,2.4,1.46,3.19,2.14c0.45,0.39,0.88,0.8,1.27,1.25c0.23,0.26,0.36,0.43,0.35,0.42
				c0.18,0.24,0.34,0.49,0.5,0.74c0.13,0.22,0.25,0.44,0.36,0.67c0.03,0.06,0.18,0.4,0.1,0.21c-0.08-0.19,0.07,0.19,0.1,0.27
				c0.07,0.24,0.15,0.47,0.21,0.71c0.03,0.12,0.05,0.24,0.08,0.36c0.09,0.43,0-0.17,0.03,0.18c0.04,0.53,0.04,1.04-0.01,1.57
				C248.64,128.55,251.64,128.53,251.84,126.63L251.84,126.63z"/>
		</g>
	</g>
	<g>
		<g>
			<path class="st3" d="M100.19,128.7c3.86,0,3.87-6,0-6C96.33,122.7,96.32,128.7,100.19,128.7L100.19,128.7z"/>
		</g>
	</g>
	<g>
		<g>
			<path class="st3" d="M100.29,178.59c3.86,0,3.87-6,0-6C96.43,172.59,96.43,178.59,100.29,178.59L100.29,178.59z"/>
		</g>
	</g>
	<g>
		<g>
			<path class="st3" d="M150.25,128.85c3.86,0,3.87-6,0-6C146.38,122.85,146.38,128.85,150.25,128.85L150.25,128.85z"/>
		</g>
	</g>
	<g>
		<g>
			<path class="st3" d="M150.35,178.73c3.86,0,3.87-6,0-6C146.49,172.73,146.48,178.73,150.35,178.73L150.35,178.73z"/>
		</g>
	</g>
	<g>
		<g>
			<path class="st3" d="M200.22,128.78c3.86,0,3.87-6,0-6C196.36,122.78,196.35,128.78,200.22,128.78L200.22,128.78z"/>
		</g>
	</g>
	<g>
		<g>
			<path class="st3" d="M200.32,178.66c3.86,0,3.87-6,0-6C196.46,172.66,196.45,178.66,200.32,178.66L200.32,178.66z"/>
		</g>
	</g>
	<g>
		<g>
			<path class="st3" d="M250.27,128.92c3.86,0,3.87-6,0-6C246.41,122.92,246.4,128.92,250.27,128.92L250.27,128.92z"/>
		</g>
	</g>
	<g>
		<g>
			<path class="st3" d="M250.37,178.8c3.86,0,3.87-6,0-6C246.51,172.8,246.51,178.8,250.37,178.8L250.37,178.8z"/>
		</g>
	</g>
</g>
<g id="Слой_1__x28_копия13_x29_">
	<g>
		<g>
			<path class="st3" d="M300.33,129.2c3.86,0,3.87-6,0-6C296.47,123.2,296.47,129.2,300.33,129.2L300.33,129.2z"/>
		</g>
	</g>
	<g>
		<g>
			<path class="st3" d="M300.44,179.09c3.86,0,3.87-6,0-6C296.58,173.09,296.57,179.09,300.44,179.09L300.44,179.09z"/>
		</g>
	</g>
	<g>
		<g>
			<path class="st3" d="M350.39,129.35c3.86,0,3.87-6,0-6C346.53,123.35,346.52,129.35,350.39,129.35L350.39,129.35z"/>
		</g>
	</g>
	<g>
		<g>
			<path class="st3" d="M350.49,179.23c3.86,0,3.87-6,0-6C346.63,173.23,346.62,179.23,350.49,179.23L350.49,179.23z"/>
		</g>
	</g>
	<g>
		<g>
			<path class="st3" d="M400.36,129.28c3.86,0,3.87-6,0-6C396.5,123.28,396.49,129.28,400.36,129.28L400.36,129.28z"/>
		</g>
	</g>
	<g>
		<g>
			<path class="st3" d="M400.46,179.16c3.86,0,3.87-6,0-6C396.6,173.16,396.6,179.16,400.46,179.16L400.46,179.16z"/>
		</g>
	</g>
	<g>
		<g>
			<path class="st3" d="M450.42,129.42c3.86,0,3.87-6,0-6C446.55,123.42,446.55,129.42,450.42,129.42L450.42,129.42z"/>
		</g>
	</g>
	<g>
		<g>
			<path class="st3" d="M450.52,179.31c3.86,0,3.87-6,0-6C446.66,173.31,446.65,179.31,450.52,179.31L450.52,179.31z"/>
		</g>
	</g>
	<g>
		<g>
			<path class="st3" d="M500.34,129.38c3.86,0,3.87-6,0-6C496.48,123.38,496.48,129.38,500.34,129.38L500.34,129.38z"/>
		</g>
	</g>
	<g>
		<g>
			<path class="st3" d="M500.44,179.26c3.86,0,3.87-6,0-6C496.58,173.26,496.58,179.26,500.44,179.26L500.44,179.26z"/>
		</g>
	</g>
	<g>
		<g>
			<path class="st3" d="M550.4,129.52c3.86,0,3.87-6,0-6C546.54,123.52,546.53,129.52,550.4,129.52L550.4,129.52z"/>
		</g>
	</g>
	<g>
		<g>
			<path class="st3" d="M550.5,179.41c3.86,0,3.87-6,0-6C546.64,173.41,546.63,179.41,550.5,179.41L550.5,179.41z"/>
		</g>
	</g>
	<g>
		<g>
			<path class="st3" d="M600.37,129.45c3.86,0,3.87-6,0-6C596.51,123.45,596.5,129.45,600.37,129.45L600.37,129.45z"/>
		</g>
	</g>
	<g>
		<g>
			<path class="st3" d="M600.47,179.33c3.86,0,3.87-6,0-6C596.61,173.33,596.6,179.33,600.47,179.33L600.47,179.33z"/>
		</g>
	</g>
	<g>
		<g>
			<path class="st3" d="M650.42,129.6c3.86,0,3.87-6,0-6C646.56,123.6,646.56,129.6,650.42,129.6L650.42,129.6z"/>
		</g>
	</g>
	<g>
		<g>
			<path class="st3" d="M650.52,179.48c3.86,0,3.87-6,0-6C646.66,173.48,646.66,179.48,650.52,179.48L650.52,179.48z"/>
		</g>
	</g>
	<g>
		<g>
			<path class="st3" d="M700.33,130.01c3.86,0,3.87-6,0-6C696.47,124.01,696.46,130.01,700.33,130.01L700.33,130.01z"/>
		</g>
	</g>
	<g>
		<g>
			<path class="st3" d="M700.43,179.89c3.86,0,3.87-6,0-6C696.57,173.89,696.56,179.89,700.43,179.89L700.43,179.89z"/>
		</g>
	</g>
	<g>
		<g>
			<path class="st3" d="M750.38,130.15c3.86,0,3.87-6,0-6C746.52,124.15,746.51,130.15,750.38,130.15L750.38,130.15z"/>
		</g>
	</g>
	<g>
		<g>
			<path class="st3" d="M750.48,180.04c3.86,0,3.87-6,0-6C746.62,174.04,746.61,180.04,750.48,180.04L750.48,180.04z"/>
		</g>
	</g>
	<g>
		<g>
			<path class="st3" d="M800.35,130.08c3.86,0,3.87-6,0-6C796.49,124.08,796.49,130.08,800.35,130.08L800.35,130.08z"/>
		</g>
	</g>
	<g>
		<g>
			<path class="st3" d="M800.45,179.97c3.86,0,3.87-6,0-6C796.59,173.97,796.59,179.97,800.45,179.97L800.45,179.97z"/>
		</g>
	</g>
	<g>
		<g>
			<path class="st3" d="M850.41,130.23c3.86,0,3.87-6,0-6C846.55,124.23,846.54,130.23,850.41,130.23L850.41,130.23z"/>
		</g>
	</g>
	<g>
		<g>
			<path class="st3" d="M850.51,180.11c3.86,0,3.87-6,0-6C846.65,174.11,846.64,180.11,850.51,180.11L850.51,180.11z"/>
		</g>
	</g>
	<text transform="matrix(1 0 0 1 7.0021 40.9225)"><tspan x="0" y="0" class="st4 st5">ST-циклы: 1 </tspan><tspan x="0" y="14.4" class="st4 st5">UT-циклы: 5 </tspan><tspan x="0" y="28.8" class="st4 st5">SU-циклы: 8</tspan></text>
	<text transform="matrix(1 0 0 1 7.0024 140.9223)"><tspan x="0" y="0" class="st4 st5">ST-циклы: 2 </tspan><tspan x="0" y="14.4" class="st4 st5">UT-циклы: 4 </tspan><tspan x="0" y="28.8" class="st4 st5">SU-циклы: 8</tspan></text>
	<text transform="matrix(1 0 0 1 7.0022 240.9232)"><tspan x="0" y="0" class="st4 st5">ST-циклы: 3 </tspan><tspan x="0" y="14.4" class="st4 st5">UT-циклы: 3 </tspan><tspan x="0" y="28.8" class="st4 st5">SU-циклы: 8</tspan></text>
	<g>
		<g>
			<path class="st0" d="M300.71,228.68c16.68,0.05,33.37,0.1,50.05,0.15c1.93,0.01,1.93-2.99,0-3c-16.68-0.05-33.37-0.1-50.05-0.15
				C298.78,225.68,298.78,228.68,300.71,228.68L300.71,228.68z"/>
		</g>
	</g>
	<g>
		<g>
			<path class="st0" d="M300.65,278.75c16.68,0.05,33.37,0.1,50.05,0.15c1.93,0.01,1.93-2.99,0-3c-16.68-0.05-33.37-0.1-50.05-0.15
				C298.71,275.74,298.71,278.74,300.65,278.75L300.65,278.75z"/>
		</g>
	</g>
	<g>
		<g>
			<path class="st0" d="M400.71,228.68c16.68,0.05,33.37,0.1,50.05,0.15c1.93,0.01,1.93-2.99,0-3c-16.68-0.05-33.37-0.1-50.05-0.15
				C398.78,225.68,398.78,228.68,400.71,228.68L400.71,228.68z"/>
		</g>
	</g>
	<g>
		<g>
			<path class="st0" d="M400.65,278.75c16.68,0.05,33.37,0.1,50.05,0.15c1.93,0.01,1.93-2.99,0-3c-16.68-0.05-33.37-0.1-50.05-0.15
				C398.71,275.74,398.71,278.74,400.65,278.75L400.65,278.75z"/>
		</g>
	</g>
	<g>
		<g>
			<path class="st1" d="M299.13,227c0.03,16.63,0.07,33.26,0.1,49.88c0,1.93,3,1.93,3,0c-0.03-16.63-0.07-33.26-0.1-49.88
				C302.13,225.07,299.13,225.07,299.13,227L299.13,227z"/>
		</g>
	</g>
	<g>
		<g>
			<path class="st1" d="M349.19,227.15c0.03,16.63,0.07,33.26,0.1,49.88c0,1.93,3,1.93,3,0c-0.03-16.63-0.07-33.26-0.1-49.88
				C352.18,225.22,349.18,225.21,349.19,227.15L349.19,227.15z"/>
		</g>
	</g>
	<g>
		<g>
			<path class="st1" d="M399.16,227.08c0.03,16.63,0.07,33.26,0.1,49.88c0,1.93,3,1.93,3,0c-0.03-16.63-0.07-33.26-0.1-49.88
				C402.16,225.14,399.16,225.14,399.16,227.08L399.16,227.08z"/>
		</g>
	</g>
	<g>
		<g>
			<path class="st1" d="M449.22,227.22c0.03,16.63,0.07,33.26,0.1,49.88c0,1.93,3,1.93,3,0c-0.03-16.63-0.07-33.26-0.1-49.88
				C452.21,225.29,449.21,225.29,449.22,227.22L449.22,227.22z"/>
		</g>
	</g>
	<g>
		<g>
			<path class="st2" d="M300.86,278.5c1.93,0,1.93-3,0-3C298.93,275.5,298.93,278.5,300.86,278.5L300.86,278.5z"/>
		</g>
	</g>
	<g>
		<g>
			<path class="st2" d="M351.86,278.5c4-0.04,7.47-2.4,10.3-5.02c3.71-3.44,6.72-7.62,9.58-11.77c6.19-8.98,11.41-18.91,18.84-26.95
				c1.57-1.7,3.26-3.33,5.22-4.56c1.61-1.01,3.31-1.68,5.06-1.7c1.93-0.02,1.93-3.02,0-3c-4,0.04-7.47,2.4-10.3,5.02
				c-3.71,3.44-6.72,7.62-9.58,11.77c-6.19,8.98-11.41,18.91-18.84,26.95c-1.57,1.7-3.26,3.33-5.22,4.56
				c-1.61,1.01-3.31,1.68-5.06,1.7C349.93,275.52,349.93,278.52,351.86,278.5L351.86,278.5z"/>
		</g>
	</g>
	<g>
		<g>
			<path class="st2" d="M351.92,226.06c3.79-4.02,9.13-6.37,14.29-8.07c6.81-2.25,13.95-3.5,21.08-4.19
				c15.12-1.46,31.05-0.86,45.7,3.4c5.95,1.73,12.29,4.17,16.65,8.74c1.34,1.4,3.45-0.72,2.12-2.12c-4.07-4.26-9.72-6.81-15.22-8.65
				c-7.13-2.39-14.63-3.65-22.09-4.37c-8.14-0.78-16.36-0.85-24.52-0.22c-7.62,0.58-15.28,1.73-22.61,3.92
				c-6.28,1.88-12.93,4.58-17.52,9.45C348.48,225.34,350.6,227.47,351.92,226.06L351.92,226.06z"/>
		</g>
	</g>
	<g>
		<g>
			<path class="st2" d="M300.86,228.5c1.93,0,1.93-3,0-3C298.93,225.5,298.93,228.5,300.86,228.5L300.86,228.5z"/>
		</g>
	</g>
	<g>
		<g>
			<path class="st2" d="M299.8,277.06c4.08,3.91,9.76,6.02,15.08,7.58c7.32,2.15,14.95,3.27,22.54,3.94
				c8.28,0.73,16.63,0.84,24.93,0.34c7.63-0.46,15.31-1.4,22.71-3.35c5.93-1.56,12.62-3.82,16.85-8.51
				c1.29-1.43-0.82-3.56-2.12-2.12c-3.38,3.74-8.63,5.73-13.47,7.17c-6.94,2.06-14.17,3.08-21.38,3.64
				c-15.43,1.19-31.55,0.58-46.59-3.26c-5.7-1.46-12.21-3.49-16.44-7.54C300.53,273.6,298.41,275.72,299.8,277.06L299.8,277.06z"/>
		</g>
	</g>
	<g>
		<g>
			<path class="st2" d="M450.86,278.5c4.01-0.04,7.5-2.39,10.36-4.99c3.8-3.45,6.9-7.65,9.86-11.82
				c6.35-8.96,11.78-18.85,19.33-26.89c1.62-1.72,3.36-3.37,5.37-4.62c1.63-1.01,3.32-1.67,5.07-1.68c1.93-0.02,1.93-3.02,0-3
				c-4.01,0.04-7.5,2.39-10.36,4.99c-3.8,3.45-6.9,7.65-9.86,11.82c-6.35,8.96-11.78,18.85-19.33,26.89
				c-1.62,1.72-3.36,3.37-5.37,4.62c-1.63,1.01-3.32,1.67-5.07,1.68C448.93,275.52,448.93,278.52,450.86,278.5L450.86,278.5z"/>
		</g>
	</g>
	<g>
		<g>
			<path class="st0" d="M100.56,227.7c16.72-0.02,33.43-0.05,50.15-0.07c1.93,0,1.93-3,0-3c-16.72,0.02-33.43,0.05-50.15,0.07
				C98.63,224.71,98.62,227.71,100.56,227.7L100.56,227.7z"/>
		</g>
	</g>
	<g>
		<g>
			<path class="st0" d="M100.66,277.59c16.68,0.05,33.37,0.1,50.05,0.15c1.93,0.01,1.93-2.99,0-3c-16.68-0.05-33.37-0.1-50.05-0.15
				C98.73,274.58,98.72,277.58,100.66,277.59L100.66,277.59z"/>
		</g>
	</g>
	<g>
		<g>
			<path class="st0" d="M200.58,227.78c16.68,0.05,33.37,0.1,50.05,0.15c1.93,0.01,1.93-2.99,0-3c-16.68-0.05-33.37-0.1-50.05-0.15
				C198.65,224.77,198.65,227.77,200.58,227.78L200.58,227.78z"/>
		</g>
	</g>
	<g>
		<g>
			<path class="st0" d="M200.52,277.84c16.68,0.05,33.37,0.1,50.05,0.15c1.93,0.01,1.93-2.99,0-3c-16.68-0.05-33.37-0.1-50.05-0.15
				C198.59,274.84,198.58,277.84,200.52,277.84L200.52,277.84z"/>
		</g>
	</g>
	<g>
		<g>
			<path class="st1" d="M99.06,226.2c0.03,16.63,0.07,33.26,0.1,49.88c0,1.93,3,1.93,3,0c-0.03-16.63-0.07-33.26-0.1-49.88
				C102.05,224.27,99.05,224.27,99.06,226.2L99.06,226.2z"/>
		</g>
	</g>
	<g>
		<g>
			<path class="st1" d="M149.11,226.35c0.03,16.63,0.07,33.26,0.1,49.88c0,1.93,3,1.93,3,0c-0.03-16.63-0.07-33.26-0.1-49.88
				C152.11,224.42,149.11,224.41,149.11,226.35L149.11,226.35z"/>
		</g>
	</g>
	<g>
		<g>
			<path class="st1" d="M199.08,226.28c0.03,16.63,0.07,33.26,0.1,49.88c0,1.93,3,1.93,3,0c-0.03-16.63-0.07-33.26-0.1-49.88
				C202.08,224.35,199.08,224.34,199.08,226.28L199.08,226.28z"/>
		</g>
	</g>
	<g>
		<g>
			<path class="st1" d="M249.14,226.42c0.03,16.63,0.07,33.26,0.1,49.88c0,1.93,3,1.93,3,0c-0.03-16.63-0.07-33.26-0.1-49.88
				C252.13,224.49,249.13,224.49,249.14,226.42L249.14,226.42z"/>
		</g>
	</g>
	<g>
		<g>
			<path class="st2" d="M100.56,224.7c-7.48,0.45-10.97,8.89-12.71,15.07c-2.67,9.5-3.13,19.83-2.13,29.61
				c0.76,7.49,2.21,17.37,8.18,22.7c3.22,2.87,7.85,2.91,11.94,3.33c11.58,1.17,23.24,1.61,34.87,2.02
				c17.24,0.61,34.5,0.91,51.75,1.08c20.74,0.21,41.49,0.2,62.24,0.04c22.11-0.17,44.22-0.52,66.33-1.08
				c21.35-0.54,42.69-1.27,64.02-2.3c18.45-0.89,36.91-1.99,55.31-3.61c13.51-1.19,27.07-2.53,40.41-5.03
				c4.21-0.79,8.45-1.67,12.52-3.06c2.39-0.81,5.19-1.8,6.94-3.73c0.68-0.76,1.15-1.69,1.16-2.73c0.02-1.93-2.98-1.93-3,0
				c0,0.16-0.03,0.2-0.05,0.25c-0.25,0.6,0.02,0.15-0.49,0.63c-0.11,0.1-0.56,0.48-0.38,0.34c0.15-0.12-0.38,0.26-0.53,0.36
				c-0.5,0.31-1.01,0.59-1.53,0.84c-1.09,0.53-2.44,1.02-3.98,1.5c-1.9,0.6-3.83,1.09-5.78,1.54c-11.58,2.66-23.49,3.96-35.3,5.15
				c-17.14,1.73-34.33,2.88-51.52,3.84c-20.29,1.12-40.59,1.93-60.9,2.54c-21.61,0.66-43.24,1.1-64.86,1.37
				c-20.88,0.26-41.77,0.36-62.66,0.27c-18.16-0.08-36.32-0.29-54.48-0.75c-13.44-0.34-26.9-0.77-40.32-1.68
				c-4.32-0.29-8.65-0.63-12.95-1.16c-1.3-0.16-3.2-0.22-4.77-0.88c-2.74-1.16-4.43-4.14-5.59-6.72
				c-3.73-8.31-4.27-18.25-3.95-27.22c0.3-8.35,1.34-18.1,6.08-25.24c1.41-2.12,3.46-4.12,6.14-4.28
				C102.47,227.59,102.49,224.59,100.56,224.7L100.56,224.7z"/>
		</g>
	</g>
	<g>
		<g>
			<path class="st2" d="M150.7,277.63c4.38-0.03,8.26-1.6,11.33-4.74c3.62-3.71,6.08-8.49,8.68-12.92
				c3.51-5.99,7.22-11.87,10.95-17.72c2.45-3.84,4.93-7.88,8.36-10.94c3.02-2.7,6.7-3.66,10.68-3.68c1.93-0.01,1.93-3.01,0-3
				c-3.74,0.02-7.46,0.73-10.6,2.84c-3.49,2.34-6.05,5.81-8.39,9.24c-3.69,5.41-7.1,11.05-10.53,16.63
				c-3.06,4.99-5.73,10.3-9.22,15.01c-1.33,1.8-2.9,3.51-4.83,4.67c-1.96,1.17-4.16,1.6-6.42,1.62
				C148.78,274.64,148.77,277.64,150.7,277.63L150.7,277.63z"/>
		</g>
	</g>
	<g>
		<g>
			<path class="st2" d="M300.7,225.63c-3.93,0.04-7.36,2.38-10.19,4.91c-3.77,3.37-6.88,7.45-9.86,11.5
				c-6.49,8.83-12.1,18.56-19.74,26.48c-1.59,1.65-3.29,3.22-5.24,4.43c-1.6,0.99-3.27,1.66-4.98,1.68c-1.93,0.02-1.93,3.02,0,3
				c3.93-0.04,7.36-2.38,10.19-4.91c3.77-3.37,6.88-7.45,9.86-11.5c6.49-8.83,12.1-18.56,19.74-26.48c1.59-1.65,3.29-3.22,5.24-4.43
				c1.6-0.99,3.27-1.66,4.98-1.68C302.63,228.61,302.64,225.61,300.7,225.63L300.7,225.63z"/>
		</g>
	</g>
	<g>
		<g>
			<path class="st2" d="M99.64,277.19c3.78,4.81,9.45,7.84,15.07,9.98c7.06,2.69,14.61,4.05,22.11,4.78
				c8.13,0.79,16.35,0.76,24.48-0.02c7.66-0.73,15.34-2.08,22.66-4.49c6.43-2.13,13.18-5.12,17.8-10.24
				c1.29-1.43-0.82-3.56-2.12-2.12c-3.78,4.19-9.11,6.81-14.34,8.73c-6.87,2.52-14.13,4-21.38,4.85
				c-15.07,1.76-31.19,1.33-45.71-3.42c-6.12-2-12.38-4.99-16.45-10.16C100.57,273.55,98.46,275.69,99.64,277.19L99.64,277.19z"/>
		</g>
	</g>
	<g>
		<g>
			<path class="st2" d="M252.2,227.13c0.6-5.76-4.61-9.7-9.24-11.9c-7.43-3.53-15.83-4.94-23.94-5.84
				c-9.78-1.09-19.69-1.19-29.5-0.46c-8.74,0.65-17.66,1.86-25.97,4.76c-5.3,1.85-12.06,4.79-13.97,10.61
				c-0.2,0.6-0.3,1.21-0.37,1.84c-0.24,1.91,2.77,1.89,3,0c-0.05,0.4,0.06-0.28,0.09-0.43c0.07-0.28,0.15-0.54,0.24-0.81
				c0.02-0.06,0.17-0.42,0.08-0.22c-0.08,0.19,0.07-0.15,0.1-0.21c0.13-0.24,0.25-0.49,0.4-0.72c0.14-0.22,0.29-0.44,0.44-0.65
				c0.22-0.3-0.09,0.1,0.08-0.11c0.1-0.12,0.2-0.24,0.31-0.36c0.41-0.47,0.86-0.9,1.33-1.3c0.84-0.72,2-1.5,3.23-2.18
				c1.39-0.77,2.8-1.41,4.17-1.94c7.62-2.96,15.9-4.27,24-5.03c9.39-0.88,18.89-0.94,28.29-0.17c8.07,0.66,16.33,1.86,23.93,4.74
				c1.41,0.54,2.72,1.11,4.14,1.89c1.2,0.66,2.4,1.46,3.19,2.14c0.45,0.39,0.88,0.8,1.27,1.25c0.23,0.26,0.36,0.43,0.35,0.42
				c0.18,0.24,0.34,0.49,0.5,0.74c0.13,0.22,0.25,0.44,0.36,0.67c0.03,0.06,0.18,0.4,0.1,0.21c-0.08-0.19,0.07,0.19,0.1,0.27
				c0.07,0.24,0.15,0.47,0.21,0.71c0.03,0.12,0.05,0.24,0.08,0.36c0.09,0.43,0-0.17,0.03,0.18c0.04,0.53,0.04,1.04-0.01,1.57
				C249,229.05,252.01,229.03,252.2,227.13L252.2,227.13z"/>
		</g>
	</g>
	<g>
		<g>
			<path class="st3" d="M100.56,229.2c3.86,0,3.87-6,0-6C96.69,223.2,96.69,229.2,100.56,229.2L100.56,229.2z"/>
		</g>
	</g>
	<g>
		<g>
			<path class="st3" d="M100.66,279.09c3.86,0,3.87-6,0-6C96.8,273.09,96.79,279.09,100.66,279.09L100.66,279.09z"/>
		</g>
	</g>
	<g>
		<g>
			<path class="st3" d="M150.61,229.35c3.86,0,3.87-6,0-6C146.75,223.35,146.74,229.35,150.61,229.35L150.61,229.35z"/>
		</g>
	</g>
	<g>
		<g>
			<path class="st3" d="M150.71,279.23c3.86,0,3.87-6,0-6C146.85,273.23,146.84,279.23,150.71,279.23L150.71,279.23z"/>
		</g>
	</g>
	<g>
		<g>
			<path class="st3" d="M200.58,229.28c3.86,0,3.87-6,0-6C196.72,223.28,196.72,229.28,200.58,229.28L200.58,229.28z"/>
		</g>
	</g>
	<g>
		<g>
			<path class="st3" d="M200.68,279.16c3.86,0,3.87-6,0-6C196.82,273.16,196.82,279.16,200.68,279.16L200.68,279.16z"/>
		</g>
	</g>
	<g>
		<g>
			<path class="st3" d="M250.64,229.42c3.86,0,3.87-6,0-6C246.78,223.42,246.77,229.42,250.64,229.42L250.64,229.42z"/>
		</g>
	</g>
	<g>
		<g>
			<path class="st3" d="M250.74,279.3c3.86,0,3.87-6,0-6C246.88,273.3,246.87,279.3,250.74,279.3L250.74,279.3z"/>
		</g>
	</g>
	<g>
		<g>
			<path class="st3" d="M300.7,229.7c3.86,0,3.87-6,0-6C296.84,223.7,296.83,229.7,300.7,229.7L300.7,229.7z"/>
		</g>
	</g>
	<g>
		<g>
			<path class="st3" d="M300.8,279.59c3.86,0,3.87-6,0-6C296.94,273.59,296.93,279.59,300.8,279.59L300.8,279.59z"/>
		</g>
	</g>
	<g>
		<g>
			<path class="st3" d="M350.75,229.85c3.86,0,3.87-6,0-6C346.89,223.85,346.89,229.85,350.75,229.85L350.75,229.85z"/>
		</g>
	</g>
	<g>
		<g>
			<path class="st3" d="M350.85,279.73c3.86,0,3.87-6,0-6C346.99,273.73,346.99,279.73,350.85,279.73L350.85,279.73z"/>
		</g>
	</g>
	<g>
		<g>
			<path class="st3" d="M400.73,229.78c3.86,0,3.87-6,0-6C396.86,223.78,396.86,229.78,400.73,229.78L400.73,229.78z"/>
		</g>
	</g>
	<g>
		<g>
			<path class="st3" d="M400.83,279.66c3.86,0,3.87-6,0-6C396.97,273.66,396.96,279.66,400.83,279.66L400.83,279.66z"/>
		</g>
	</g>
	<g>
		<g>
			<path class="st3" d="M450.78,229.92c3.86,0,3.87-6,0-6C446.92,223.92,446.91,229.92,450.78,229.92L450.78,229.92z"/>
		</g>
	</g>
	<g>
		<g>
			<path class="st3" d="M450.88,279.81c3.86,0,3.87-6,0-6C447.02,273.81,447.01,279.81,450.88,279.81L450.88,279.81z"/>
		</g>
	</g>
</g>
<g id="Слой_1__x28_копия10_x29_">
	<g>
		<g>
			<path class="st3" d="M500.34,229.38c3.86,0,3.87-6,0-6C496.48,223.38,496.48,229.38,500.34,229.38L500.34,229.38z"/>
		</g>
	</g>
	<g>
		<g>
			<path class="st3" d="M500.44,279.26c3.86,0,3.87-6,0-6C496.58,273.26,496.58,279.26,500.44,279.26L500.44,279.26z"/>
		</g>
	</g>
	<g>
		<g>
			<path class="st3" d="M550.4,229.52c3.86,0,3.87-6,0-6C546.54,223.52,546.53,229.52,550.4,229.52L550.4,229.52z"/>
		</g>
	</g>
	<g>
		<g>
			<path class="st3" d="M550.5,279.41c3.86,0,3.87-6,0-6C546.64,273.41,546.63,279.41,550.5,279.41L550.5,279.41z"/>
		</g>
	</g>
	<g>
		<g>
			<path class="st3" d="M600.37,229.45c3.86,0,3.87-6,0-6C596.51,223.45,596.5,229.45,600.37,229.45L600.37,229.45z"/>
		</g>
	</g>
	<g>
		<g>
			<path class="st3" d="M600.47,279.33c3.86,0,3.87-6,0-6C596.61,273.33,596.6,279.33,600.47,279.33L600.47,279.33z"/>
		</g>
	</g>
	<g>
		<g>
			<path class="st3" d="M650.42,229.6c3.86,0,3.87-6,0-6C646.56,223.6,646.56,229.6,650.42,229.6L650.42,229.6z"/>
		</g>
	</g>
	<g>
		<g>
			<path class="st3" d="M650.52,279.48c3.86,0,3.87-6,0-6C646.66,273.48,646.66,279.48,650.52,279.48L650.52,279.48z"/>
		</g>
	</g>
	<g>
		<g>
			<path class="st3" d="M700.33,230.01c3.86,0,3.87-6,0-6C696.47,224.01,696.46,230.01,700.33,230.01L700.33,230.01z"/>
		</g>
	</g>
	<g>
		<g>
			<path class="st3" d="M700.43,279.89c3.86,0,3.87-6,0-6C696.57,273.89,696.56,279.89,700.43,279.89L700.43,279.89z"/>
		</g>
	</g>
	<g>
		<g>
			<path class="st3" d="M750.38,230.15c3.86,0,3.87-6,0-6C746.52,224.15,746.51,230.15,750.38,230.15L750.38,230.15z"/>
		</g>
	</g>
	<g>
		<g>
			<path class="st3" d="M750.48,280.04c3.86,0,3.87-6,0-6C746.62,274.04,746.61,280.04,750.48,280.04L750.48,280.04z"/>
		</g>
	</g>
	<g>
		<g>
			<path class="st3" d="M800.35,230.08c3.86,0,3.87-6,0-6C796.49,224.08,796.49,230.08,800.35,230.08L800.35,230.08z"/>
		</g>
	</g>
	<g>
		<g>
			<path class="st3" d="M800.45,279.97c3.86,0,3.87-6,0-6C796.59,273.97,796.59,279.97,800.45,279.97L800.45,279.97z"/>
		</g>
	</g>
	<g>
		<g>
			<path class="st3" d="M850.41,230.23c3.86,0,3.87-6,0-6C846.55,224.23,846.54,230.23,850.41,230.23L850.41,230.23z"/>
		</g>
	</g>
	<g>
		<g>
			<path class="st3" d="M850.51,280.11c3.86,0,3.87-6,0-6C846.65,274.11,846.64,280.11,850.51,280.11L850.51,280.11z"/>
		</g>
	</g>
</g>
</svg>
