<?xml version="1.0" encoding="utf-8"?>
<!-- Generator: Adobe Illustrator 28.3.0, SVG Export Plug-In . SVG Version: 6.00 Build 0)  -->
<svg version="1.1" xmlns="http://www.w3.org/2000/svg" xmlns:xlink="http://www.w3.org/1999/xlink" x="0px" y="0px"
	 viewBox="0 0 883 555" style="enable-background:new 0 0 883 555;" xml:space="preserve">
<style type="text/css">
	.st0{fill:#29ABE2;}
	.st1{fill:#FF0000;}
	.st2{fill:#666666;}
	.st3{fill:#FBB03B;}
	.st4{font-family:'MicrosoftSansSerif';}
	.st5{font-size:12px;}
</style>
<g id="Слой_1">
	<g>
		<g>
			<path class="st0" d="M100.35,30.07c16.72-0.02,33.43-0.05,50.15-0.07c1.93,0,1.93-3,0-3c-16.72,0.02-33.43,0.05-50.15,0.07
				C98.42,27.08,98.42,30.08,100.35,30.07L100.35,30.07z"/>
		</g>
	</g>
	<g>
		<g>
			<path class="st0" d="M100.45,79.96c16.68,0.05,33.37,0.1,50.05,0.15c1.93,0.01,1.93-2.99,0-3c-16.68-0.05-33.37-0.1-50.05-0.15
				C98.52,76.95,98.52,79.95,100.45,79.96L100.45,79.96z"/>
		</g>
	</g>
	<g>
		<g>
			<path class="st0" d="M200.38,30.15c16.68,0.05,33.37,0.1,50.05,0.15c1.93,0.01,1.93-2.99,0-3c-16.68-0.05-33.37-0.1-50.05-0.15
				C198.45,27.14,198.44,30.14,200.38,30.15L200.38,30.15z"/>
		</g>
	</g>
	<g>
		<g>
			<path class="st0" d="M200.31,80.22c16.68,0.05,33.37,0.1,50.05,0.15c1.93,0.01,1.93-2.99,0-3c-16.68-0.05-33.37-0.1-50.05-0.15
				C198.38,77.21,198.38,80.21,200.31,80.22L200.31,80.22z"/>
		</g>
	</g>
	<g>
		<g>
			<path class="st0" d="M300.35,31.18c16.68,0.05,33.37,0.1,50.05,0.15c1.93,0.01,1.93-2.99,0-3c-16.68-0.05-33.37-0.1-50.05-0.15
				C298.41,28.18,298.41,31.18,300.35,31.18L300.35,31.18z"/>
		</g>
	</g>
	<g>
		<g>
			<path class="st0" d="M300.28,81.25c16.68,0.05,33.37,0.1,50.05,0.15c1.93,0.01,1.93-2.99,0-3c-16.68-0.05-33.37-0.1-50.05-0.15
				C298.35,78.24,298.35,81.24,300.28,81.25L300.28,81.25z"/>
		</g>
	</g>
	<g>
		<g>
			<path class="st0" d="M400.35,31.18c16.68,0.05,33.37,0.1,50.05,0.15c1.93,0.01,1.93-2.99,0-3c-16.68-0.05-33.37-0.1-50.05-0.15
				C398.41,28.18,398.41,31.18,400.35,31.18L400.35,31.18z"/>
		</g>
	</g>
	<g>
		<g>
			<path class="st0" d="M400.28,81.25c16.68,0.05,33.37,0.1,50.05,0.15c1.93,0.01,1.93-2.99,0-3c-16.68-0.05-33.37-0.1-50.05-0.15
				C398.35,78.24,398.35,81.24,400.28,81.25L400.28,81.25z"/>
		</g>
	</g>
	<g>
		<g>
			<path class="st0" d="M499.89,31.25c16.72-0.02,33.43-0.05,50.15-0.07c1.93,0,1.93-3,0-3c-16.72,0.02-33.43,0.05-50.15,0.07
				C497.96,28.25,497.96,31.25,499.89,31.25L499.89,31.25z"/>
		</g>
	</g>
	<g>
		<g>
			<path class="st0" d="M500,81.13c16.68,0.05,33.37,0.1,50.05,0.15c1.93,0.01,1.93-2.99,0-3c-16.68-0.05-33.37-0.1-50.05-0.15
				C498.07,78.13,498.06,81.13,500,81.13L500,81.13z"/>
		</g>
	</g>
	<g>
		<g>
			<path class="st0" d="M599.92,31.32c16.68,0.05,33.37,0.1,50.05,0.15c1.93,0.01,1.93-2.99,0-3c-16.68-0.05-33.37-0.1-50.05-0.15
				C597.99,28.32,597.99,31.32,599.92,31.32L599.92,31.32z"/>
		</g>
	</g>
	<g>
		<g>
			<path class="st0" d="M599.86,81.39c16.68,0.05,33.37,0.1,50.05,0.15c1.93,0.01,1.93-2.99,0-3c-16.68-0.05-33.37-0.1-50.05-0.15
				C597.93,78.39,597.92,81.39,599.86,81.39L599.86,81.39z"/>
		</g>
	</g>
	<g>
		<g>
			<path class="st0" d="M699.89,32.36c16.68,0.05,33.37,0.1,50.05,0.15c1.93,0.01,1.93-2.99,0-3c-16.68-0.05-33.37-0.1-50.05-0.15
				C697.96,29.35,697.96,32.35,699.89,32.36L699.89,32.36z"/>
		</g>
	</g>
	<g>
		<g>
			<path class="st0" d="M699.83,82.43c16.68,0.05,33.37,0.1,50.05,0.15c1.93,0.01,1.93-2.99,0-3c-16.68-0.05-33.37-0.1-50.05-0.15
				C697.89,79.42,697.89,82.42,699.83,82.43L699.83,82.43z"/>
		</g>
	</g>
	<g>
		<g>
			<path class="st0" d="M799.89,32.36c16.68,0.05,33.37,0.1,50.05,0.15c1.93,0.01,1.93-2.99,0-3c-16.68-0.05-33.37-0.1-50.05-0.15
				C797.96,29.35,797.96,32.35,799.89,32.36L799.89,32.36z"/>
		</g>
	</g>
	<g>
		<g>
			<path class="st0" d="M799.83,82.43c16.68,0.05,33.37,0.1,50.05,0.15c1.93,0.01,1.93-2.99,0-3c-16.68-0.05-33.37-0.1-50.05-0.15
				C797.89,79.42,797.89,82.42,799.83,82.43L799.83,82.43z"/>
		</g>
	</g>
</g>
<g id="Слой_1__x28_копия3_x29_">
	<g>
		<g>
			<path class="st1" d="M98.85,28.57c0.03,16.63,0.07,33.26,0.1,49.88c0,1.93,3,1.93,3,0c-0.03-16.63-0.07-33.26-0.1-49.88
				C101.85,26.64,98.85,26.64,98.85,28.57L98.85,28.57z"/>
		</g>
	</g>
	<g>
		<g>
			<path class="st1" d="M148.9,28.72c0.03,16.63,0.07,33.26,0.1,49.88c0,1.93,3,1.93,3,0c-0.03-16.63-0.07-33.26-0.1-49.88
				C151.9,26.79,148.9,26.79,148.9,28.72L148.9,28.72z"/>
		</g>
	</g>
	<g>
		<g>
			<path class="st1" d="M198.88,28.65c0.03,16.63,0.07,33.26,0.1,49.88c0,1.93,3,1.93,3,0c-0.03-16.63-0.07-33.26-0.1-49.88
				C201.87,26.72,198.87,26.71,198.88,28.65L198.88,28.65z"/>
		</g>
	</g>
	<g>
		<g>
			<path class="st1" d="M248.93,28.79c0.03,16.63,0.07,33.26,0.1,49.88c0,1.93,3,1.93,3,0c-0.03-16.63-0.07-33.26-0.1-49.88
				C251.93,26.86,248.93,26.86,248.93,28.79L248.93,28.79z"/>
		</g>
	</g>
	<g>
		<g>
			<path class="st1" d="M298.77,29.5c0.03,16.63,0.07,33.26,0.1,49.88c0,1.93,3,1.93,3,0c-0.03-16.63-0.07-33.26-0.1-49.88
				C301.77,27.57,298.77,27.57,298.77,29.5L298.77,29.5z"/>
		</g>
	</g>
	<g>
		<g>
			<path class="st1" d="M348.82,29.65c0.03,16.63,0.07,33.26,0.1,49.88c0,1.93,3,1.93,3,0c-0.03-16.63-0.07-33.26-0.1-49.88
				C351.82,27.72,348.82,27.71,348.82,29.65L348.82,29.65z"/>
		</g>
	</g>
	<g>
		<g>
			<path class="st1" d="M398.8,29.58c0.03,16.63,0.07,33.26,0.1,49.88c0,1.93,3,1.93,3,0c-0.03-16.63-0.07-33.26-0.1-49.88
				C401.79,27.64,398.79,27.64,398.8,29.58L398.8,29.58z"/>
		</g>
	</g>
	<g>
		<g>
			<path class="st1" d="M448.85,29.72c0.03,16.63,0.07,33.26,0.1,49.88c0,1.93,3,1.93,3,0c-0.03-16.63-0.07-33.26-0.1-49.88
				C451.85,27.79,448.85,27.79,448.85,29.72L448.85,29.72z"/>
		</g>
	</g>
	<g>
		<g>
			<path class="st1" d="M499.18,29.5c0.03,16.63,0.07,33.26,0.1,49.88c0,1.93,3,1.93,3,0c-0.03-16.63-0.07-33.26-0.1-49.88
				C502.17,27.57,499.17,27.57,499.18,29.5L499.18,29.5z"/>
		</g>
	</g>
	<g>
		<g>
			<path class="st1" d="M549.23,29.65c0.03,16.63,0.07,33.26,0.1,49.88c0,1.93,3,1.93,3,0c-0.03-16.63-0.07-33.26-0.1-49.88
				C552.22,27.72,549.22,27.71,549.23,29.65L549.23,29.65z"/>
		</g>
	</g>
	<g>
		<g>
			<path class="st1" d="M599.2,29.58c0.03,16.63,0.07,33.26,0.1,49.88c0,1.93,3,1.93,3,0c-0.03-16.63-0.07-33.26-0.1-49.88
				C602.2,27.64,599.2,27.64,599.2,29.58L599.2,29.58z"/>
		</g>
	</g>
	<g>
		<g>
			<path class="st1" d="M649.26,29.72c0.03,16.63,0.07,33.26,0.1,49.88c0,1.93,3,1.93,3,0c-0.03-16.63-0.07-33.26-0.1-49.88
				C652.25,27.79,649.25,27.79,649.26,29.72L649.26,29.72z"/>
		</g>
	</g>
	<g>
		<g>
			<path class="st1" d="M698.52,30.33c0.03,16.63,0.07,33.26,0.1,49.88c0,1.93,3,1.93,3,0c-0.03-16.63-0.07-33.26-0.1-49.88
				C701.51,28.4,698.51,28.4,698.52,30.33L698.52,30.33z"/>
		</g>
	</g>
	<g>
		<g>
			<path class="st1" d="M748.57,30.48c0.03,16.63,0.07,33.26,0.1,49.88c0,1.93,3,1.93,3,0c-0.03-16.63-0.07-33.26-0.1-49.88
				C751.57,28.55,748.57,28.54,748.57,30.48L748.57,30.48z"/>
		</g>
	</g>
	<g>
		<g>
			<path class="st1" d="M798.54,30.4c0.03,16.63,0.07,33.26,0.1,49.88c0,1.93,3,1.93,3,0c-0.03-16.63-0.07-33.26-0.1-49.88
				C801.54,28.47,798.54,28.47,798.54,30.4L798.54,30.4z"/>
		</g>
	</g>
	<g>
		<g>
			<path class="st1" d="M848.6,30.55c0.03,16.63,0.07,33.26,0.1,49.88c0,1.93,3,1.93,3,0c-0.03-16.63-0.07-33.26-0.1-49.88
				C851.59,28.62,848.59,28.62,848.6,30.55L848.6,30.55z"/>
		</g>
	</g>
</g>
<g id="Слой_1__x28_копия2_x29_">
	<g>
		<g>
			<path class="st2" d="M99.29,27.51c-5,4.36-8.74,10.42-10.53,16.78c-2.72,9.64-0.87,20.09,4.71,28.36
				c1.57,2.32,3.38,4.53,5.47,6.41c1.43,1.28,3.56-0.83,2.12-2.12c-4.49-4.02-7.81-9.48-9.43-15.26c-2.56-9.12-0.6-18.84,4.83-26.52
				c1.43-2.02,3.09-3.9,4.96-5.52C102.87,28.37,100.74,26.25,99.29,27.51L99.29,27.51z"/>
		</g>
	</g>
	<g>
		<g>
			<path class="st2" d="M150.4,30.22c16.66-0.02,33.32-0.05,49.97-0.07c1.93,0,1.93-3,0-3c-16.66,0.02-33.32,0.05-49.97,0.07
				C148.47,27.22,148.47,30.22,150.4,30.22L150.4,30.22z"/>
		</g>
	</g>
	<g>
		<g>
			<path class="st2" d="M250.43,30.29c16.63,0.14,33.27,0.28,49.9,0.41c1.93,0.02,1.93-2.98,0-3c-16.63-0.14-33.27-0.28-49.9-0.41
				C248.5,27.28,248.5,30.28,250.43,30.29L250.43,30.29z"/>
		</g>
	</g>
	<g>
		<g>
			<path class="st2" d="M350.39,30.85c16.66-0.02,33.32-0.05,49.97-0.07c1.93,0,1.93-3,0-3c-16.66,0.02-33.32,0.05-49.97,0.07
				C348.46,27.85,348.45,30.85,350.39,30.85L350.39,30.85z"/>
		</g>
	</g>
	<g>
		<g>
			<path class="st2" d="M450.42,30.92c16.64-0.01,33.29-0.03,49.93-0.04c1.93,0,1.93-3,0-3c-16.64,0.01-33.29,0.03-49.93,0.04
				C448.48,27.92,448.48,30.92,450.42,30.92L450.42,30.92z"/>
		</g>
	</g>
	<g>
		<g>
			<path class="st2" d="M550.4,31.02c16.66-0.02,33.32-0.05,49.97-0.07c1.93,0,1.93-3,0-3c-16.66,0.02-33.32,0.05-49.97,0.07
				C548.47,28.03,548.46,31.03,550.4,31.02L550.4,31.02z"/>
		</g>
	</g>
	<g>
		<g>
			<path class="st2" d="M650.42,31.1c16.63,0.14,33.27,0.28,49.9,0.41c1.93,0.02,1.93-2.98,0-3c-16.63-0.14-33.27-0.28-49.9-0.41
				C648.49,28.08,648.49,31.08,650.42,31.1L650.42,31.1z"/>
		</g>
	</g>
	<g>
		<g>
			<path class="st2" d="M800.35,28.58c-16.78-0.03-33.57-0.05-50.35-0.08c-1.93,0-1.93,3,0,3c16.78,0.03,33.57,0.05,50.35,0.08
				C802.28,31.59,802.29,28.59,800.35,28.58L800.35,28.58z"/>
		</g>
	</g>
	<g>
		<g>
			<path class="st2" d="M849.35,31.29c4.11,4.06,7.18,9.28,8.81,14.82c2.61,8.86,1.3,18.43-3.35,26.37
				c-1.37,2.33-2.98,4.51-4.86,6.46c-1.34,1.39,0.78,3.51,2.12,2.12c4.78-4.95,8.21-11.35,9.64-18.08
				c2.01-9.5,0.05-19.44-5.22-27.57c-1.45-2.24-3.12-4.37-5.02-6.24C850.09,27.81,847.97,29.93,849.35,31.29L849.35,31.29z"/>
		</g>
	</g>
	<g>
		<g>
			<path class="st2" d="M150.82,79.39c16.66-0.02,33.32-0.05,49.97-0.07c1.93,0,1.93-3,0-3c-16.66,0.02-33.32,0.05-49.97,0.07
				C148.89,76.4,148.88,79.4,150.82,79.39L150.82,79.39z"/>
		</g>
	</g>
	<g>
		<g>
			<path class="st2" d="M250.84,79.47c16.63,0.14,33.27,0.28,49.9,0.41c1.93,0.02,1.93-2.98,0-3c-16.63-0.14-33.27-0.28-49.9-0.41
				C248.91,76.45,248.91,79.45,250.84,79.47L250.84,79.47z"/>
		</g>
	</g>
	<g>
		<g>
			<path class="st2" d="M350.8,80.03c16.66-0.02,33.32-0.05,49.97-0.07c1.93,0,1.93-3,0-3c-16.66,0.02-33.32,0.05-49.97,0.07
				C348.87,77.03,348.87,80.03,350.8,80.03L350.8,80.03z"/>
		</g>
	</g>
	<g>
		<g>
			<path class="st2" d="M450.83,80.1c16.64-0.01,33.29-0.03,49.93-0.04c1.93,0,1.93-3,0-3c-16.64,0.01-33.29,0.03-49.93,0.04
				C448.9,77.1,448.9,80.1,450.83,80.1L450.83,80.1z"/>
		</g>
	</g>
	<g>
		<g>
			<path class="st2" d="M550.81,80.2c16.66-0.02,33.32-0.05,49.97-0.07c1.93,0,1.93-3,0-3c-16.66,0.02-33.32,0.05-49.97,0.07
				C548.88,77.2,548.88,80.2,550.81,80.2L550.81,80.2z"/>
		</g>
	</g>
	<g>
		<g>
			<path class="st2" d="M650.84,80.27c16.63,0.14,33.27,0.28,49.9,0.41c1.93,0.02,1.93-2.98,0-3c-16.63-0.14-33.27-0.28-49.9-0.41
				C648.91,77.26,648.9,80.26,650.84,80.27L650.84,80.27z"/>
		</g>
	</g>
	<g>
		<g>
			<path class="st2" d="M800.77,77.76c-16.78-0.03-33.57-0.05-50.35-0.08c-1.93,0-1.93,3,0,3c16.78,0.03,33.57,0.05,50.35,0.08
				C802.7,80.76,802.7,77.76,800.77,77.76L800.77,77.76z"/>
		</g>
	</g>
</g>
<g id="Слой_1__x28_копия_x29_">
	<g>
		<g>
			<path class="st3" d="M100.35,31.57c3.86,0,3.87-6,0-6C96.49,25.57,96.48,31.57,100.35,31.57L100.35,31.57z"/>
		</g>
	</g>
	<g>
		<g>
			<path class="st3" d="M100.45,81.46c3.86,0,3.87-6,0-6C96.59,75.46,96.58,81.46,100.45,81.46L100.45,81.46z"/>
		</g>
	</g>
	<g>
		<g>
			<path class="st3" d="M150.4,31.72c3.86,0,3.87-6,0-6C146.54,25.72,146.54,31.72,150.4,31.72L150.4,31.72z"/>
		</g>
	</g>
	<g>
		<g>
			<path class="st3" d="M150.51,81.6c3.86,0,3.87-6,0-6C146.64,75.6,146.64,81.6,150.51,81.6L150.51,81.6z"/>
		</g>
	</g>
	<g>
		<g>
			<path class="st3" d="M200.38,31.65c3.86,0,3.87-6,0-6C196.52,25.65,196.51,31.65,200.38,31.65L200.38,31.65z"/>
		</g>
	</g>
	<g>
		<g>
			<path class="st3" d="M200.48,81.53c3.86,0,3.87-6,0-6C196.62,75.53,196.61,81.53,200.48,81.53L200.48,81.53z"/>
		</g>
	</g>
	<g>
		<g>
			<path class="st3" d="M250.43,31.79c3.86,0,3.87-6,0-6C246.57,25.79,246.56,31.79,250.43,31.79L250.43,31.79z"/>
		</g>
	</g>
	<g>
		<g>
			<path class="st3" d="M250.53,81.68c3.86,0,3.87-6,0-6C246.67,75.68,246.67,81.68,250.53,81.68L250.53,81.68z"/>
		</g>
	</g>
	<g>
		<g>
			<path class="st3" d="M300.33,32.2c3.86,0,3.87-6,0-6C296.47,26.2,296.47,32.2,300.33,32.2L300.33,32.2z"/>
		</g>
	</g>
	<g>
		<g>
			<path class="st3" d="M300.44,82.09c3.86,0,3.87-6,0-6C296.58,76.09,296.57,82.09,300.44,82.09L300.44,82.09z"/>
		</g>
	</g>
	<g>
		<g>
			<path class="st3" d="M350.39,32.35c3.86,0,3.87-6,0-6C346.53,26.35,346.52,32.35,350.39,32.35L350.39,32.35z"/>
		</g>
	</g>
	<g>
		<g>
			<path class="st3" d="M350.49,82.23c3.86,0,3.87-6,0-6C346.63,76.23,346.62,82.23,350.49,82.23L350.49,82.23z"/>
		</g>
	</g>
	<g>
		<g>
			<path class="st3" d="M400.36,32.28c3.86,0,3.87-6,0-6C396.5,26.28,396.49,32.28,400.36,32.28L400.36,32.28z"/>
		</g>
	</g>
	<g>
		<g>
			<path class="st3" d="M400.46,82.16c3.86,0,3.87-6,0-6C396.6,76.16,396.6,82.16,400.46,82.16L400.46,82.16z"/>
		</g>
	</g>
	<g>
		<g>
			<path class="st3" d="M450.42,32.42c3.86,0,3.87-6,0-6C446.55,26.42,446.55,32.42,450.42,32.42L450.42,32.42z"/>
		</g>
	</g>
	<g>
		<g>
			<path class="st3" d="M450.52,82.31c3.86,0,3.87-6,0-6C446.66,76.31,446.65,82.31,450.52,82.31L450.52,82.31z"/>
		</g>
	</g>
	<g>
		<g>
			<path class="st3" d="M500.34,32.38c3.86,0,3.87-6,0-6C496.48,26.38,496.48,32.38,500.34,32.38L500.34,32.38z"/>
		</g>
	</g>
	<g>
		<g>
			<path class="st3" d="M500.44,82.26c3.86,0,3.87-6,0-6C496.58,76.26,496.58,82.26,500.44,82.26L500.44,82.26z"/>
		</g>
	</g>
	<g>
		<g>
			<path class="st3" d="M550.4,32.52c3.86,0,3.87-6,0-6C546.54,26.52,546.53,32.52,550.4,32.52L550.4,32.52z"/>
		</g>
	</g>
	<g>
		<g>
			<path class="st3" d="M550.5,82.41c3.86,0,3.87-6,0-6C546.64,76.41,546.63,82.41,550.5,82.41L550.5,82.41z"/>
		</g>
	</g>
	<g>
		<g>
			<path class="st3" d="M600.37,32.45c3.86,0,3.87-6,0-6C596.51,26.45,596.5,32.45,600.37,32.45L600.37,32.45z"/>
		</g>
	</g>
	<g>
		<g>
			<path class="st3" d="M600.47,82.33c3.86,0,3.87-6,0-6C596.61,76.33,596.6,82.33,600.47,82.33L600.47,82.33z"/>
		</g>
	</g>
	<g>
		<g>
			<path class="st3" d="M650.42,32.6c3.86,0,3.87-6,0-6C646.56,26.6,646.56,32.6,650.42,32.6L650.42,32.6z"/>
		</g>
	</g>
	<g>
		<g>
			<path class="st3" d="M650.52,82.48c3.86,0,3.87-6,0-6C646.66,76.48,646.66,82.48,650.52,82.48L650.52,82.48z"/>
		</g>
	</g>
	<g>
		<g>
			<path class="st3" d="M700.33,33.01c3.86,0,3.87-6,0-6C696.47,27.01,696.46,33.01,700.33,33.01L700.33,33.01z"/>
		</g>
	</g>
	<g>
		<g>
			<path class="st3" d="M700.43,82.89c3.86,0,3.87-6,0-6C696.57,76.89,696.56,82.89,700.43,82.89L700.43,82.89z"/>
		</g>
	</g>
	<g>
		<g>
			<path class="st3" d="M750.38,33.15c3.86,0,3.87-6,0-6C746.52,27.15,746.51,33.15,750.38,33.15L750.38,33.15z"/>
		</g>
	</g>
	<g>
		<g>
			<path class="st3" d="M750.48,83.04c3.86,0,3.87-6,0-6C746.62,77.04,746.61,83.04,750.48,83.04L750.48,83.04z"/>
		</g>
	</g>
	<g>
		<g>
			<path class="st3" d="M800.35,33.08c3.86,0,3.87-6,0-6C796.49,27.08,796.49,33.08,800.35,33.08L800.35,33.08z"/>
		</g>
	</g>
	<g>
		<g>
			<path class="st3" d="M800.45,82.97c3.86,0,3.87-6,0-6C796.59,76.97,796.59,82.97,800.45,82.97L800.45,82.97z"/>
		</g>
	</g>
	<g>
		<g>
			<path class="st3" d="M850.41,33.23c3.86,0,3.87-6,0-6C846.55,27.23,846.54,33.23,850.41,33.23L850.41,33.23z"/>
		</g>
	</g>
	<g>
		<g>
			<path class="st3" d="M850.51,83.11c3.86,0,3.87-6,0-6C846.65,77.11,846.64,83.11,850.51,83.11L850.51,83.11z"/>
		</g>
	</g>
</g>
<g id="Слой_1_копия_2">
	<g>
		<g>
			<path class="st0" d="M100.35,133.07c16.72-0.02,33.43-0.05,50.15-0.07c1.93,0,1.93-3,0-3c-16.72,0.02-33.43,0.05-50.15,0.07
				C98.42,130.08,98.42,133.08,100.35,133.07L100.35,133.07z"/>
		</g>
	</g>
	<g>
		<g>
			<path class="st0" d="M100.45,182.96c16.68,0.05,33.37,0.1,50.05,0.15c1.93,0.01,1.93-2.99,0-3c-16.68-0.05-33.37-0.1-50.05-0.15
				C98.52,179.95,98.52,182.95,100.45,182.96L100.45,182.96z"/>
		</g>
	</g>
	<g>
		<g>
			<path class="st0" d="M200.38,133.15c16.68,0.05,33.37,0.1,50.05,0.15c1.93,0.01,1.93-2.99,0-3c-16.68-0.05-33.37-0.1-50.05-0.15
				C198.45,130.14,198.44,133.14,200.38,133.15L200.38,133.15z"/>
		</g>
	</g>
	<g>
		<g>
			<path class="st0" d="M200.31,183.22c16.68,0.05,33.37,0.1,50.05,0.15c1.93,0.01,1.93-2.99,0-3c-16.68-0.05-33.37-0.1-50.05-0.15
				C198.38,180.21,198.38,183.21,200.31,183.22L200.31,183.22z"/>
		</g>
	</g>
	<g>
		<g>
			<path class="st0" d="M300.35,134.18c16.68,0.05,33.37,0.1,50.05,0.15c1.93,0.01,1.93-2.99,0-3c-16.68-0.05-33.37-0.1-50.05-0.15
				C298.41,131.18,298.41,134.18,300.35,134.18L300.35,134.18z"/>
		</g>
	</g>
	<g>
		<g>
			<path class="st0" d="M300.28,184.25c16.68,0.05,33.37,0.1,50.05,0.15c1.93,0.01,1.93-2.99,0-3c-16.68-0.05-33.37-0.1-50.05-0.15
				C298.35,181.24,298.35,184.24,300.28,184.25L300.28,184.25z"/>
		</g>
	</g>
	<g>
		<g>
			<path class="st0" d="M400.35,134.18c16.68,0.05,33.37,0.1,50.05,0.15c1.93,0.01,1.93-2.99,0-3c-16.68-0.05-33.37-0.1-50.05-0.15
				C398.41,131.18,398.41,134.18,400.35,134.18L400.35,134.18z"/>
		</g>
	</g>
	<g>
		<g>
			<path class="st0" d="M400.28,184.25c16.68,0.05,33.37,0.1,50.05,0.15c1.93,0.01,1.93-2.99,0-3c-16.68-0.05-33.37-0.1-50.05-0.15
				C398.35,181.24,398.35,184.24,400.28,184.25L400.28,184.25z"/>
		</g>
	</g>
	<g>
		<g>
			<path class="st0" d="M499.89,134.25c16.72-0.02,33.43-0.05,50.15-0.07c1.93,0,1.93-3,0-3c-16.72,0.02-33.43,0.05-50.15,0.07
				C497.96,131.25,497.96,134.25,499.89,134.25L499.89,134.25z"/>
		</g>
	</g>
	<g>
		<g>
			<path class="st0" d="M500,184.13c16.68,0.05,33.37,0.1,50.05,0.15c1.93,0.01,1.93-2.99,0-3c-16.68-0.05-33.37-0.1-50.05-0.15
				C498.07,181.13,498.06,184.13,500,184.13L500,184.13z"/>
		</g>
	</g>
	<g>
		<g>
			<path class="st0" d="M599.92,134.32c16.68,0.05,33.37,0.1,50.05,0.15c1.93,0.01,1.93-2.99,0-3c-16.68-0.05-33.37-0.1-50.05-0.15
				C597.99,131.32,597.99,134.32,599.92,134.32L599.92,134.32z"/>
		</g>
	</g>
	<g>
		<g>
			<path class="st0" d="M599.86,184.39c16.68,0.05,33.37,0.1,50.05,0.15c1.93,0.01,1.93-2.99,0-3c-16.68-0.05-33.37-0.1-50.05-0.15
				C597.93,181.39,597.92,184.39,599.86,184.39L599.86,184.39z"/>
		</g>
	</g>
	<g>
		<g>
			<path class="st0" d="M699.89,135.36c16.68,0.05,33.37,0.1,50.05,0.15c1.93,0.01,1.93-2.99,0-3c-16.68-0.05-33.37-0.1-50.05-0.15
				C697.96,132.35,697.96,135.35,699.89,135.36L699.89,135.36z"/>
		</g>
	</g>
	<g>
		<g>
			<path class="st0" d="M699.83,185.43c16.68,0.05,33.37,0.1,50.05,0.15c1.93,0.01,1.93-2.99,0-3c-16.68-0.05-33.37-0.1-50.05-0.15
				C697.89,182.42,697.89,185.42,699.83,185.43L699.83,185.43z"/>
		</g>
	</g>
	<g>
		<g>
			<path class="st0" d="M799.89,135.36c16.68,0.05,33.37,0.1,50.05,0.15c1.93,0.01,1.93-2.99,0-3c-16.68-0.05-33.37-0.1-50.05-0.15
				C797.96,132.35,797.96,135.35,799.89,135.36L799.89,135.36z"/>
		</g>
	</g>
	<g>
		<g>
			<path class="st0" d="M799.83,185.43c16.68,0.05,33.37,0.1,50.05,0.15c1.93,0.01,1.93-2.99,0-3c-16.68-0.05-33.37-0.1-50.05-0.15
				C797.89,182.42,797.89,185.42,799.83,185.43L799.83,185.43z"/>
		</g>
	</g>
</g>
<g id="Слой_1__x28_копия6_x29_">
	<g>
		<g>
			<path class="st1" d="M98.85,131.57c0.03,16.63,0.07,33.26,0.1,49.88c0,1.93,3,1.93,3,0c-0.03-16.63-0.07-33.26-0.1-49.88
				C101.85,129.64,98.85,129.64,98.85,131.57L98.85,131.57z"/>
		</g>
	</g>
	<g>
		<g>
			<path class="st1" d="M148.9,131.72c0.03,16.63,0.07,33.26,0.1,49.88c0,1.93,3,1.93,3,0c-0.03-16.63-0.07-33.26-0.1-49.88
				C151.9,129.79,148.9,129.79,148.9,131.72L148.9,131.72z"/>
		</g>
	</g>
	<g>
		<g>
			<path class="st1" d="M198.88,131.65c0.03,16.63,0.07,33.26,0.1,49.88c0,1.93,3,1.93,3,0c-0.03-16.63-0.07-33.26-0.1-49.88
				C201.87,129.72,198.87,129.71,198.88,131.65L198.88,131.65z"/>
		</g>
	</g>
	<g>
		<g>
			<path class="st1" d="M248.93,131.79c0.03,16.63,0.07,33.26,0.1,49.88c0,1.93,3,1.93,3,0c-0.03-16.63-0.07-33.26-0.1-49.88
				C251.93,129.86,248.93,129.86,248.93,131.79L248.93,131.79z"/>
		</g>
	</g>
	<g>
		<g>
			<path class="st1" d="M298.77,132.5c0.03,16.63,0.07,33.26,0.1,49.88c0,1.93,3,1.93,3,0c-0.03-16.63-0.07-33.26-0.1-49.88
				C301.77,130.57,298.77,130.57,298.77,132.5L298.77,132.5z"/>
		</g>
	</g>
	<g>
		<g>
			<path class="st1" d="M348.82,132.65c0.03,16.63,0.07,33.26,0.1,49.88c0,1.93,3,1.93,3,0c-0.03-16.63-0.07-33.26-0.1-49.88
				C351.82,130.72,348.82,130.71,348.82,132.65L348.82,132.65z"/>
		</g>
	</g>
	<g>
		<g>
			<path class="st1" d="M398.8,132.58c0.03,16.63,0.07,33.26,0.1,49.88c0,1.93,3,1.93,3,0c-0.03-16.63-0.07-33.26-0.1-49.88
				C401.79,130.64,398.79,130.64,398.8,132.58L398.8,132.58z"/>
		</g>
	</g>
	<g>
		<g>
			<path class="st1" d="M448.85,132.72c0.03,16.63,0.07,33.26,0.1,49.88c0,1.93,3,1.93,3,0c-0.03-16.63-0.07-33.26-0.1-49.88
				C451.85,130.79,448.85,130.79,448.85,132.72L448.85,132.72z"/>
		</g>
	</g>
	<g>
		<g>
			<path class="st1" d="M499.18,132.5c0.03,16.63,0.07,33.26,0.1,49.88c0,1.93,3,1.93,3,0c-0.03-16.63-0.07-33.26-0.1-49.88
				C502.17,130.57,499.17,130.57,499.18,132.5L499.18,132.5z"/>
		</g>
	</g>
	<g>
		<g>
			<path class="st1" d="M549.23,132.65c0.03,16.63,0.07,33.26,0.1,49.88c0,1.93,3,1.93,3,0c-0.03-16.63-0.07-33.26-0.1-49.88
				C552.22,130.72,549.22,130.71,549.23,132.65L549.23,132.65z"/>
		</g>
	</g>
	<g>
		<g>
			<path class="st1" d="M599.2,132.58c0.03,16.63,0.07,33.26,0.1,49.88c0,1.93,3,1.93,3,0c-0.03-16.63-0.07-33.26-0.1-49.88
				C602.2,130.64,599.2,130.64,599.2,132.58L599.2,132.58z"/>
		</g>
	</g>
	<g>
		<g>
			<path class="st1" d="M649.26,132.72c0.03,16.63,0.07,33.26,0.1,49.88c0,1.93,3,1.93,3,0c-0.03-16.63-0.07-33.26-0.1-49.88
				C652.25,130.79,649.25,130.79,649.26,132.72L649.26,132.72z"/>
		</g>
	</g>
	<g>
		<g>
			<path class="st1" d="M698.52,133.33c0.03,16.63,0.07,33.26,0.1,49.88c0,1.93,3,1.93,3,0c-0.03-16.63-0.07-33.26-0.1-49.88
				C701.51,131.4,698.51,131.4,698.52,133.33L698.52,133.33z"/>
		</g>
	</g>
	<g>
		<g>
			<path class="st1" d="M748.57,133.48c0.03,16.63,0.07,33.26,0.1,49.88c0,1.93,3,1.93,3,0c-0.03-16.63-0.07-33.26-0.1-49.88
				C751.57,131.55,748.57,131.54,748.57,133.48L748.57,133.48z"/>
		</g>
	</g>
	<g>
		<g>
			<path class="st1" d="M798.54,133.4c0.03,16.63,0.07,33.26,0.1,49.88c0,1.93,3,1.93,3,0c-0.03-16.63-0.07-33.26-0.1-49.88
				C801.54,131.47,798.54,131.47,798.54,133.4L798.54,133.4z"/>
		</g>
	</g>
	<g>
		<g>
			<path class="st1" d="M848.6,133.55c0.03,16.63,0.07,33.26,0.1,49.88c0,1.93,3,1.93,3,0c-0.03-16.63-0.07-33.26-0.1-49.88
				C851.59,131.62,848.59,131.62,848.6,133.55L848.6,133.55z"/>
		</g>
	</g>
</g>
<g id="Слой_1__x28_копия5_x29_">
	<g>
		<g>
			<path class="st2" d="M99.29,130.51c-5,4.36-8.74,10.42-10.53,16.78c-2.72,9.64-0.87,20.09,4.71,28.36
				c1.57,2.32,3.38,4.53,5.47,6.41c1.43,1.28,3.56-0.83,2.12-2.12c-4.49-4.02-7.81-9.48-9.43-15.26c-2.56-9.12-0.6-18.84,4.83-26.52
				c1.43-2.02,3.09-3.9,4.96-5.52C102.87,131.37,100.74,129.25,99.29,130.51L99.29,130.51z"/>
		</g>
	</g>
	<g>
		<g>
			<path class="st2" d="M149.34,132.78c11.69,14.59,24.67,28.13,38.78,40.39c3.7,3.22,7.48,6.34,11.32,9.39
				c1.5,1.19,3.64-0.92,2.12-2.12c-14.61-11.56-28.19-24.4-40.51-38.37c-3.29-3.73-6.48-7.53-9.59-11.41
				C150.26,129.15,148.15,131.29,149.34,132.78L149.34,132.78z"/>
		</g>
	</g>
	<g>
		<g>
			<path class="st2" d="M249.37,132.85c7.38,7.71,14.7,15.48,22.03,23.23c3.44,3.64,7.05,7.1,10.64,10.58
				c5.81,5.62,11.61,11.25,17.4,16.89c1.38,1.35,3.51-0.77,2.12-2.12c-7.79-7.59-15.66-15.1-23.4-22.73
				c-3.52-3.47-6.87-7.12-10.26-10.72c-5.44-5.78-10.92-11.52-16.41-17.26C250.15,129.33,248.04,131.46,249.37,132.85L249.37,132.85
				z"/>
		</g>
	</g>
	<g>
		<g>
			<path class="st2" d="M350.39,133.85c16.66-0.02,33.32-0.05,49.97-0.07c1.93,0,1.93-3,0-3c-16.66,0.02-33.32,0.05-49.97,0.07
				C348.46,130.85,348.45,133.85,350.39,133.85L350.39,133.85z"/>
		</g>
	</g>
	<g>
		<g>
			<path class="st2" d="M450.42,133.92c16.64-0.01,33.29-0.03,49.93-0.04c1.93,0,1.93-3,0-3c-16.64,0.01-33.29,0.03-49.93,0.04
				C448.48,130.92,448.48,133.92,450.42,133.92L450.42,133.92z"/>
		</g>
	</g>
	<g>
		<g>
			<path class="st2" d="M550.4,134.02c16.66-0.02,33.32-0.05,49.97-0.07c1.93,0,1.93-3,0-3c-16.66,0.02-33.32,0.05-49.97,0.07
				C548.47,131.03,548.46,134.03,550.4,134.02L550.4,134.02z"/>
		</g>
	</g>
	<g>
		<g>
			<path class="st2" d="M650.42,134.1c16.63,0.14,33.27,0.28,49.9,0.41c1.93,0.02,1.93-2.98,0-3c-16.63-0.14-33.27-0.28-49.9-0.41
				C648.49,131.08,648.49,134.08,650.42,134.1L650.42,134.1z"/>
		</g>
	</g>
	<g>
		<g>
			<path class="st2" d="M800.35,131.58c-16.78-0.03-33.57-0.05-50.35-0.08c-1.93,0-1.93,3,0,3c16.78,0.03,33.57,0.05,50.35,0.08
				C802.28,134.59,802.29,131.59,800.35,131.58L800.35,131.58z"/>
		</g>
	</g>
	<g>
		<g>
			<path class="st2" d="M849.35,134.29c4.11,4.06,7.18,9.28,8.81,14.82c2.61,8.86,1.3,18.43-3.35,26.37
				c-1.37,2.33-2.98,4.51-4.86,6.46c-1.34,1.39,0.78,3.51,2.12,2.12c4.78-4.95,8.21-11.35,9.64-18.08
				c2.01-9.5,0.05-19.44-5.22-27.57c-1.45-2.24-3.12-4.37-5.02-6.24C850.09,130.81,847.97,132.93,849.35,134.29L849.35,134.29z"/>
		</g>
	</g>
	<g>
		<g>
			<path class="st2" d="M149.76,181.96c3.77,4.8,9.38,7.84,14.97,10.01c7,2.73,14.48,4.14,21.92,4.93
				c8.16,0.87,16.42,0.9,24.59,0.17c7.65-0.68,15.31-1.98,22.62-4.36c6.4-2.09,13.1-5.05,17.69-10.15c1.29-1.43-0.82-3.56-2.12-2.12
				c-3.78,4.19-9.12,6.8-14.36,8.69c-6.87,2.48-14.12,3.91-21.37,4.7c-14.99,1.64-30.97,1.07-45.37-3.74
				c-6.13-2.04-12.39-5.07-16.46-10.26C150.69,178.32,148.58,180.45,149.76,181.96L149.76,181.96z"/>
		</g>
	</g>
	<g>
		<g>
			<path class="st2" d="M302,132.5c0.6-5.76-4.61-9.7-9.24-11.9c-7.43-3.53-15.83-4.94-23.94-5.84c-9.78-1.09-19.69-1.19-29.5-0.46
				c-8.74,0.65-17.66,1.86-25.97,4.76c-5.3,1.85-12.06,4.79-13.97,10.61c-0.2,0.6-0.3,1.21-0.37,1.84c-0.24,1.91,2.77,1.89,3,0
				c-0.05,0.4,0.06-0.28,0.09-0.43c0.07-0.28,0.15-0.54,0.24-0.81c0.02-0.06,0.17-0.42,0.08-0.22c-0.08,0.19,0.07-0.15,0.1-0.21
				c0.13-0.24,0.25-0.49,0.4-0.72c0.14-0.22,0.29-0.44,0.44-0.65c0.22-0.3-0.09,0.1,0.08-0.11c0.1-0.12,0.2-0.24,0.31-0.36
				c0.41-0.47,0.86-0.9,1.33-1.3c0.84-0.72,2-1.5,3.23-2.18c1.39-0.77,2.8-1.41,4.17-1.94c7.62-2.96,15.9-4.27,24-5.03
				c9.39-0.88,18.89-0.94,28.29-0.17c8.07,0.66,16.33,1.86,23.93,4.74c1.41,0.54,2.72,1.11,4.14,1.89c1.2,0.66,2.4,1.46,3.19,2.14
				c0.45,0.39,0.88,0.8,1.27,1.25c0.23,0.26,0.36,0.43,0.35,0.42c0.18,0.24,0.34,0.49,0.5,0.74c0.13,0.22,0.25,0.44,0.36,0.67
				c0.03,0.06,0.18,0.4,0.1,0.21c-0.08-0.19,0.07,0.19,0.1,0.27c0.07,0.24,0.15,0.47,0.21,0.71c0.03,0.12,0.05,0.24,0.08,0.36
				c0.09,0.43,0-0.17,0.03,0.18c0.04,0.53,0.04,1.04-0.01,1.57C298.8,134.42,301.8,134.4,302,132.5L302,132.5z"/>
		</g>
	</g>
	<g>
		<g>
			<path class="st2" d="M350.8,183.03c16.66-0.02,33.32-0.05,49.97-0.07c1.93,0,1.93-3,0-3c-16.66,0.02-33.32,0.05-49.97,0.07
				C348.87,180.03,348.87,183.03,350.8,183.03L350.8,183.03z"/>
		</g>
	</g>
	<g>
		<g>
			<path class="st2" d="M450.83,183.1c16.64-0.01,33.29-0.03,49.93-0.04c1.93,0,1.93-3,0-3c-16.64,0.01-33.29,0.03-49.93,0.04
				C448.9,180.1,448.9,183.1,450.83,183.1L450.83,183.1z"/>
		</g>
	</g>
	<g>
		<g>
			<path class="st2" d="M550.81,183.2c16.66-0.02,33.32-0.05,49.97-0.07c1.93,0,1.93-3,0-3c-16.66,0.02-33.32,0.05-49.97,0.07
				C548.88,180.2,548.88,183.2,550.81,183.2L550.81,183.2z"/>
		</g>
	</g>
	<g>
		<g>
			<path class="st2" d="M650.84,183.27c16.63,0.14,33.27,0.28,49.9,0.41c1.93,0.02,1.93-2.98,0-3c-16.63-0.14-33.27-0.28-49.9-0.41
				C648.91,180.26,648.9,183.26,650.84,183.27L650.84,183.27z"/>
		</g>
	</g>
	<g>
		<g>
			<path class="st2" d="M800.77,180.76c-16.78-0.03-33.57-0.05-50.35-0.08c-1.93,0-1.93,3,0,3c16.78,0.03,33.57,0.05,50.35,0.08
				C802.7,183.76,802.7,180.76,800.77,180.76L800.77,180.76z"/>
		</g>
	</g>
</g>
<g id="Слой_1__x28_копия4_x29_">
	<g>
		<g>
			<path class="st3" d="M100.35,134.57c3.86,0,3.87-6,0-6C96.49,128.57,96.48,134.57,100.35,134.57L100.35,134.57z"/>
		</g>
	</g>
	<g>
		<g>
			<path class="st3" d="M100.45,184.46c3.86,0,3.87-6,0-6C96.59,178.46,96.58,184.46,100.45,184.46L100.45,184.46z"/>
		</g>
	</g>
	<g>
		<g>
			<path class="st3" d="M150.4,134.72c3.86,0,3.87-6,0-6C146.54,128.72,146.54,134.72,150.4,134.72L150.4,134.72z"/>
		</g>
	</g>
	<g>
		<g>
			<path class="st3" d="M150.51,184.6c3.86,0,3.87-6,0-6C146.64,178.6,146.64,184.6,150.51,184.6L150.51,184.6z"/>
		</g>
	</g>
	<g>
		<g>
			<path class="st3" d="M200.38,134.65c3.86,0,3.87-6,0-6C196.52,128.65,196.51,134.65,200.38,134.65L200.38,134.65z"/>
		</g>
	</g>
	<g>
		<g>
			<path class="st3" d="M200.48,184.53c3.86,0,3.87-6,0-6C196.62,178.53,196.61,184.53,200.48,184.53L200.48,184.53z"/>
		</g>
	</g>
	<g>
		<g>
			<path class="st3" d="M250.43,134.79c3.86,0,3.87-6,0-6C246.57,128.79,246.56,134.79,250.43,134.79L250.43,134.79z"/>
		</g>
	</g>
	<g>
		<g>
			<path class="st3" d="M250.53,184.68c3.86,0,3.87-6,0-6C246.67,178.68,246.67,184.68,250.53,184.68L250.53,184.68z"/>
		</g>
	</g>
	<g>
		<g>
			<path class="st3" d="M300.33,135.2c3.86,0,3.87-6,0-6C296.47,129.2,296.47,135.2,300.33,135.2L300.33,135.2z"/>
		</g>
	</g>
	<g>
		<g>
			<path class="st3" d="M300.44,185.09c3.86,0,3.87-6,0-6C296.58,179.09,296.57,185.09,300.44,185.09L300.44,185.09z"/>
		</g>
	</g>
	<g>
		<g>
			<path class="st3" d="M350.39,135.35c3.86,0,3.87-6,0-6C346.53,129.35,346.52,135.35,350.39,135.35L350.39,135.35z"/>
		</g>
	</g>
	<g>
		<g>
			<path class="st3" d="M350.49,185.23c3.86,0,3.87-6,0-6C346.63,179.23,346.62,185.23,350.49,185.23L350.49,185.23z"/>
		</g>
	</g>
	<g>
		<g>
			<path class="st3" d="M400.36,135.28c3.86,0,3.87-6,0-6C396.5,129.28,396.49,135.28,400.36,135.28L400.36,135.28z"/>
		</g>
	</g>
	<g>
		<g>
			<path class="st3" d="M400.46,185.16c3.86,0,3.87-6,0-6C396.6,179.16,396.6,185.16,400.46,185.16L400.46,185.16z"/>
		</g>
	</g>
	<g>
		<g>
			<path class="st3" d="M450.42,135.42c3.86,0,3.87-6,0-6C446.55,129.42,446.55,135.42,450.42,135.42L450.42,135.42z"/>
		</g>
	</g>
	<g>
		<g>
			<path class="st3" d="M450.52,185.31c3.86,0,3.87-6,0-6C446.66,179.31,446.65,185.31,450.52,185.31L450.52,185.31z"/>
		</g>
	</g>
	<g>
		<g>
			<path class="st3" d="M500.34,135.38c3.86,0,3.87-6,0-6C496.48,129.38,496.48,135.38,500.34,135.38L500.34,135.38z"/>
		</g>
	</g>
	<g>
		<g>
			<path class="st3" d="M500.44,185.26c3.86,0,3.87-6,0-6C496.58,179.26,496.58,185.26,500.44,185.26L500.44,185.26z"/>
		</g>
	</g>
	<g>
		<g>
			<path class="st3" d="M550.4,135.52c3.86,0,3.87-6,0-6C546.54,129.52,546.53,135.52,550.4,135.52L550.4,135.52z"/>
		</g>
	</g>
	<g>
		<g>
			<path class="st3" d="M550.5,185.41c3.86,0,3.87-6,0-6C546.64,179.41,546.63,185.41,550.5,185.41L550.5,185.41z"/>
		</g>
	</g>
	<g>
		<g>
			<path class="st3" d="M600.37,135.45c3.86,0,3.87-6,0-6C596.51,129.45,596.5,135.45,600.37,135.45L600.37,135.45z"/>
		</g>
	</g>
	<g>
		<g>
			<path class="st3" d="M600.47,185.33c3.86,0,3.87-6,0-6C596.61,179.33,596.6,185.33,600.47,185.33L600.47,185.33z"/>
		</g>
	</g>
	<g>
		<g>
			<path class="st3" d="M650.42,135.6c3.86,0,3.87-6,0-6C646.56,129.6,646.56,135.6,650.42,135.6L650.42,135.6z"/>
		</g>
	</g>
	<g>
		<g>
			<path class="st3" d="M650.52,185.48c3.86,0,3.87-6,0-6C646.66,179.48,646.66,185.48,650.52,185.48L650.52,185.48z"/>
		</g>
	</g>
	<g>
		<g>
			<path class="st3" d="M700.33,136.01c3.86,0,3.87-6,0-6C696.47,130.01,696.46,136.01,700.33,136.01L700.33,136.01z"/>
		</g>
	</g>
	<g>
		<g>
			<path class="st3" d="M700.43,185.89c3.86,0,3.87-6,0-6C696.57,179.89,696.56,185.89,700.43,185.89L700.43,185.89z"/>
		</g>
	</g>
	<g>
		<g>
			<path class="st3" d="M750.38,136.15c3.86,0,3.87-6,0-6C746.52,130.15,746.51,136.15,750.38,136.15L750.38,136.15z"/>
		</g>
	</g>
	<g>
		<g>
			<path class="st3" d="M750.48,186.04c3.86,0,3.87-6,0-6C746.62,180.04,746.61,186.04,750.48,186.04L750.48,186.04z"/>
		</g>
	</g>
	<g>
		<g>
			<path class="st3" d="M800.35,136.08c3.86,0,3.87-6,0-6C796.49,130.08,796.49,136.08,800.35,136.08L800.35,136.08z"/>
		</g>
	</g>
	<g>
		<g>
			<path class="st3" d="M800.45,185.97c3.86,0,3.87-6,0-6C796.59,179.97,796.59,185.97,800.45,185.97L800.45,185.97z"/>
		</g>
	</g>
	<g>
		<g>
			<path class="st3" d="M850.41,136.23c3.86,0,3.87-6,0-6C846.55,130.23,846.54,136.23,850.41,136.23L850.41,136.23z"/>
		</g>
	</g>
	<g>
		<g>
			<path class="st3" d="M850.51,186.11c3.86,0,3.87-6,0-6C846.65,180.11,846.64,186.11,850.51,186.11L850.51,186.11z"/>
		</g>
	</g>
</g>
<g id="Слой_1_копия_3">
	<g>
		<g>
			<path class="st0" d="M100.35,233.07c16.72-0.02,33.43-0.05,50.15-0.07c1.93,0,1.93-3,0-3c-16.72,0.02-33.43,0.05-50.15,0.07
				C98.42,230.08,98.42,233.08,100.35,233.07L100.35,233.07z"/>
		</g>
	</g>
	<g>
		<g>
			<path class="st0" d="M100.45,282.96c16.68,0.05,33.37,0.1,50.05,0.15c1.93,0.01,1.93-2.99,0-3c-16.68-0.05-33.37-0.1-50.05-0.15
				C98.52,279.95,98.52,282.95,100.45,282.96L100.45,282.96z"/>
		</g>
	</g>
	<g>
		<g>
			<path class="st0" d="M200.38,233.15c16.68,0.05,33.37,0.1,50.05,0.15c1.93,0.01,1.93-2.99,0-3c-16.68-0.05-33.37-0.1-50.05-0.15
				C198.45,230.14,198.44,233.14,200.38,233.15L200.38,233.15z"/>
		</g>
	</g>
	<g>
		<g>
			<path class="st0" d="M200.31,283.22c16.68,0.05,33.37,0.1,50.05,0.15c1.93,0.01,1.93-2.99,0-3c-16.68-0.05-33.37-0.1-50.05-0.15
				C198.38,280.21,198.38,283.21,200.31,283.22L200.31,283.22z"/>
		</g>
	</g>
	<g>
		<g>
			<path class="st0" d="M300.35,234.18c16.68,0.05,33.37,0.1,50.05,0.15c1.93,0.01,1.93-2.99,0-3c-16.68-0.05-33.37-0.1-50.05-0.15
				C298.41,231.18,298.41,234.18,300.35,234.18L300.35,234.18z"/>
		</g>
	</g>
	<g>
		<g>
			<path class="st0" d="M300.28,284.25c16.68,0.05,33.37,0.1,50.05,0.15c1.93,0.01,1.93-2.99,0-3c-16.68-0.05-33.37-0.1-50.05-0.15
				C298.35,281.24,298.35,284.24,300.28,284.25L300.28,284.25z"/>
		</g>
	</g>
	<g>
		<g>
			<path class="st0" d="M400.35,234.18c16.68,0.05,33.37,0.1,50.05,0.15c1.93,0.01,1.93-2.99,0-3c-16.68-0.05-33.37-0.1-50.05-0.15
				C398.41,231.18,398.41,234.18,400.35,234.18L400.35,234.18z"/>
		</g>
	</g>
	<g>
		<g>
			<path class="st0" d="M400.28,284.25c16.68,0.05,33.37,0.1,50.05,0.15c1.93,0.01,1.93-2.99,0-3c-16.68-0.05-33.37-0.1-50.05-0.15
				C398.35,281.24,398.35,284.24,400.28,284.25L400.28,284.25z"/>
		</g>
	</g>
	<g>
		<g>
			<path class="st0" d="M499.89,234.25c16.72-0.02,33.43-0.05,50.15-0.07c1.93,0,1.93-3,0-3c-16.72,0.02-33.43,0.05-50.15,0.07
				C497.96,231.25,497.96,234.25,499.89,234.25L499.89,234.25z"/>
		</g>
	</g>
	<g>
		<g>
			<path class="st0" d="M500,284.13c16.68,0.05,33.37,0.1,50.05,0.15c1.93,0.01,1.93-2.99,0-3c-16.68-0.05-33.37-0.1-50.05-0.15
				C498.07,281.13,498.06,284.13,500,284.13L500,284.13z"/>
		</g>
	</g>
	<g>
		<g>
			<path class="st0" d="M599.92,234.32c16.68,0.05,33.37,0.1,50.05,0.15c1.93,0.01,1.93-2.99,0-3c-16.68-0.05-33.37-0.1-50.05-0.15
				C597.99,231.32,597.99,234.32,599.92,234.32L599.92,234.32z"/>
		</g>
	</g>
	<g>
		<g>
			<path class="st0" d="M599.86,284.39c16.68,0.05,33.37,0.1,50.05,0.15c1.93,0.01,1.93-2.99,0-3c-16.68-0.05-33.37-0.1-50.05-0.15
				C597.93,281.39,597.92,284.39,599.86,284.39L599.86,284.39z"/>
		</g>
	</g>
	<g>
		<g>
			<path class="st0" d="M699.89,235.36c16.68,0.05,33.37,0.1,50.05,0.15c1.93,0.01,1.93-2.99,0-3c-16.68-0.05-33.37-0.1-50.05-0.15
				C697.96,232.35,697.96,235.35,699.89,235.36L699.89,235.36z"/>
		</g>
	</g>
	<g>
		<g>
			<path class="st0" d="M699.83,285.43c16.68,0.05,33.37,0.1,50.05,0.15c1.93,0.01,1.93-2.99,0-3c-16.68-0.05-33.37-0.1-50.05-0.15
				C697.89,282.42,697.89,285.42,699.83,285.43L699.83,285.43z"/>
		</g>
	</g>
	<g>
		<g>
			<path class="st0" d="M799.89,235.36c16.68,0.05,33.37,0.1,50.05,0.15c1.93,0.01,1.93-2.99,0-3c-16.68-0.05-33.37-0.1-50.05-0.15
				C797.96,232.35,797.96,235.35,799.89,235.36L799.89,235.36z"/>
		</g>
	</g>
	<g>
		<g>
			<path class="st0" d="M799.83,285.43c16.68,0.05,33.37,0.1,50.05,0.15c1.93,0.01,1.93-2.99,0-3c-16.68-0.05-33.37-0.1-50.05-0.15
				C797.89,282.42,797.89,285.42,799.83,285.43L799.83,285.43z"/>
		</g>
	</g>
</g>
<g id="Слой_1__x28_копия9_x29_">
	<g>
		<g>
			<path class="st1" d="M98.85,231.57c0.03,16.63,0.07,33.26,0.1,49.88c0,1.93,3,1.93,3,0c-0.03-16.63-0.07-33.26-0.1-49.88
				C101.85,229.64,98.85,229.64,98.85,231.57L98.85,231.57z"/>
		</g>
	</g>
	<g>
		<g>
			<path class="st1" d="M148.9,231.72c0.03,16.63,0.07,33.26,0.1,49.88c0,1.93,3,1.93,3,0c-0.03-16.63-0.07-33.26-0.1-49.88
				C151.9,229.79,148.9,229.79,148.9,231.72L148.9,231.72z"/>
		</g>
	</g>
	<g>
		<g>
			<path class="st1" d="M198.88,231.65c0.03,16.63,0.07,33.26,0.1,49.88c0,1.93,3,1.93,3,0c-0.03-16.63-0.07-33.26-0.1-49.88
				C201.87,229.72,198.87,229.71,198.88,231.65L198.88,231.65z"/>
		</g>
	</g>
	<g>
		<g>
			<path class="st1" d="M248.93,231.79c0.03,16.63,0.07,33.26,0.1,49.88c0,1.93,3,1.93,3,0c-0.03-16.63-0.07-33.26-0.1-49.88
				C251.93,229.86,248.93,229.86,248.93,231.79L248.93,231.79z"/>
		</g>
	</g>
	<g>
		<g>
			<path class="st1" d="M298.77,232.5c0.03,16.63,0.07,33.26,0.1,49.88c0,1.93,3,1.93,3,0c-0.03-16.63-0.07-33.26-0.1-49.88
				C301.77,230.57,298.77,230.57,298.77,232.5L298.77,232.5z"/>
		</g>
	</g>
	<g>
		<g>
			<path class="st1" d="M348.82,232.65c0.03,16.63,0.07,33.26,0.1,49.88c0,1.93,3,1.93,3,0c-0.03-16.63-0.07-33.26-0.1-49.88
				C351.82,230.72,348.82,230.71,348.82,232.65L348.82,232.65z"/>
		</g>
	</g>
	<g>
		<g>
			<path class="st1" d="M398.8,232.58c0.03,16.63,0.07,33.26,0.1,49.88c0,1.93,3,1.93,3,0c-0.03-16.63-0.07-33.26-0.1-49.88
				C401.79,230.64,398.79,230.64,398.8,232.58L398.8,232.58z"/>
		</g>
	</g>
	<g>
		<g>
			<path class="st1" d="M448.85,232.72c0.03,16.63,0.07,33.26,0.1,49.88c0,1.93,3,1.93,3,0c-0.03-16.63-0.07-33.26-0.1-49.88
				C451.85,230.79,448.85,230.79,448.85,232.72L448.85,232.72z"/>
		</g>
	</g>
	<g>
		<g>
			<path class="st1" d="M499.18,232.5c0.03,16.63,0.07,33.26,0.1,49.88c0,1.93,3,1.93,3,0c-0.03-16.63-0.07-33.26-0.1-49.88
				C502.17,230.57,499.17,230.57,499.18,232.5L499.18,232.5z"/>
		</g>
	</g>
	<g>
		<g>
			<path class="st1" d="M549.23,232.65c0.03,16.63,0.07,33.26,0.1,49.88c0,1.93,3,1.93,3,0c-0.03-16.63-0.07-33.26-0.1-49.88
				C552.22,230.72,549.22,230.71,549.23,232.65L549.23,232.65z"/>
		</g>
	</g>
	<g>
		<g>
			<path class="st1" d="M599.2,232.58c0.03,16.63,0.07,33.26,0.1,49.88c0,1.93,3,1.93,3,0c-0.03-16.63-0.07-33.26-0.1-49.88
				C602.2,230.64,599.2,230.64,599.2,232.58L599.2,232.58z"/>
		</g>
	</g>
	<g>
		<g>
			<path class="st1" d="M649.26,232.72c0.03,16.63,0.07,33.26,0.1,49.88c0,1.93,3,1.93,3,0c-0.03-16.63-0.07-33.26-0.1-49.88
				C652.25,230.79,649.25,230.79,649.26,232.72L649.26,232.72z"/>
		</g>
	</g>
	<g>
		<g>
			<path class="st1" d="M698.52,233.33c0.03,16.63,0.07,33.26,0.1,49.88c0,1.93,3,1.93,3,0c-0.03-16.63-0.07-33.26-0.1-49.88
				C701.51,231.4,698.51,231.4,698.52,233.33L698.52,233.33z"/>
		</g>
	</g>
	<g>
		<g>
			<path class="st1" d="M748.57,233.48c0.03,16.63,0.07,33.26,0.1,49.88c0,1.93,3,1.93,3,0c-0.03-16.63-0.07-33.26-0.1-49.88
				C751.57,231.55,748.57,231.54,748.57,233.48L748.57,233.48z"/>
		</g>
	</g>
	<g>
		<g>
			<path class="st1" d="M798.54,233.4c0.03,16.63,0.07,33.26,0.1,49.88c0,1.93,3,1.93,3,0c-0.03-16.63-0.07-33.26-0.1-49.88
				C801.54,231.47,798.54,231.47,798.54,233.4L798.54,233.4z"/>
		</g>
	</g>
	<g>
		<g>
			<path class="st1" d="M848.6,233.55c0.03,16.63,0.07,33.26,0.1,49.88c0,1.93,3,1.93,3,0c-0.03-16.63-0.07-33.26-0.1-49.88
				C851.59,231.62,848.59,231.62,848.6,233.55L848.6,233.55z"/>
		</g>
	</g>
</g>
<g id="Слой_1__x28_копия8_x29_">
	<g>
		<g>
			<path class="st2" d="M99.29,230.51c-5,4.36-8.74,10.42-10.53,16.78c-2.72,9.64-0.87,20.09,4.71,28.36
				c1.57,2.32,3.38,4.53,5.47,6.41c1.43,1.28,3.56-0.83,2.12-2.12c-4.49-4.02-7.81-9.48-9.43-15.26c-2.56-9.12-0.6-18.84,4.83-26.52
				c1.43-2.02,3.09-3.9,4.96-5.52C102.87,231.37,100.74,229.25,99.29,230.51L99.29,230.51z"/>
		</g>
	</g>
	<g>
		<g>
			<path class="st2" d="M149.34,232.78c11.69,14.59,24.67,28.13,38.78,40.39c3.7,3.22,7.48,6.34,11.32,9.39
				c1.5,1.19,3.64-0.92,2.12-2.12c-14.61-11.56-28.19-24.4-40.51-38.37c-3.29-3.73-6.48-7.53-9.59-11.41
				C150.26,229.15,148.15,231.29,149.34,232.78L149.34,232.78z"/>
		</g>
	</g>
	<g>
		<g>
			<path class="st2" d="M251.49,232.85C251.49,232.85,251.49,232.85,251.49,232.85c-0.49,0.13-0.97,0.26-1.46,0.38
				c-0.13-0.02-0.75-0.53-0.52-0.27c0.09,0.11,0.22,0.2,0.32,0.3c0.37,0.35,0.73,0.71,1.09,1.07c1.24,1.23,2.47,2.46,3.7,3.7
				c4,4.02,7.98,8.06,11.96,12.1c8.93,9.06,17.85,18.14,26.76,27.22c2.03,2.07,4.06,4.14,6.09,6.21c1.35,1.38,3.47-0.74,2.12-2.12
				c-5.77-5.89-11.55-11.78-17.34-17.66c-9.01-9.17-18.02-18.34-27.08-27.46c-1.43-1.44-2.85-2.87-4.29-4.29
				c-0.88-0.87-2.15-2.53-3.48-1.29C247.95,232.05,250.08,234.17,251.49,232.85L251.49,232.85z"/>
		</g>
	</g>
	<g>
		<g>
			<path class="st2" d="M350.5,234c1.51,0.01,3.02,0.51,4.45,1.3c1.76,0.98,3.31,2.29,4.74,3.7c3.71,3.62,6.76,7.88,9.7,12.13
				c3.29,4.75,6.41,9.62,9.7,14.37c2.98,4.29,6.07,8.61,9.78,12.31c3.1,3.1,7.03,6.15,11.63,6.19c1.93,0.02,1.93-2.98,0-3
				c-1.51-0.01-3.02-0.51-4.45-1.3c-1.76-0.98-3.31-2.29-4.74-3.7c-3.71-3.62-6.76-7.88-9.7-12.13c-3.29-4.75-6.41-9.62-9.7-14.37
				c-2.98-4.29-6.07-8.61-9.78-12.31c-3.1-3.1-7.03-6.15-11.63-6.19C348.57,230.98,348.57,233.98,350.5,234L350.5,234z"/>
		</g>
	</g>
	<g>
		<g>
			<path class="st2" d="M401.56,233.56c3.79-4.02,9.13-6.37,14.29-8.07c6.81-2.25,13.95-3.5,21.08-4.19
				c15.12-1.46,31.05-0.86,45.7,3.4c5.95,1.73,12.29,4.17,16.65,8.74c1.34,1.4,3.45-0.72,2.12-2.12c-4.07-4.26-9.72-6.81-15.22-8.65
				c-7.13-2.39-14.63-3.65-22.09-4.37c-8.14-0.78-16.36-0.85-24.52-0.22c-7.62,0.58-15.28,1.73-22.61,3.92
				c-6.28,1.88-12.93,4.58-17.52,9.45C398.12,232.84,400.23,234.97,401.56,233.56L401.56,233.56z"/>
		</g>
	</g>
	<g>
		<g>
			<path class="st2" d="M550.4,234.02c16.66-0.02,33.32-0.05,49.97-0.07c1.93,0,1.93-3,0-3c-16.66,0.02-33.32,0.05-49.97,0.07
				C548.47,231.03,548.46,234.03,550.4,234.02L550.4,234.02z"/>
		</g>
	</g>
	<g>
		<g>
			<path class="st2" d="M650.42,234.1c16.63,0.14,33.27,0.28,49.9,0.41c1.93,0.02,1.93-2.98,0-3c-16.63-0.14-33.27-0.28-49.9-0.41
				C648.49,231.08,648.49,234.08,650.42,234.1L650.42,234.1z"/>
		</g>
	</g>
	<g>
		<g>
			<path class="st2" d="M800.35,231.58c-16.78-0.03-33.57-0.05-50.35-0.08c-1.93,0-1.93,3,0,3c16.78,0.03,33.57,0.05,50.35,0.08
				C802.28,234.59,802.29,231.59,800.35,231.58L800.35,231.58z"/>
		</g>
	</g>
	<g>
		<g>
			<path class="st2" d="M849.35,234.29c4.11,4.06,7.18,9.28,8.81,14.82c2.61,8.86,1.3,18.43-3.35,26.37
				c-1.37,2.33-2.98,4.51-4.86,6.46c-1.34,1.39,0.78,3.51,2.12,2.12c4.78-4.95,8.21-11.35,9.64-18.08
				c2.01-9.5,0.05-19.44-5.22-27.57c-1.45-2.24-3.12-4.37-5.02-6.24C850.09,230.81,847.97,232.93,849.35,234.29L849.35,234.29z"/>
		</g>
	</g>
	<g>
		<g>
			<path class="st2" d="M149.76,281.96c3.77,4.8,9.38,7.84,14.97,10.01c7,2.73,14.48,4.14,21.92,4.93
				c8.16,0.87,16.42,0.9,24.59,0.17c7.65-0.68,15.31-1.98,22.62-4.36c6.4-2.09,13.1-5.05,17.69-10.15c1.29-1.43-0.82-3.56-2.12-2.12
				c-3.78,4.19-9.12,6.8-14.36,8.69c-6.87,2.48-14.12,3.91-21.37,4.7c-14.99,1.64-30.97,1.07-45.37-3.74
				c-6.13-2.04-12.39-5.07-16.46-10.26C150.69,278.32,148.58,280.45,149.76,281.96L149.76,281.96z"/>
		</g>
	</g>
	<g>
		<g>
			<path class="st2" d="M302,232.5c-0.04-5.95-5.47-9.79-10.35-12.03c-7.63-3.51-16.13-4.99-24.42-5.92
				c-9.68-1.08-19.49-1.21-29.2-0.48c-8.61,0.65-17.44,1.85-25.59,4.83c-5.09,1.86-11.67,4.92-13.16,10.72
				c-0.16,0.61-0.24,1.25-0.27,1.88c-0.1,1.93,2.9,1.92,3,0c0.01-0.13,0.01-0.25,0.03-0.38c0.04-0.39-0.04,0.2,0.01-0.08
				c0.05-0.26,0.1-0.52,0.17-0.78c0.07-0.24,0.15-0.48,0.24-0.71c-0.1,0.26,0.13-0.28,0.23-0.48c0.12-0.23,0.25-0.45,0.39-0.67
				c0.08-0.13,0.17-0.25,0.26-0.38c0.2-0.29,0-0.01,0.12-0.16c0.37-0.46,0.77-0.89,1.2-1.29c0.96-0.9,1.74-1.44,3.01-2.19
				c1.28-0.76,2.8-1.49,4.03-1.99c7.39-3.01,15.49-4.31,23.39-5.07c9.34-0.9,18.8-0.94,28.15-0.16c8.2,0.68,16.55,1.94,24.29,4.82
				c1.5,0.56,2.82,1.13,4.29,1.9c0.65,0.35,1.29,0.71,1.92,1.11c0.28,0.18,0.57,0.37,0.84,0.56c0.13,0.09,0.27,0.19,0.4,0.29
				c0.25,0.19,0.1,0.07,0.24,0.19c0.51,0.41,1,0.85,1.46,1.32c0.2,0.21,0.39,0.42,0.58,0.64c0.32,0.36,0.09,0.06,0.39,0.5
				c0.31,0.46,0.59,0.93,0.83,1.43c0.13,0.26,0.05,0.1,0.05,0.1c0.05,0.12,0.09,0.24,0.13,0.36c0.08,0.26,0.16,0.53,0.22,0.79
				c0.03,0.13,0.05,0.25,0.08,0.38c0.06,0.3,0.01,0.08,0.02,0.09c0.03,0.28,0.04,0.56,0.04,0.84
				C299.01,234.43,302.01,234.43,302,232.5L302,232.5z"/>
		</g>
	</g>
	<g>
		<g>
			<path class="st2" d="M349.44,283.56c4.08,3.91,9.76,6.02,15.08,7.58c7.32,2.15,14.95,3.27,22.54,3.94
				c8.28,0.73,16.63,0.84,24.93,0.34c7.63-0.46,15.31-1.4,22.71-3.35c5.93-1.56,12.62-3.82,16.85-8.51
				c1.29-1.43-0.82-3.56-2.12-2.12c-3.38,3.74-8.63,5.73-13.47,7.17c-6.94,2.06-14.17,3.08-21.38,3.64
				c-15.43,1.19-31.55,0.58-46.59-3.26c-5.7-1.46-12.21-3.49-16.44-7.54C350.17,280.1,348.04,282.22,349.44,283.56L349.44,283.56z"
				/>
		</g>
	</g>
	<g>
		<g>
			<path class="st2" d="M450.5,234c1.5,0.01,3.04,0.5,4.45,1.28c1.76,0.96,3.32,2.24,4.76,3.62c3.71,3.55,6.8,7.72,9.77,11.89
				c3.31,4.66,6.46,9.44,9.78,14.09c3.02,4.25,6.17,8.51,9.92,12.15c3.12,3.03,7.03,5.97,11.58,6.01c1.93,0.02,1.93-2.98,0-3
				c-1.5-0.01-3.04-0.5-4.45-1.28c-1.76-0.96-3.32-2.24-4.76-3.62c-3.71-3.55-6.8-7.72-9.77-11.89c-3.31-4.66-6.46-9.44-9.78-14.09
				c-3.02-4.25-6.17-8.51-9.92-12.15c-3.12-3.03-7.03-5.97-11.58-6.01C448.57,230.98,448.57,233.98,450.5,234L450.5,234z"/>
		</g>
	</g>
	<g>
		<g>
			<path class="st2" d="M550.81,283.2c16.66-0.02,33.32-0.05,49.97-0.07c1.93,0,1.93-3,0-3c-16.66,0.02-33.32,0.05-49.97,0.07
				C548.88,280.2,548.88,283.2,550.81,283.2L550.81,283.2z"/>
		</g>
	</g>
	<g>
		<g>
			<path class="st2" d="M650.84,283.27c16.63,0.14,33.27,0.28,49.9,0.41c1.93,0.02,1.93-2.98,0-3c-16.63-0.14-33.27-0.28-49.9-0.41
				C648.91,280.26,648.9,283.26,650.84,283.27L650.84,283.27z"/>
		</g>
	</g>
	<g>
		<g>
			<path class="st2" d="M800.77,280.76c-16.78-0.03-33.57-0.05-50.35-0.08c-1.93,0-1.93,3,0,3c16.78,0.03,33.57,0.05,50.35,0.08
				C802.7,283.76,802.7,280.76,800.77,280.76L800.77,280.76z"/>
		</g>
	</g>
</g>
<g id="Слой_1__x28_копия7_x29_">
	<g>
		<g>
			<path class="st3" d="M100.35,234.57c3.86,0,3.87-6,0-6C96.49,228.57,96.48,234.57,100.35,234.57L100.35,234.57z"/>
		</g>
	</g>
	<g>
		<g>
			<path class="st3" d="M100.45,284.46c3.86,0,3.87-6,0-6C96.59,278.46,96.58,284.46,100.45,284.46L100.45,284.46z"/>
		</g>
	</g>
	<g>
		<g>
			<path class="st3" d="M150.4,234.72c3.86,0,3.87-6,0-6C146.54,228.72,146.54,234.72,150.4,234.72L150.4,234.72z"/>
		</g>
	</g>
	<g>
		<g>
			<path class="st3" d="M150.51,284.6c3.86,0,3.87-6,0-6C146.64,278.6,146.64,284.6,150.51,284.6L150.51,284.6z"/>
		</g>
	</g>
	<g>
		<g>
			<path class="st3" d="M200.38,234.65c3.86,0,3.87-6,0-6C196.52,228.65,196.51,234.65,200.38,234.65L200.38,234.65z"/>
		</g>
	</g>
	<g>
		<g>
			<path class="st3" d="M200.48,284.53c3.86,0,3.87-6,0-6C196.62,278.53,196.61,284.53,200.48,284.53L200.48,284.53z"/>
		</g>
	</g>
	<g>
		<g>
			<path class="st3" d="M250.43,234.79c3.86,0,3.87-6,0-6C246.57,228.79,246.56,234.79,250.43,234.79L250.43,234.79z"/>
		</g>
	</g>
	<g>
		<g>
			<path class="st3" d="M250.53,284.68c3.86,0,3.87-6,0-6C246.67,278.68,246.67,284.68,250.53,284.68L250.53,284.68z"/>
		</g>
	</g>
	<g>
		<g>
			<path class="st3" d="M300.33,235.2c3.86,0,3.87-6,0-6C296.47,229.2,296.47,235.2,300.33,235.2L300.33,235.2z"/>
		</g>
	</g>
	<g>
		<g>
			<path class="st3" d="M300.44,285.09c3.86,0,3.87-6,0-6C296.58,279.09,296.57,285.09,300.44,285.09L300.44,285.09z"/>
		</g>
	</g>
	<g>
		<g>
			<path class="st3" d="M350.39,235.35c3.86,0,3.87-6,0-6C346.53,229.35,346.52,235.35,350.39,235.35L350.39,235.35z"/>
		</g>
	</g>
	<g>
		<g>
			<path class="st3" d="M350.49,285.23c3.86,0,3.87-6,0-6C346.63,279.23,346.62,285.23,350.49,285.23L350.49,285.23z"/>
		</g>
	</g>
	<g>
		<g>
			<path class="st3" d="M400.36,235.28c3.86,0,3.87-6,0-6C396.5,229.28,396.49,235.28,400.36,235.28L400.36,235.28z"/>
		</g>
	</g>
	<g>
		<g>
			<path class="st3" d="M400.46,285.16c3.86,0,3.87-6,0-6C396.6,279.16,396.6,285.16,400.46,285.16L400.46,285.16z"/>
		</g>
	</g>
	<g>
		<g>
			<path class="st3" d="M450.42,235.42c3.86,0,3.87-6,0-6C446.55,229.42,446.55,235.42,450.42,235.42L450.42,235.42z"/>
		</g>
	</g>
	<g>
		<g>
			<path class="st3" d="M450.52,285.31c3.86,0,3.87-6,0-6C446.66,279.31,446.65,285.31,450.52,285.31L450.52,285.31z"/>
		</g>
	</g>
	<g>
		<g>
			<path class="st3" d="M500.34,235.38c3.86,0,3.87-6,0-6C496.48,229.38,496.48,235.38,500.34,235.38L500.34,235.38z"/>
		</g>
	</g>
	<g>
		<g>
			<path class="st3" d="M500.44,285.26c3.86,0,3.87-6,0-6C496.58,279.26,496.58,285.26,500.44,285.26L500.44,285.26z"/>
		</g>
	</g>
	<g>
		<g>
			<path class="st3" d="M550.4,235.52c3.86,0,3.87-6,0-6C546.54,229.52,546.53,235.52,550.4,235.52L550.4,235.52z"/>
		</g>
	</g>
	<g>
		<g>
			<path class="st3" d="M550.5,285.41c3.86,0,3.87-6,0-6C546.64,279.41,546.63,285.41,550.5,285.41L550.5,285.41z"/>
		</g>
	</g>
	<g>
		<g>
			<path class="st3" d="M600.37,235.45c3.86,0,3.87-6,0-6C596.51,229.45,596.5,235.45,600.37,235.45L600.37,235.45z"/>
		</g>
	</g>
	<g>
		<g>
			<path class="st3" d="M600.47,285.33c3.86,0,3.87-6,0-6C596.61,279.33,596.6,285.33,600.47,285.33L600.47,285.33z"/>
		</g>
	</g>
	<g>
		<g>
			<path class="st3" d="M650.42,235.6c3.86,0,3.87-6,0-6C646.56,229.6,646.56,235.6,650.42,235.6L650.42,235.6z"/>
		</g>
	</g>
	<g>
		<g>
			<path class="st3" d="M650.52,285.48c3.86,0,3.87-6,0-6C646.66,279.48,646.66,285.48,650.52,285.48L650.52,285.48z"/>
		</g>
	</g>
	<g>
		<g>
			<path class="st3" d="M700.33,236.01c3.86,0,3.87-6,0-6C696.47,230.01,696.46,236.01,700.33,236.01L700.33,236.01z"/>
		</g>
	</g>
	<g>
		<g>
			<path class="st3" d="M700.43,285.89c3.86,0,3.87-6,0-6C696.57,279.89,696.56,285.89,700.43,285.89L700.43,285.89z"/>
		</g>
	</g>
	<g>
		<g>
			<path class="st3" d="M750.38,236.15c3.86,0,3.87-6,0-6C746.52,230.15,746.51,236.15,750.38,236.15L750.38,236.15z"/>
		</g>
	</g>
	<g>
		<g>
			<path class="st3" d="M750.48,286.04c3.86,0,3.87-6,0-6C746.62,280.04,746.61,286.04,750.48,286.04L750.48,286.04z"/>
		</g>
	</g>
	<g>
		<g>
			<path class="st3" d="M800.35,236.08c3.86,0,3.87-6,0-6C796.49,230.08,796.49,236.08,800.35,236.08L800.35,236.08z"/>
		</g>
	</g>
	<g>
		<g>
			<path class="st3" d="M800.45,285.97c3.86,0,3.87-6,0-6C796.59,279.97,796.59,285.97,800.45,285.97L800.45,285.97z"/>
		</g>
	</g>
	<g>
		<g>
			<path class="st3" d="M850.41,236.23c3.86,0,3.87-6,0-6C846.55,230.23,846.54,236.23,850.41,236.23L850.41,236.23z"/>
		</g>
	</g>
	<g>
		<g>
			<path class="st3" d="M850.51,286.11c3.86,0,3.87-6,0-6C846.65,280.11,846.64,286.11,850.51,286.11L850.51,286.11z"/>
		</g>
	</g>
</g>
<g id="Слой_1_копия_4">
	<g>
		<g>
			<path class="st0" d="M100.35,433.07c16.72-0.02,33.43-0.05,50.15-0.07c1.93,0,1.93-3,0-3c-16.72,0.02-33.43,0.05-50.15,0.07
				C98.42,430.08,98.42,433.08,100.35,433.07L100.35,433.07z"/>
		</g>
	</g>
	<g>
		<g>
			<path class="st0" d="M100.45,482.96c16.68,0.05,33.37,0.1,50.05,0.15c1.93,0.01,1.93-2.99,0-3c-16.68-0.05-33.37-0.1-50.05-0.15
				C98.52,479.95,98.52,482.95,100.45,482.96L100.45,482.96z"/>
		</g>
	</g>
	<g>
		<g>
			<path class="st0" d="M200.38,433.15c16.68,0.05,33.37,0.1,50.05,0.15c1.93,0.01,1.93-2.99,0-3c-16.68-0.05-33.37-0.1-50.05-0.15
				C198.45,430.14,198.44,433.14,200.38,433.15L200.38,433.15z"/>
		</g>
	</g>
	<g>
		<g>
			<path class="st0" d="M200.31,483.22c16.68,0.05,33.37,0.1,50.05,0.15c1.93,0.01,1.93-2.99,0-3c-16.68-0.05-33.37-0.1-50.05-0.15
				C198.38,480.21,198.38,483.21,200.31,483.22L200.31,483.22z"/>
		</g>
	</g>
	<g>
		<g>
			<path class="st0" d="M300.35,434.18c16.68,0.05,33.37,0.1,50.05,0.15c1.93,0.01,1.93-2.99,0-3c-16.68-0.05-33.37-0.1-50.05-0.15
				C298.41,431.18,298.41,434.18,300.35,434.18L300.35,434.18z"/>
		</g>
	</g>
	<g>
		<g>
			<path class="st0" d="M300.28,484.25c16.68,0.05,33.37,0.1,50.05,0.15c1.93,0.01,1.93-2.99,0-3c-16.68-0.05-33.37-0.1-50.05-0.15
				C298.35,481.24,298.35,484.24,300.28,484.25L300.28,484.25z"/>
		</g>
	</g>
	<g>
		<g>
			<path class="st0" d="M400.35,434.18c16.68,0.05,33.37,0.1,50.05,0.15c1.93,0.01,1.93-2.99,0-3c-16.68-0.05-33.37-0.1-50.05-0.15
				C398.41,431.18,398.41,434.18,400.35,434.18L400.35,434.18z"/>
		</g>
	</g>
	<g>
		<g>
			<path class="st0" d="M400.28,484.25c16.68,0.05,33.37,0.1,50.05,0.15c1.93,0.01,1.93-2.99,0-3c-16.68-0.05-33.37-0.1-50.05-0.15
				C398.35,481.24,398.35,484.24,400.28,484.25L400.28,484.25z"/>
		</g>
	</g>
	<g>
		<g>
			<path class="st0" d="M499.89,434.25c16.72-0.02,33.43-0.05,50.15-0.07c1.93,0,1.93-3,0-3c-16.72,0.02-33.43,0.05-50.15,0.07
				C497.96,431.25,497.96,434.25,499.89,434.25L499.89,434.25z"/>
		</g>
	</g>
	<g>
		<g>
			<path class="st0" d="M500,484.13c16.68,0.05,33.37,0.1,50.05,0.15c1.93,0.01,1.93-2.99,0-3c-16.68-0.05-33.37-0.1-50.05-0.15
				C498.07,481.13,498.06,484.13,500,484.13L500,484.13z"/>
		</g>
	</g>
	<g>
		<g>
			<path class="st0" d="M599.92,434.32c16.68,0.05,33.37,0.1,50.05,0.15c1.93,0.01,1.93-2.99,0-3c-16.68-0.05-33.37-0.1-50.05-0.15
				C597.99,431.32,597.99,434.32,599.92,434.32L599.92,434.32z"/>
		</g>
	</g>
	<g>
		<g>
			<path class="st0" d="M599.86,484.39c16.68,0.05,33.37,0.1,50.05,0.15c1.93,0.01,1.93-2.99,0-3c-16.68-0.05-33.37-0.1-50.05-0.15
				C597.93,481.39,597.92,484.39,599.86,484.39L599.86,484.39z"/>
		</g>
	</g>
	<g>
		<g>
			<path class="st0" d="M699.89,435.36c16.68,0.05,33.37,0.1,50.05,0.15c1.93,0.01,1.93-2.99,0-3c-16.68-0.05-33.37-0.1-50.05-0.15
				C697.96,432.35,697.96,435.35,699.89,435.36L699.89,435.36z"/>
		</g>
	</g>
	<g>
		<g>
			<path class="st0" d="M699.83,485.43c16.68,0.05,33.37,0.1,50.05,0.15c1.93,0.01,1.93-2.99,0-3c-16.68-0.05-33.37-0.1-50.05-0.15
				C697.89,482.42,697.89,485.42,699.83,485.43L699.83,485.43z"/>
		</g>
	</g>
	<g>
		<g>
			<path class="st0" d="M799.89,435.36c16.68,0.05,33.37,0.1,50.05,0.15c1.93,0.01,1.93-2.99,0-3c-16.68-0.05-33.37-0.1-50.05-0.15
				C797.96,432.35,797.96,435.35,799.89,435.36L799.89,435.36z"/>
		</g>
	</g>
	<g>
		<g>
			<path class="st0" d="M799.83,485.43c16.68,0.05,33.37,0.1,50.05,0.15c1.93,0.01,1.93-2.99,0-3c-16.68-0.05-33.37-0.1-50.05-0.15
				C797.89,482.42,797.89,485.42,799.83,485.43L799.83,485.43z"/>
		</g>
	</g>
</g>
<g id="Слой_1__x28_копия12_x29_">
	<g>
		<g>
			<path class="st1" d="M98.85,431.57c0.03,16.63,0.07,33.26,0.1,49.88c0,1.93,3,1.93,3,0c-0.03-16.63-0.07-33.26-0.1-49.88
				C101.85,429.64,98.85,429.64,98.85,431.57L98.85,431.57z"/>
		</g>
	</g>
	<g>
		<g>
			<path class="st1" d="M148.9,431.72c0.03,16.63,0.07,33.26,0.1,49.88c0,1.93,3,1.93,3,0c-0.03-16.63-0.07-33.26-0.1-49.88
				C151.9,429.79,148.9,429.79,148.9,431.72L148.9,431.72z"/>
		</g>
	</g>
	<g>
		<g>
			<path class="st1" d="M198.88,431.65c0.03,16.63,0.07,33.26,0.1,49.88c0,1.93,3,1.93,3,0c-0.03-16.63-0.07-33.26-0.1-49.88
				C201.87,429.72,198.87,429.71,198.88,431.65L198.88,431.65z"/>
		</g>
	</g>
	<g>
		<g>
			<path class="st1" d="M248.93,431.79c0.03,16.63,0.07,33.26,0.1,49.88c0,1.93,3,1.93,3,0c-0.03-16.63-0.07-33.26-0.1-49.88
				C251.93,429.86,248.93,429.86,248.93,431.79L248.93,431.79z"/>
		</g>
	</g>
	<g>
		<g>
			<path class="st1" d="M298.77,432.5c0.03,16.63,0.07,33.26,0.1,49.88c0,1.93,3,1.93,3,0c-0.03-16.63-0.07-33.26-0.1-49.88
				C301.77,430.57,298.77,430.57,298.77,432.5L298.77,432.5z"/>
		</g>
	</g>
	<g>
		<g>
			<path class="st1" d="M348.82,432.65c0.03,16.63,0.07,33.26,0.1,49.88c0,1.93,3,1.93,3,0c-0.03-16.63-0.07-33.26-0.1-49.88
				C351.82,430.72,348.82,430.71,348.82,432.65L348.82,432.65z"/>
		</g>
	</g>
	<g>
		<g>
			<path class="st1" d="M398.8,432.58c0.03,16.63,0.07,33.26,0.1,49.88c0,1.93,3,1.93,3,0c-0.03-16.63-0.07-33.26-0.1-49.88
				C401.79,430.64,398.79,430.64,398.8,432.58L398.8,432.58z"/>
		</g>
	</g>
	<g>
		<g>
			<path class="st1" d="M448.85,432.72c0.03,16.63,0.07,33.26,0.1,49.88c0,1.93,3,1.93,3,0c-0.03-16.63-0.07-33.26-0.1-49.88
				C451.85,430.79,448.85,430.79,448.85,432.72L448.85,432.72z"/>
		</g>
	</g>
	<g>
		<g>
			<path class="st1" d="M499.18,432.5c0.03,16.63,0.07,33.26,0.1,49.88c0,1.93,3,1.93,3,0c-0.03-16.63-0.07-33.26-0.1-49.88
				C502.17,430.57,499.17,430.57,499.18,432.5L499.18,432.5z"/>
		</g>
	</g>
	<g>
		<g>
			<path class="st1" d="M549.23,432.65c0.03,16.63,0.07,33.26,0.1,49.88c0,1.93,3,1.93,3,0c-0.03-16.63-0.07-33.26-0.1-49.88
				C552.22,430.72,549.22,430.71,549.23,432.65L549.23,432.65z"/>
		</g>
	</g>
	<g>
		<g>
			<path class="st1" d="M599.2,432.58c0.03,16.63,0.07,33.26,0.1,49.88c0,1.93,3,1.93,3,0c-0.03-16.63-0.07-33.26-0.1-49.88
				C602.2,430.64,599.2,430.64,599.2,432.58L599.2,432.58z"/>
		</g>
	</g>
	<g>
		<g>
			<path class="st1" d="M649.26,432.72c0.03,16.63,0.07,33.26,0.1,49.88c0,1.93,3,1.93,3,0c-0.03-16.63-0.07-33.26-0.1-49.88
				C652.25,430.79,649.25,430.79,649.26,432.72L649.26,432.72z"/>
		</g>
	</g>
	<g>
		<g>
			<path class="st1" d="M698.52,433.33c0.03,16.63,0.07,33.26,0.1,49.88c0,1.93,3,1.93,3,0c-0.03-16.63-0.07-33.26-0.1-49.88
				C701.51,431.4,698.51,431.4,698.52,433.33L698.52,433.33z"/>
		</g>
	</g>
	<g>
		<g>
			<path class="st1" d="M748.57,433.48c0.03,16.63,0.07,33.26,0.1,49.88c0,1.93,3,1.93,3,0c-0.03-16.63-0.07-33.26-0.1-49.88
				C751.57,431.55,748.57,431.54,748.57,433.48L748.57,433.48z"/>
		</g>
	</g>
	<g>
		<g>
			<path class="st1" d="M798.54,433.4c0.03,16.63,0.07,33.26,0.1,49.88c0,1.93,3,1.93,3,0c-0.03-16.63-0.07-33.26-0.1-49.88
				C801.54,431.47,798.54,431.47,798.54,433.4L798.54,433.4z"/>
		</g>
	</g>
	<g>
		<g>
			<path class="st1" d="M848.6,433.55c0.03,16.63,0.07,33.26,0.1,49.88c0,1.93,3,1.93,3,0c-0.03-16.63-0.07-33.26-0.1-49.88
				C851.59,431.62,848.59,431.62,848.6,433.55L848.6,433.55z"/>
		</g>
	</g>
</g>
<g id="Слой_1__x28_копия11_x29_">
	<g>
		<g>
			<path class="st2" d="M99.29,430.51c-5,4.36-8.74,10.42-10.53,16.78c-2.72,9.64-0.87,20.09,4.71,28.36
				c1.57,2.32,3.38,4.53,5.47,6.41c1.43,1.28,3.56-0.83,2.12-2.12c-4.49-4.02-7.81-9.48-9.43-15.26c-2.56-9.12-0.6-18.84,4.83-26.52
				c1.43-2.02,3.09-3.9,4.96-5.52C102.87,431.36,100.74,429.25,99.29,430.51L99.29,430.51z"/>
		</g>
	</g>
	<g>
		<g>
			<path class="st2" d="M149.34,432.78c11.69,14.59,24.67,28.13,38.78,40.39c3.7,3.22,7.48,6.34,11.32,9.39
				c1.5,1.19,3.64-0.92,2.12-2.12c-14.61-11.56-28.19-24.4-40.51-38.37c-3.29-3.73-6.48-7.53-9.59-11.41
				C150.26,429.15,148.15,431.29,149.34,432.78L149.34,432.78z"/>
		</g>
	</g>
	<g>
		<g>
			<path class="st2" d="M251.49,432.85C251.49,432.85,251.49,432.85,251.49,432.85c-0.49,0.13-0.97,0.26-1.46,0.38
				c-0.13-0.02-0.75-0.53-0.52-0.27c0.09,0.11,0.22,0.2,0.32,0.3c0.37,0.35,0.73,0.71,1.09,1.07c1.24,1.23,2.47,2.46,3.7,3.7
				c4,4.02,7.98,8.06,11.96,12.1c8.93,9.06,17.85,18.14,26.76,27.22c2.03,2.07,4.06,4.14,6.09,6.21c1.35,1.38,3.47-0.74,2.12-2.12
				c-5.77-5.89-11.55-11.78-17.34-17.66c-9.01-9.17-18.02-18.34-27.08-27.46c-1.43-1.44-2.85-2.87-4.29-4.29
				c-0.88-0.87-2.15-2.53-3.48-1.29C247.95,432.05,250.08,434.17,251.49,432.85L251.49,432.85z"/>
		</g>
	</g>
	<g>
		<g>
			<path class="st2" d="M350.5,434c1.51,0.01,3.02,0.51,4.45,1.3c1.76,0.98,3.31,2.29,4.74,3.7c3.71,3.62,6.76,7.88,9.7,12.13
				c3.29,4.75,6.41,9.62,9.7,14.37c2.98,4.29,6.07,8.61,9.78,12.31c3.1,3.1,7.03,6.15,11.63,6.19c1.93,0.02,1.93-2.98,0-3
				c-1.51-0.01-3.02-0.51-4.45-1.3c-1.76-0.98-3.31-2.29-4.74-3.7c-3.71-3.62-6.76-7.88-9.7-12.13c-3.29-4.75-6.41-9.62-9.7-14.37
				c-2.98-4.29-6.07-8.61-9.78-12.31c-3.1-3.1-7.03-6.15-11.63-6.19C348.57,430.98,348.57,433.98,350.5,434L350.5,434z"/>
		</g>
	</g>
	<g>
		<g>
			<path class="st2" d="M401.56,433.56c3.79-4.02,9.13-6.37,14.29-8.07c6.81-2.25,13.95-3.5,21.08-4.19
				c15.12-1.46,31.05-0.86,45.7,3.4c5.95,1.73,12.29,4.17,16.65,8.74c1.34,1.4,3.45-0.72,2.12-2.12c-4.07-4.26-9.72-6.81-15.22-8.65
				c-7.13-2.39-14.63-3.65-22.09-4.37c-8.14-0.78-16.36-0.85-24.52-0.22c-7.62,0.58-15.28,1.73-22.61,3.92
				c-6.28,1.88-12.93,4.58-17.52,9.45C398.12,432.84,400.23,434.97,401.56,433.56L401.56,433.56z"/>
		</g>
	</g>
	<g>
		<g>
			<path class="st2" d="M550.4,434.02c1.51,0.01,3.02,0.51,4.45,1.3c1.76,0.98,3.31,2.29,4.75,3.69c3.71,3.62,6.78,7.88,9.73,12.12
				c3.3,4.75,6.43,9.62,9.73,14.37c2.99,4.29,6.09,8.6,9.8,12.3c3.11,3.1,7.04,6.15,11.64,6.19c1.93,0.02,1.93-2.98,0-3
				c-1.51-0.01-3.02-0.51-4.45-1.3c-1.76-0.98-3.31-2.29-4.75-3.69c-3.71-3.62-6.78-7.88-9.73-12.12c-3.3-4.75-6.43-9.62-9.73-14.37
				c-2.99-4.29-6.09-8.6-9.8-12.3c-3.11-3.1-7.04-6.15-11.64-6.19C548.47,431.01,548.46,434.01,550.4,434.02L550.4,434.02z"/>
		</g>
	</g>
	<g>
		<g>
			<path class="st2" d="M601.56,433.56c3.78-4.08,9.13-6.48,14.32-8.2c6.81-2.26,13.96-3.49,21.09-4.14
				c15.13-1.39,31.08-0.64,45.68,3.81c5.97,1.82,12.28,4.37,16.61,9.05c1.31,1.42,3.43-0.71,2.12-2.12
				c-4.02-4.35-9.67-6.99-15.18-8.92c-7.11-2.49-14.6-3.83-22.07-4.62c-8.13-0.86-16.36-0.99-24.51-0.41
				c-7.63,0.54-15.29,1.66-22.63,3.86c-6.32,1.89-12.99,4.64-17.56,9.58C598.13,432.85,600.24,434.98,601.56,433.56L601.56,433.56z"
				/>
		</g>
	</g>
	<g>
		<g>
			<path class="st2" d="M849,483.5c0.01,0.17,0,0.33-0.01,0.49c-0.01,0.22,0.09-0.38,0.01-0.09c-0.03,0.1-0.05,0.21-0.08,0.31
				c-0.1,0.44,0.07-0.05-0.06,0.17c-0.09,0.16-0.19,0.32-0.29,0.49c-0.18,0.3,0.19-0.15-0.16,0.2c-0.15,0.15-0.3,0.31-0.45,0.46
				c-0.1,0.09-0.62,0.5-0.27,0.24c-0.21,0.16-0.43,0.31-0.66,0.46c-0.45,0.29-0.92,0.55-1.4,0.79c-0.25,0.13-0.51,0.25-0.77,0.36
				c-0.48,0.22-0.19,0.1-0.65,0.28c-1.35,0.53-2.73,0.97-4.13,1.35c-7.57,2.06-15.51,2.81-23.31,3.29
				c-9.52,0.59-19.08,0.6-28.6,0.08c-8.26-0.45-16.61-1.21-24.68-3.11c-1.58-0.37-3.15-0.79-4.69-1.29
				c-1.43-0.47-2.36-0.82-3.53-1.4c-0.5-0.25-0.99-0.51-1.47-0.81c-0.21-0.13-0.41-0.27-0.61-0.41c-0.13-0.09-0.29-0.22-0.06-0.03
				c-0.1-0.08-0.2-0.16-0.3-0.24c-0.16-0.14-0.32-0.28-0.47-0.43c-0.11-0.12-0.56-0.67-0.27-0.27c-0.11-0.15-0.21-0.3-0.31-0.46
				c-0.12-0.19-0.26-0.61-0.13-0.22c-0.05-0.16-0.09-0.33-0.15-0.49c-0.1-0.32,0,0.31-0.02-0.21c-0.08-1.92-3.08-1.93-3,0
				c0.2,5.05,7.02,7.16,10.93,8.3c7.98,2.34,16.44,3.22,24.71,3.81c9.87,0.71,19.8,0.82,29.68,0.34c8.54-0.41,17.22-1.14,25.54-3.17
				c2.85-0.69,5.76-1.56,8.35-2.98c1.76-0.97,3.62-2.39,4.15-4.44c0.11-0.44,0.17-0.92,0.14-1.37
				C851.89,481.58,848.89,481.57,849,483.5L849,483.5z"/>
		</g>
	</g>
	<g>
		<g>
			<path class="st2" d="M800.88,433.47c4.06-4.11,9.28-7.18,14.82-8.81c8.86-2.61,18.43-1.3,26.37,3.35
				c2.33,1.37,4.51,2.98,6.46,4.86c1.39,1.34,3.51-0.78,2.12-2.12c-4.95-4.78-11.35-8.21-18.08-9.64
				c-9.5-2.01-19.44-0.05-27.57,5.22c-2.24,1.45-4.37,3.12-6.24,5.02C797.4,432.73,799.52,434.85,800.88,433.47L800.88,433.47z"/>
		</g>
	</g>
	<g>
		<g>
			<path class="st2" d="M149.76,481.96c3.77,4.8,9.38,7.84,14.97,10.01c7,2.73,14.48,4.14,21.92,4.93
				c8.16,0.87,16.42,0.9,24.59,0.17c7.65-0.68,15.31-1.98,22.62-4.36c6.4-2.09,13.1-5.05,17.69-10.15c1.29-1.43-0.82-3.56-2.12-2.12
				c-3.78,4.19-9.12,6.8-14.36,8.69c-6.87,2.48-14.12,3.91-21.37,4.7c-14.99,1.64-30.97,1.07-45.37-3.74
				c-6.13-2.04-12.39-5.07-16.46-10.26C150.69,478.32,148.58,480.45,149.76,481.96L149.76,481.96z"/>
		</g>
	</g>
	<g>
		<g>
			<path class="st2" d="M302,432.5c-0.04-5.95-5.47-9.79-10.35-12.03c-7.63-3.51-16.13-4.99-24.42-5.92
				c-9.68-1.08-19.49-1.21-29.2-0.48c-8.61,0.65-17.44,1.85-25.59,4.83c-5.09,1.86-11.67,4.92-13.16,10.72
				c-0.16,0.61-0.24,1.25-0.27,1.88c-0.1,1.93,2.9,1.92,3,0c0.01-0.13,0.01-0.25,0.03-0.38c0.04-0.39-0.04,0.2,0.01-0.08
				c0.05-0.26,0.1-0.52,0.17-0.78c0.07-0.24,0.15-0.48,0.24-0.71c-0.1,0.26,0.13-0.28,0.23-0.48c0.12-0.23,0.25-0.45,0.39-0.67
				c0.08-0.13,0.17-0.25,0.26-0.38c0.2-0.29,0-0.01,0.12-0.16c0.37-0.46,0.77-0.89,1.2-1.29c0.96-0.9,1.74-1.44,3.01-2.19
				c1.28-0.76,2.8-1.49,4.03-1.99c7.39-3.01,15.49-4.31,23.39-5.07c9.34-0.9,18.8-0.94,28.15-0.16c8.2,0.68,16.55,1.94,24.29,4.82
				c1.5,0.56,2.82,1.13,4.29,1.9c0.65,0.35,1.29,0.71,1.92,1.11c0.28,0.18,0.57,0.37,0.84,0.56c0.13,0.09,0.27,0.19,0.4,0.29
				c0.25,0.19,0.1,0.07,0.24,0.19c0.51,0.41,1,0.85,1.46,1.32c0.2,0.21,0.39,0.42,0.58,0.64c0.32,0.36,0.09,0.06,0.39,0.5
				c0.31,0.46,0.59,0.93,0.83,1.43c0.13,0.26,0.05,0.1,0.05,0.1c0.05,0.12,0.09,0.24,0.13,0.36c0.08,0.26,0.16,0.53,0.22,0.79
				c0.03,0.13,0.05,0.25,0.08,0.38c0.06,0.3,0.01,0.08,0.02,0.09c0.03,0.28,0.04,0.56,0.04,0.84
				C299.01,434.43,302.01,434.43,302,432.5L302,432.5z"/>
		</g>
	</g>
	<g>
		<g>
			<path class="st2" d="M349.44,483.56c4.08,3.91,9.76,6.02,15.08,7.58c7.32,2.15,14.95,3.27,22.54,3.94
				c8.28,0.73,16.63,0.84,24.93,0.34c7.63-0.46,15.31-1.4,22.71-3.35c5.93-1.56,12.62-3.82,16.85-8.51
				c1.29-1.43-0.82-3.56-2.12-2.12c-3.38,3.74-8.63,5.73-13.47,7.17c-6.94,2.06-14.17,3.08-21.38,3.64
				c-15.43,1.19-31.55,0.58-46.59-3.26c-5.7-1.46-12.21-3.49-16.44-7.54C350.17,480.1,348.04,482.22,349.44,483.56L349.44,483.56z"
				/>
		</g>
	</g>
	<g>
		<g>
			<path class="st2" d="M450.5,434c1.5,0.01,3.04,0.5,4.45,1.28c1.76,0.96,3.32,2.24,4.76,3.62c3.71,3.55,6.8,7.72,9.77,11.89
				c3.31,4.66,6.46,9.44,9.78,14.09c3.02,4.25,6.17,8.51,9.92,12.15c3.12,3.03,7.03,5.97,11.58,6.01c1.93,0.02,1.93-2.98,0-3
				c-1.5-0.01-3.04-0.5-4.45-1.28c-1.76-0.96-3.32-2.24-4.76-3.62c-3.71-3.55-6.8-7.72-9.77-11.89c-3.31-4.66-6.46-9.44-9.78-14.09
				c-3.02-4.25-6.17-8.51-9.92-12.15c-3.12-3.03-7.03-5.97-11.58-6.01C448.57,430.98,448.57,433.98,450.5,434L450.5,434z"/>
		</g>
	</g>
	<g>
		<g>
			<path class="st2" d="M549.75,482.76c4.15,3.97,9.72,6.28,15.11,7.99c7.16,2.27,14.64,3.5,22.1,4.24
				c8.1,0.8,16.28,0.96,24.41,0.49c7.62-0.45,15.28-1.41,22.67-3.36c6.21-1.64,12.81-4.01,17.52-8.55c1.39-1.34-0.73-3.46-2.12-2.12
				c-3.82,3.69-9.2,5.75-14.27,7.24c-6.91,2.03-14.1,3.08-21.28,3.62c-15.04,1.14-30.74,0.41-45.34-3.59
				c-5.86-1.61-12.25-3.82-16.69-8.07C550.48,479.3,548.35,481.42,549.75,482.76L549.75,482.76z"/>
		</g>
	</g>
	<g>
		<g>
			<path class="st2" d="M649.5,434c1.52,0.03,3.06,0.54,4.5,1.34c1.79,0.99,3.38,2.3,4.86,3.7c3.77,3.58,6.93,7.78,9.97,11.97
				c3.42,4.72,6.67,9.56,10.1,14.28c3.1,4.27,6.31,8.56,10.11,12.23c3.17,3.06,7.12,6.07,11.72,6.15c1.93,0.03,1.93-2.97,0-3
				c-1.52-0.03-3.06-0.54-4.5-1.34c-1.79-0.99-3.38-2.3-4.86-3.7c-3.77-3.58-6.93-7.78-9.97-11.97c-3.42-4.72-6.67-9.56-10.1-14.28
				c-3.1-4.27-6.31-8.56-10.11-12.23c-3.17-3.06-7.12-6.07-11.72-6.15C647.57,430.97,647.57,433.97,649.5,434L649.5,434z"/>
		</g>
	</g>
	<g>
		<g>
			<path class="st2" d="M799.5,482c-1.52-0.02-3.02-0.51-4.44-1.31c-1.74-0.98-3.26-2.29-4.67-3.7c-3.63-3.62-6.59-7.88-9.44-12.12
				c-3.18-4.75-6.19-9.61-9.38-14.36c-2.88-4.29-5.89-8.6-9.52-12.3c-3.07-3.13-6.96-6.15-11.55-6.2c-1.93-0.02-1.93,2.98,0,3
				c1.52,0.02,3.02,0.51,4.44,1.31c1.74,0.98,3.26,2.29,4.67,3.7c3.63,3.62,6.59,7.88,9.44,12.12c3.18,4.75,6.19,9.61,9.38,14.36
				c2.88,4.29,5.89,8.6,9.52,12.3c3.07,3.13,6.96,6.15,11.55,6.2C801.43,485.02,801.43,482.02,799.5,482L799.5,482z"/>
		</g>
	</g>
</g>
<g id="Слой_1__x28_копия10_x29_">
	<g>
		<g>
			<path class="st3" d="M100.35,434.57c3.86,0,3.87-6,0-6C96.49,428.57,96.48,434.57,100.35,434.57L100.35,434.57z"/>
		</g>
	</g>
	<g>
		<g>
			<path class="st3" d="M100.45,484.46c3.86,0,3.87-6,0-6C96.59,478.46,96.58,484.46,100.45,484.46L100.45,484.46z"/>
		</g>
	</g>
	<g>
		<g>
			<path class="st3" d="M150.4,434.72c3.86,0,3.87-6,0-6C146.54,428.72,146.54,434.72,150.4,434.72L150.4,434.72z"/>
		</g>
	</g>
	<g>
		<g>
			<path class="st3" d="M150.51,484.6c3.86,0,3.87-6,0-6C146.64,478.6,146.64,484.6,150.51,484.6L150.51,484.6z"/>
		</g>
	</g>
	<g>
		<g>
			<path class="st3" d="M200.38,434.65c3.86,0,3.87-6,0-6C196.52,428.65,196.51,434.65,200.38,434.65L200.38,434.65z"/>
		</g>
	</g>
	<g>
		<g>
			<path class="st3" d="M200.48,484.53c3.86,0,3.87-6,0-6C196.62,478.53,196.61,484.53,200.48,484.53L200.48,484.53z"/>
		</g>
	</g>
	<g>
		<g>
			<path class="st3" d="M250.43,434.79c3.86,0,3.87-6,0-6C246.57,428.79,246.56,434.79,250.43,434.79L250.43,434.79z"/>
		</g>
	</g>
	<g>
		<g>
			<path class="st3" d="M250.53,484.68c3.86,0,3.87-6,0-6C246.67,478.68,246.67,484.68,250.53,484.68L250.53,484.68z"/>
		</g>
	</g>
	<g>
		<g>
			<path class="st3" d="M300.33,435.2c3.86,0,3.87-6,0-6C296.47,429.2,296.47,435.2,300.33,435.2L300.33,435.2z"/>
		</g>
	</g>
	<g>
		<g>
			<path class="st3" d="M300.44,485.09c3.86,0,3.87-6,0-6C296.58,479.09,296.57,485.09,300.44,485.09L300.44,485.09z"/>
		</g>
	</g>
	<g>
		<g>
			<path class="st3" d="M350.39,435.35c3.86,0,3.87-6,0-6C346.53,429.35,346.52,435.35,350.39,435.35L350.39,435.35z"/>
		</g>
	</g>
	<g>
		<g>
			<path class="st3" d="M350.49,485.23c3.86,0,3.87-6,0-6C346.63,479.23,346.62,485.23,350.49,485.23L350.49,485.23z"/>
		</g>
	</g>
	<g>
		<g>
			<path class="st3" d="M400.36,435.28c3.86,0,3.87-6,0-6C396.5,429.28,396.49,435.28,400.36,435.28L400.36,435.28z"/>
		</g>
	</g>
	<g>
		<g>
			<path class="st3" d="M400.46,485.16c3.86,0,3.87-6,0-6C396.6,479.16,396.6,485.16,400.46,485.16L400.46,485.16z"/>
		</g>
	</g>
	<g>
		<g>
			<path class="st3" d="M450.42,435.42c3.86,0,3.87-6,0-6C446.55,429.42,446.55,435.42,450.42,435.42L450.42,435.42z"/>
		</g>
	</g>
	<g>
		<g>
			<path class="st3" d="M450.52,485.31c3.86,0,3.87-6,0-6C446.66,479.31,446.65,485.31,450.52,485.31L450.52,485.31z"/>
		</g>
	</g>
	<g>
		<g>
			<path class="st3" d="M500.34,435.38c3.86,0,3.87-6,0-6C496.48,429.38,496.48,435.38,500.34,435.38L500.34,435.38z"/>
		</g>
	</g>
	<g>
		<g>
			<path class="st3" d="M500.44,485.26c3.86,0,3.87-6,0-6C496.58,479.26,496.58,485.26,500.44,485.26L500.44,485.26z"/>
		</g>
	</g>
	<g>
		<g>
			<path class="st3" d="M550.4,435.52c3.86,0,3.87-6,0-6C546.54,429.52,546.53,435.52,550.4,435.52L550.4,435.52z"/>
		</g>
	</g>
	<g>
		<g>
			<path class="st3" d="M550.5,485.41c3.86,0,3.87-6,0-6C546.64,479.41,546.63,485.41,550.5,485.41L550.5,485.41z"/>
		</g>
	</g>
	<g>
		<g>
			<path class="st3" d="M600.37,435.45c3.86,0,3.87-6,0-6C596.51,429.45,596.5,435.45,600.37,435.45L600.37,435.45z"/>
		</g>
	</g>
	<g>
		<g>
			<path class="st3" d="M600.47,485.33c3.86,0,3.87-6,0-6C596.61,479.33,596.6,485.33,600.47,485.33L600.47,485.33z"/>
		</g>
	</g>
	<g>
		<g>
			<path class="st3" d="M650.42,435.6c3.86,0,3.87-6,0-6C646.56,429.6,646.56,435.6,650.42,435.6L650.42,435.6z"/>
		</g>
	</g>
	<g>
		<g>
			<path class="st3" d="M650.52,485.48c3.86,0,3.87-6,0-6C646.66,479.48,646.66,485.48,650.52,485.48L650.52,485.48z"/>
		</g>
	</g>
	<g>
		<g>
			<path class="st3" d="M700.33,436.01c3.86,0,3.87-6,0-6C696.47,430.01,696.46,436.01,700.33,436.01L700.33,436.01z"/>
		</g>
	</g>
	<g>
		<g>
			<path class="st3" d="M700.43,485.89c3.86,0,3.87-6,0-6C696.57,479.89,696.56,485.89,700.43,485.89L700.43,485.89z"/>
		</g>
	</g>
	<g>
		<g>
			<path class="st3" d="M750.38,436.15c3.86,0,3.87-6,0-6C746.52,430.15,746.51,436.15,750.38,436.15L750.38,436.15z"/>
		</g>
	</g>
	<g>
		<g>
			<path class="st3" d="M750.48,486.04c3.86,0,3.87-6,0-6C746.62,480.04,746.61,486.04,750.48,486.04L750.48,486.04z"/>
		</g>
	</g>
	<g>
		<g>
			<path class="st3" d="M800.35,436.08c3.86,0,3.87-6,0-6C796.49,430.08,796.49,436.08,800.35,436.08L800.35,436.08z"/>
		</g>
	</g>
	<g>
		<g>
			<path class="st3" d="M800.45,485.97c3.86,0,3.87-6,0-6C796.59,479.97,796.59,485.97,800.45,485.97L800.45,485.97z"/>
		</g>
	</g>
	<g>
		<g>
			<path class="st3" d="M850.41,436.23c3.86,0,3.87-6,0-6C846.55,430.23,846.54,436.23,850.41,436.23L850.41,436.23z"/>
		</g>
	</g>
	<g>
		<g>
			<path class="st3" d="M850.51,486.11c3.86,0,3.87-6,0-6C846.65,480.11,846.64,486.11,850.51,486.11L850.51,486.11z"/>
		</g>
	</g>
</g>
<g id="Слой_1_копия_5">
	<g>
		<g>
			<path class="st0" d="M100.35,333.07c16.72-0.02,33.43-0.05,50.15-0.07c1.93,0,1.93-3,0-3c-16.72,0.02-33.43,0.05-50.15,0.07
				C98.42,330.08,98.42,333.08,100.35,333.07L100.35,333.07z"/>
		</g>
	</g>
	<g>
		<g>
			<path class="st0" d="M100.45,382.96c16.68,0.05,33.37,0.1,50.05,0.15c1.93,0.01,1.93-2.99,0-3c-16.68-0.05-33.37-0.1-50.05-0.15
				C98.52,379.95,98.52,382.95,100.45,382.96L100.45,382.96z"/>
		</g>
	</g>
	<g>
		<g>
			<path class="st0" d="M200.38,333.15c16.68,0.05,33.37,0.1,50.05,0.15c1.93,0.01,1.93-2.99,0-3c-16.68-0.05-33.37-0.1-50.05-0.15
				C198.45,330.14,198.44,333.14,200.38,333.15L200.38,333.15z"/>
		</g>
	</g>
	<g>
		<g>
			<path class="st0" d="M200.31,383.22c16.68,0.05,33.37,0.1,50.05,0.15c1.93,0.01,1.93-2.99,0-3c-16.68-0.05-33.37-0.1-50.05-0.15
				C198.38,380.21,198.38,383.21,200.31,383.22L200.31,383.22z"/>
		</g>
	</g>
	<g>
		<g>
			<path class="st0" d="M300.35,334.18c16.68,0.05,33.37,0.1,50.05,0.15c1.93,0.01,1.93-2.99,0-3c-16.68-0.05-33.37-0.1-50.05-0.15
				C298.41,331.18,298.41,334.18,300.35,334.18L300.35,334.18z"/>
		</g>
	</g>
	<g>
		<g>
			<path class="st0" d="M300.28,384.25c16.68,0.05,33.37,0.1,50.05,0.15c1.93,0.01,1.93-2.99,0-3c-16.68-0.05-33.37-0.1-50.05-0.15
				C298.35,381.24,298.35,384.24,300.28,384.25L300.28,384.25z"/>
		</g>
	</g>
	<g>
		<g>
			<path class="st0" d="M400.35,334.18c16.68,0.05,33.37,0.1,50.05,0.15c1.93,0.01,1.93-2.99,0-3c-16.68-0.05-33.37-0.1-50.05-0.15
				C398.41,331.18,398.41,334.18,400.35,334.18L400.35,334.18z"/>
		</g>
	</g>
	<g>
		<g>
			<path class="st0" d="M400.28,384.25c16.68,0.05,33.37,0.1,50.05,0.15c1.93,0.01,1.93-2.99,0-3c-16.68-0.05-33.37-0.1-50.05-0.15
				C398.35,381.24,398.35,384.24,400.28,384.25L400.28,384.25z"/>
		</g>
	</g>
	<g>
		<g>
			<path class="st0" d="M499.89,334.25c16.72-0.02,33.43-0.05,50.15-0.07c1.93,0,1.93-3,0-3c-16.72,0.02-33.43,0.05-50.15,0.07
				C497.96,331.25,497.96,334.25,499.89,334.25L499.89,334.25z"/>
		</g>
	</g>
	<g>
		<g>
			<path class="st0" d="M500,384.13c16.68,0.05,33.37,0.1,50.05,0.15c1.93,0.01,1.93-2.99,0-3c-16.68-0.05-33.37-0.1-50.05-0.15
				C498.07,381.13,498.06,384.13,500,384.13L500,384.13z"/>
		</g>
	</g>
	<g>
		<g>
			<path class="st0" d="M599.92,334.32c16.68,0.05,33.37,0.1,50.05,0.15c1.93,0.01,1.93-2.99,0-3c-16.68-0.05-33.37-0.1-50.05-0.15
				C597.99,331.32,597.99,334.32,599.92,334.32L599.92,334.32z"/>
		</g>
	</g>
	<g>
		<g>
			<path class="st0" d="M599.86,384.39c16.68,0.05,33.37,0.1,50.05,0.15c1.93,0.01,1.93-2.99,0-3c-16.68-0.05-33.37-0.1-50.05-0.15
				C597.93,381.39,597.92,384.39,599.86,384.39L599.86,384.39z"/>
		</g>
	</g>
	<g>
		<g>
			<path class="st0" d="M699.89,335.36c16.68,0.05,33.37,0.1,50.05,0.15c1.93,0.01,1.93-2.99,0-3c-16.68-0.05-33.37-0.1-50.05-0.15
				C697.96,332.35,697.96,335.35,699.89,335.36L699.89,335.36z"/>
		</g>
	</g>
	<g>
		<g>
			<path class="st0" d="M699.83,385.43c16.68,0.05,33.37,0.1,50.05,0.15c1.93,0.01,1.93-2.99,0-3c-16.68-0.05-33.37-0.1-50.05-0.15
				C697.89,382.42,697.89,385.42,699.83,385.43L699.83,385.43z"/>
		</g>
	</g>
	<g>
		<g>
			<path class="st0" d="M799.89,335.36c16.68,0.05,33.37,0.1,50.05,0.15c1.93,0.01,1.93-2.99,0-3c-16.68-0.05-33.37-0.1-50.05-0.15
				C797.96,332.35,797.96,335.35,799.89,335.36L799.89,335.36z"/>
		</g>
	</g>
	<g>
		<g>
			<path class="st0" d="M799.83,385.43c16.68,0.05,33.37,0.1,50.05,0.15c1.93,0.01,1.93-2.99,0-3c-16.68-0.05-33.37-0.1-50.05-0.15
				C797.89,382.42,797.89,385.42,799.83,385.43L799.83,385.43z"/>
		</g>
	</g>
</g>
<g id="Слой_1__x28_копия15_x29_">
	<g>
		<g>
			<path class="st1" d="M98.85,331.57c0.03,16.63,0.07,33.26,0.1,49.88c0,1.93,3,1.93,3,0c-0.03-16.63-0.07-33.26-0.1-49.88
				C101.85,329.64,98.85,329.64,98.85,331.57L98.85,331.57z"/>
		</g>
	</g>
	<g>
		<g>
			<path class="st1" d="M148.9,331.72c0.03,16.63,0.07,33.26,0.1,49.88c0,1.93,3,1.93,3,0c-0.03-16.63-0.07-33.26-0.1-49.88
				C151.9,329.79,148.9,329.79,148.9,331.72L148.9,331.72z"/>
		</g>
	</g>
	<g>
		<g>
			<path class="st1" d="M198.88,331.65c0.03,16.63,0.07,33.26,0.1,49.88c0,1.93,3,1.93,3,0c-0.03-16.63-0.07-33.26-0.1-49.88
				C201.87,329.72,198.87,329.71,198.88,331.65L198.88,331.65z"/>
		</g>
	</g>
	<g>
		<g>
			<path class="st1" d="M248.93,331.79c0.03,16.63,0.07,33.26,0.1,49.88c0,1.93,3,1.93,3,0c-0.03-16.63-0.07-33.26-0.1-49.88
				C251.93,329.86,248.93,329.86,248.93,331.79L248.93,331.79z"/>
		</g>
	</g>
	<g>
		<g>
			<path class="st1" d="M298.77,332.5c0.03,16.63,0.07,33.26,0.1,49.88c0,1.93,3,1.93,3,0c-0.03-16.63-0.07-33.26-0.1-49.88
				C301.77,330.57,298.77,330.57,298.77,332.5L298.77,332.5z"/>
		</g>
	</g>
	<g>
		<g>
			<path class="st1" d="M348.82,332.65c0.03,16.63,0.07,33.26,0.1,49.88c0,1.93,3,1.93,3,0c-0.03-16.63-0.07-33.26-0.1-49.88
				C351.82,330.72,348.82,330.71,348.82,332.65L348.82,332.65z"/>
		</g>
	</g>
	<g>
		<g>
			<path class="st1" d="M398.8,332.58c0.03,16.63,0.07,33.26,0.1,49.88c0,1.93,3,1.93,3,0c-0.03-16.63-0.07-33.26-0.1-49.88
				C401.79,330.64,398.79,330.64,398.8,332.58L398.8,332.58z"/>
		</g>
	</g>
	<g>
		<g>
			<path class="st1" d="M448.85,332.72c0.03,16.63,0.07,33.26,0.1,49.88c0,1.93,3,1.93,3,0c-0.03-16.63-0.07-33.26-0.1-49.88
				C451.85,330.79,448.85,330.79,448.85,332.72L448.85,332.72z"/>
		</g>
	</g>
	<g>
		<g>
			<path class="st1" d="M499.18,332.5c0.03,16.63,0.07,33.26,0.1,49.88c0,1.93,3,1.93,3,0c-0.03-16.63-0.07-33.26-0.1-49.88
				C502.17,330.57,499.17,330.57,499.18,332.5L499.18,332.5z"/>
		</g>
	</g>
	<g>
		<g>
			<path class="st1" d="M549.23,332.65c0.03,16.63,0.07,33.26,0.1,49.88c0,1.93,3,1.93,3,0c-0.03-16.63-0.07-33.26-0.1-49.88
				C552.22,330.72,549.22,330.71,549.23,332.65L549.23,332.65z"/>
		</g>
	</g>
	<g>
		<g>
			<path class="st1" d="M599.2,332.58c0.03,16.63,0.07,33.26,0.1,49.88c0,1.93,3,1.93,3,0c-0.03-16.63-0.07-33.26-0.1-49.88
				C602.2,330.64,599.2,330.64,599.2,332.58L599.2,332.58z"/>
		</g>
	</g>
	<g>
		<g>
			<path class="st1" d="M649.26,332.72c0.03,16.63,0.07,33.26,0.1,49.88c0,1.93,3,1.93,3,0c-0.03-16.63-0.07-33.26-0.1-49.88
				C652.25,330.79,649.25,330.79,649.26,332.72L649.26,332.72z"/>
		</g>
	</g>
	<g>
		<g>
			<path class="st1" d="M698.52,333.33c0.03,16.63,0.07,33.26,0.1,49.88c0,1.93,3,1.93,3,0c-0.03-16.63-0.07-33.26-0.1-49.88
				C701.51,331.4,698.51,331.4,698.52,333.33L698.52,333.33z"/>
		</g>
	</g>
	<g>
		<g>
			<path class="st1" d="M748.57,333.48c0.03,16.63,0.07,33.26,0.1,49.88c0,1.93,3,1.93,3,0c-0.03-16.63-0.07-33.26-0.1-49.88
				C751.57,331.55,748.57,331.54,748.57,333.48L748.57,333.48z"/>
		</g>
	</g>
	<g>
		<g>
			<path class="st1" d="M798.54,333.4c0.03,16.63,0.07,33.26,0.1,49.88c0,1.93,3,1.93,3,0c-0.03-16.63-0.07-33.26-0.1-49.88
				C801.54,331.47,798.54,331.47,798.54,333.4L798.54,333.4z"/>
		</g>
	</g>
	<g>
		<g>
			<path class="st1" d="M848.6,333.55c0.03,16.63,0.07,33.26,0.1,49.88c0,1.93,3,1.93,3,0c-0.03-16.63-0.07-33.26-0.1-49.88
				C851.59,331.62,848.59,331.62,848.6,333.55L848.6,333.55z"/>
		</g>
	</g>
</g>
<g id="Слой_1__x28_копия14_x29_">
	<g>
		<g>
			<path class="st2" d="M99.29,330.51c-5,4.36-8.74,10.42-10.53,16.78c-2.72,9.64-0.87,20.09,4.71,28.36
				c1.57,2.32,3.38,4.53,5.47,6.41c1.43,1.28,3.56-0.83,2.12-2.12c-4.49-4.02-7.81-9.48-9.43-15.26c-2.56-9.12-0.6-18.84,4.83-26.52
				c1.43-2.02,3.09-3.9,4.96-5.52C102.87,331.36,100.74,329.25,99.29,330.51L99.29,330.51z"/>
		</g>
	</g>
	<g>
		<g>
			<path class="st2" d="M149.34,332.78c11.69,14.59,24.67,28.13,38.78,40.39c3.7,3.22,7.48,6.34,11.32,9.39
				c1.5,1.19,3.64-0.92,2.12-2.12c-14.61-11.56-28.19-24.4-40.51-38.37c-3.29-3.73-6.48-7.53-9.59-11.41
				C150.26,329.15,148.15,331.29,149.34,332.78L149.34,332.78z"/>
		</g>
	</g>
	<g>
		<g>
			<path class="st2" d="M251.49,332.85C251.49,332.85,251.49,332.85,251.49,332.85c-0.49,0.13-0.97,0.26-1.46,0.38
				c-0.13-0.02-0.75-0.53-0.52-0.27c0.09,0.11,0.22,0.2,0.32,0.3c0.37,0.35,0.73,0.71,1.09,1.07c1.24,1.23,2.47,2.46,3.7,3.7
				c4,4.02,7.98,8.06,11.96,12.1c8.93,9.06,17.85,18.14,26.76,27.22c2.03,2.07,4.06,4.14,6.09,6.21c1.35,1.38,3.47-0.74,2.12-2.12
				c-5.77-5.89-11.55-11.78-17.34-17.66c-9.01-9.17-18.02-18.34-27.08-27.46c-1.43-1.44-2.85-2.87-4.29-4.29
				c-0.88-0.87-2.15-2.53-3.48-1.29C247.95,332.05,250.08,334.17,251.49,332.85L251.49,332.85z"/>
		</g>
	</g>
	<g>
		<g>
			<path class="st2" d="M350.5,334c1.51,0.01,3.02,0.51,4.45,1.3c1.76,0.98,3.31,2.29,4.74,3.7c3.71,3.62,6.76,7.88,9.7,12.13
				c3.29,4.75,6.41,9.62,9.7,14.37c2.98,4.29,6.07,8.61,9.78,12.31c3.1,3.1,7.03,6.15,11.63,6.19c1.93,0.02,1.93-2.98,0-3
				c-1.51-0.01-3.02-0.51-4.45-1.3c-1.76-0.98-3.31-2.29-4.74-3.7c-3.71-3.62-6.76-7.88-9.7-12.13c-3.29-4.75-6.41-9.62-9.7-14.37
				c-2.98-4.29-6.07-8.61-9.78-12.31c-3.1-3.1-7.03-6.15-11.63-6.19C348.57,330.98,348.57,333.98,350.5,334L350.5,334z"/>
		</g>
	</g>
	<g>
		<g>
			<path class="st2" d="M401.56,333.56c3.79-4.02,9.13-6.37,14.29-8.07c6.81-2.25,13.95-3.5,21.08-4.19
				c15.12-1.46,31.05-0.86,45.7,3.4c5.95,1.73,12.29,4.17,16.65,8.74c1.34,1.4,3.45-0.72,2.12-2.12c-4.07-4.26-9.72-6.81-15.22-8.65
				c-7.13-2.39-14.63-3.65-22.09-4.37c-8.14-0.78-16.36-0.85-24.52-0.22c-7.62,0.58-15.28,1.73-22.61,3.92
				c-6.28,1.88-12.93,4.58-17.52,9.45C398.12,332.84,400.23,334.97,401.56,333.56L401.56,333.56z"/>
		</g>
	</g>
	<g>
		<g>
			<path class="st2" d="M550.4,334.02c1.51,0.01,3.05,0.5,4.47,1.28c1.77,0.97,3.32,2.25,4.77,3.64c3.68,3.53,6.74,7.68,9.68,11.82
				c3.31,4.67,6.45,9.45,9.76,14.12c3,4.22,6.11,8.46,9.83,12.08c3.12,3.05,7.04,6,11.6,6.03c1.93,0.02,1.93-2.98,0-3
				c-1.51-0.01-3.05-0.5-4.47-1.28c-1.77-0.97-3.32-2.25-4.77-3.64c-3.68-3.53-6.74-7.68-9.68-11.82
				c-3.31-4.67-6.45-9.45-9.76-14.12c-3-4.22-6.11-8.46-9.83-12.08c-3.12-3.05-7.04-6-11.6-6.03
				C548.47,331.01,548.46,334.01,550.4,334.02L550.4,334.02z"/>
		</g>
	</g>
	<g>
		<g>
			<path class="st2" d="M600.56,333.56c3.81-3.23,9.37-5.03,14.31-6.31c7.04-1.82,14.29-2.76,21.53-3.27
				c15.25-1.08,31.07-0.56,46,2.97c5.79,1.37,12.38,3.28,16.87,7.11c1.46,1.25,3.59-0.87,2.12-2.12c-4.31-3.67-9.91-5.66-15.29-7.14
				c-7.3-2.01-14.88-3.05-22.42-3.67c-15.73-1.29-32.13-0.86-47.55,2.72c-6.16,1.43-12.77,3.42-17.68,7.58
				C596.96,332.69,599.1,334.8,600.56,333.56L600.56,333.56z"/>
		</g>
	</g>
	<g>
		<g>
			<path class="st2" d="M800.35,331.58c-16.78-0.03-33.57-0.05-50.35-0.08c-1.93,0-1.93,3,0,3c16.78,0.03,33.57,0.05,50.35,0.08
				C802.28,334.59,802.29,331.59,800.35,331.58L800.35,331.58z"/>
		</g>
	</g>
	<g>
		<g>
			<path class="st2" d="M849.35,334.29c4.11,4.06,7.18,9.28,8.81,14.82c2.61,8.86,1.3,18.43-3.35,26.37
				c-1.37,2.33-2.98,4.51-4.86,6.46c-1.34,1.39,0.78,3.51,2.12,2.12c4.78-4.95,8.21-11.35,9.64-18.08
				c2.01-9.5,0.05-19.44-5.22-27.57c-1.45-2.24-3.12-4.37-5.02-6.24C850.09,330.81,847.97,332.93,849.35,334.29L849.35,334.29z"/>
		</g>
	</g>
	<g>
		<g>
			<path class="st2" d="M149.76,381.96c3.77,4.8,9.38,7.84,14.97,10.01c7,2.73,14.48,4.14,21.92,4.93
				c8.16,0.87,16.42,0.9,24.59,0.17c7.65-0.68,15.31-1.98,22.62-4.36c6.4-2.09,13.1-5.05,17.69-10.15c1.29-1.43-0.82-3.56-2.12-2.12
				c-3.78,4.19-9.12,6.8-14.36,8.69c-6.87,2.48-14.12,3.91-21.37,4.7c-14.99,1.64-30.97,1.07-45.37-3.74
				c-6.13-2.04-12.39-5.07-16.46-10.26C150.69,378.32,148.58,380.45,149.76,381.96L149.76,381.96z"/>
		</g>
	</g>
	<g>
		<g>
			<path class="st2" d="M302,332.5c-0.04-5.95-5.47-9.79-10.35-12.03c-7.63-3.51-16.13-4.99-24.42-5.92
				c-9.68-1.08-19.49-1.21-29.2-0.48c-8.61,0.65-17.44,1.85-25.59,4.83c-5.09,1.86-11.67,4.92-13.16,10.72
				c-0.16,0.61-0.24,1.25-0.27,1.88c-0.1,1.93,2.9,1.92,3,0c0.01-0.13,0.01-0.25,0.03-0.38c0.04-0.39-0.04,0.2,0.01-0.08
				c0.05-0.26,0.1-0.52,0.17-0.78c0.07-0.24,0.15-0.48,0.24-0.71c-0.1,0.26,0.13-0.28,0.23-0.48c0.12-0.23,0.25-0.45,0.39-0.67
				c0.08-0.13,0.17-0.25,0.26-0.38c0.2-0.29,0-0.01,0.12-0.16c0.37-0.46,0.77-0.89,1.2-1.29c0.96-0.9,1.74-1.44,3.01-2.19
				c1.28-0.76,2.8-1.49,4.03-1.99c7.39-3.01,15.49-4.31,23.39-5.07c9.34-0.9,18.8-0.94,28.15-0.16c8.2,0.68,16.55,1.94,24.29,4.82
				c1.5,0.56,2.82,1.13,4.29,1.9c0.65,0.35,1.29,0.71,1.92,1.11c0.28,0.18,0.57,0.37,0.84,0.56c0.13,0.09,0.27,0.19,0.4,0.29
				c0.25,0.19,0.1,0.07,0.24,0.19c0.51,0.41,1,0.85,1.46,1.32c0.2,0.21,0.39,0.42,0.58,0.64c0.32,0.36,0.09,0.06,0.39,0.5
				c0.31,0.46,0.59,0.93,0.83,1.43c0.13,0.26,0.05,0.1,0.05,0.1c0.05,0.12,0.09,0.24,0.13,0.36c0.08,0.26,0.16,0.53,0.22,0.79
				c0.03,0.13,0.05,0.25,0.08,0.38c0.06,0.3,0.01,0.08,0.02,0.09c0.03,0.28,0.04,0.56,0.04,0.84
				C299.01,334.43,302.01,334.43,302,332.5L302,332.5z"/>
		</g>
	</g>
	<g>
		<g>
			<path class="st2" d="M349.44,383.56c4.08,3.91,9.76,6.02,15.08,7.58c7.32,2.15,14.95,3.27,22.54,3.94
				c8.28,0.73,16.63,0.84,24.93,0.34c7.63-0.46,15.31-1.4,22.71-3.35c5.93-1.56,12.62-3.82,16.85-8.51
				c1.29-1.43-0.82-3.56-2.12-2.12c-3.38,3.74-8.63,5.73-13.47,7.17c-6.94,2.06-14.17,3.08-21.38,3.64
				c-15.43,1.19-31.55,0.58-46.59-3.26c-5.7-1.46-12.21-3.49-16.44-7.54C350.17,380.1,348.04,382.22,349.44,383.56L349.44,383.56z"
				/>
		</g>
	</g>
	<g>
		<g>
			<path class="st2" d="M450.5,334c1.5,0.01,3.04,0.5,4.45,1.28c1.76,0.96,3.32,2.24,4.76,3.62c3.71,3.55,6.8,7.72,9.77,11.89
				c3.31,4.66,6.46,9.44,9.78,14.09c3.02,4.25,6.17,8.51,9.92,12.15c3.12,3.03,7.03,5.97,11.58,6.01c1.93,0.02,1.93-2.98,0-3
				c-1.5-0.01-3.04-0.5-4.45-1.28c-1.76-0.96-3.32-2.24-4.76-3.62c-3.71-3.55-6.8-7.72-9.77-11.89c-3.31-4.66-6.46-9.44-9.78-14.09
				c-3.02-4.25-6.17-8.51-9.92-12.15c-3.12-3.03-7.03-5.97-11.58-6.01C448.57,330.98,448.57,333.98,450.5,334L450.5,334z"/>
		</g>
	</g>
	<g>
		<g>
			<path class="st2" d="M549.75,382.76c4.63,4,10.51,6.38,16.31,8.13c7.3,2.2,14.89,3.43,22.46,4.14
				c8.09,0.77,16.26,0.91,24.37,0.41c7.45-0.46,14.95-1.42,22.16-3.39c5.85-1.6,12.29-3.91,16.51-8.49
				c1.31-1.42-0.81-3.54-2.12-2.12c-3.38,3.67-8.45,5.69-13.21,7.15c-6.71,2.06-13.71,3.1-20.69,3.67
				c-15.24,1.23-31.1,0.45-45.92-3.48c-6.2-1.64-12.83-3.89-17.74-8.14C550.42,379.38,548.29,381.5,549.75,382.76L549.75,382.76z"/>
		</g>
	</g>
	<g>
		<g>
			<path class="st2" d="M649.5,334c1.52,0.03,3.06,0.54,4.5,1.34c1.79,0.99,3.38,2.3,4.86,3.7c3.77,3.58,6.93,7.78,9.97,11.97
				c3.42,4.72,6.67,9.56,10.1,14.28c3.1,4.27,6.31,8.56,10.11,12.23c3.17,3.06,7.12,6.07,11.72,6.15c1.93,0.03,1.93-2.97,0-3
				c-1.52-0.03-3.06-0.54-4.5-1.34c-1.79-0.99-3.38-2.3-4.86-3.7c-3.77-3.58-6.93-7.78-9.97-11.97c-3.42-4.72-6.67-9.56-10.1-14.28
				c-3.1-4.27-6.31-8.56-10.11-12.23c-3.17-3.06-7.12-6.07-11.72-6.15C647.57,330.97,647.57,333.97,649.5,334L649.5,334z"/>
		</g>
	</g>
	<g>
		<g>
			<path class="st2" d="M800.77,380.76c-16.78-0.03-33.57-0.05-50.35-0.08c-1.93,0-1.93,3,0,3c16.78,0.03,33.57,0.05,50.35,0.08
				C802.7,383.76,802.7,380.76,800.77,380.76L800.77,380.76z"/>
		</g>
	</g>
</g>
<g id="Слой_1__x28_копия13_x29_">
	<g>
		<g>
			<path class="st3" d="M100.35,334.57c3.86,0,3.87-6,0-6C96.49,328.57,96.48,334.57,100.35,334.57L100.35,334.57z"/>
		</g>
	</g>
	<g>
		<g>
			<path class="st3" d="M100.45,384.46c3.86,0,3.87-6,0-6C96.59,378.46,96.58,384.46,100.45,384.46L100.45,384.46z"/>
		</g>
	</g>
	<g>
		<g>
			<path class="st3" d="M150.4,334.72c3.86,0,3.87-6,0-6C146.54,328.72,146.54,334.72,150.4,334.72L150.4,334.72z"/>
		</g>
	</g>
	<g>
		<g>
			<path class="st3" d="M150.51,384.6c3.86,0,3.87-6,0-6C146.64,378.6,146.64,384.6,150.51,384.6L150.51,384.6z"/>
		</g>
	</g>
	<g>
		<g>
			<path class="st3" d="M200.38,334.65c3.86,0,3.87-6,0-6C196.52,328.65,196.51,334.65,200.38,334.65L200.38,334.65z"/>
		</g>
	</g>
	<g>
		<g>
			<path class="st3" d="M200.48,384.53c3.86,0,3.87-6,0-6C196.62,378.53,196.61,384.53,200.48,384.53L200.48,384.53z"/>
		</g>
	</g>
	<g>
		<g>
			<path class="st3" d="M250.43,334.79c3.86,0,3.87-6,0-6C246.57,328.79,246.56,334.79,250.43,334.79L250.43,334.79z"/>
		</g>
	</g>
	<g>
		<g>
			<path class="st3" d="M250.53,384.68c3.86,0,3.87-6,0-6C246.67,378.68,246.67,384.68,250.53,384.68L250.53,384.68z"/>
		</g>
	</g>
	<g>
		<g>
			<path class="st3" d="M300.33,335.2c3.86,0,3.87-6,0-6C296.47,329.2,296.47,335.2,300.33,335.2L300.33,335.2z"/>
		</g>
	</g>
	<g>
		<g>
			<path class="st3" d="M300.44,385.09c3.86,0,3.87-6,0-6C296.58,379.09,296.57,385.09,300.44,385.09L300.44,385.09z"/>
		</g>
	</g>
	<g>
		<g>
			<path class="st3" d="M350.39,335.35c3.86,0,3.87-6,0-6C346.53,329.35,346.52,335.35,350.39,335.35L350.39,335.35z"/>
		</g>
	</g>
	<g>
		<g>
			<path class="st3" d="M350.49,385.23c3.86,0,3.87-6,0-6C346.63,379.23,346.62,385.23,350.49,385.23L350.49,385.23z"/>
		</g>
	</g>
	<g>
		<g>
			<path class="st3" d="M400.36,335.28c3.86,0,3.87-6,0-6C396.5,329.28,396.49,335.28,400.36,335.28L400.36,335.28z"/>
		</g>
	</g>
	<g>
		<g>
			<path class="st3" d="M400.46,385.16c3.86,0,3.87-6,0-6C396.6,379.16,396.6,385.16,400.46,385.16L400.46,385.16z"/>
		</g>
	</g>
	<g>
		<g>
			<path class="st3" d="M450.42,335.42c3.86,0,3.87-6,0-6C446.55,329.42,446.55,335.42,450.42,335.42L450.42,335.42z"/>
		</g>
	</g>
	<g>
		<g>
			<path class="st3" d="M450.52,385.31c3.86,0,3.87-6,0-6C446.66,379.31,446.65,385.31,450.52,385.31L450.52,385.31z"/>
		</g>
	</g>
	<g>
		<g>
			<path class="st3" d="M500.34,335.38c3.86,0,3.87-6,0-6C496.48,329.38,496.48,335.38,500.34,335.38L500.34,335.38z"/>
		</g>
	</g>
	<g>
		<g>
			<path class="st3" d="M500.44,385.26c3.86,0,3.87-6,0-6C496.58,379.26,496.58,385.26,500.44,385.26L500.44,385.26z"/>
		</g>
	</g>
	<g>
		<g>
			<path class="st3" d="M550.4,335.52c3.86,0,3.87-6,0-6C546.54,329.52,546.53,335.52,550.4,335.52L550.4,335.52z"/>
		</g>
	</g>
	<g>
		<g>
			<path class="st3" d="M550.5,385.41c3.86,0,3.87-6,0-6C546.64,379.41,546.63,385.41,550.5,385.41L550.5,385.41z"/>
		</g>
	</g>
	<g>
		<g>
			<path class="st3" d="M600.37,335.45c3.86,0,3.87-6,0-6C596.51,329.45,596.5,335.45,600.37,335.45L600.37,335.45z"/>
		</g>
	</g>
	<g>
		<g>
			<path class="st3" d="M600.47,385.33c3.86,0,3.87-6,0-6C596.61,379.33,596.6,385.33,600.47,385.33L600.47,385.33z"/>
		</g>
	</g>
	<g>
		<g>
			<path class="st3" d="M650.42,335.6c3.86,0,3.87-6,0-6C646.56,329.6,646.56,335.6,650.42,335.6L650.42,335.6z"/>
		</g>
	</g>
	<g>
		<g>
			<path class="st3" d="M650.52,385.48c3.86,0,3.87-6,0-6C646.66,379.48,646.66,385.48,650.52,385.48L650.52,385.48z"/>
		</g>
	</g>
	<g>
		<g>
			<path class="st3" d="M700.33,336.01c3.86,0,3.87-6,0-6C696.47,330.01,696.46,336.01,700.33,336.01L700.33,336.01z"/>
		</g>
	</g>
	<g>
		<g>
			<path class="st3" d="M700.43,385.89c3.86,0,3.87-6,0-6C696.57,379.89,696.56,385.89,700.43,385.89L700.43,385.89z"/>
		</g>
	</g>
	<g>
		<g>
			<path class="st3" d="M750.38,336.15c3.86,0,3.87-6,0-6C746.52,330.15,746.51,336.15,750.38,336.15L750.38,336.15z"/>
		</g>
	</g>
	<g>
		<g>
			<path class="st3" d="M750.48,386.04c3.86,0,3.87-6,0-6C746.62,380.04,746.61,386.04,750.48,386.04L750.48,386.04z"/>
		</g>
	</g>
	<g>
		<g>
			<path class="st3" d="M800.35,336.08c3.86,0,3.87-6,0-6C796.49,330.08,796.49,336.08,800.35,336.08L800.35,336.08z"/>
		</g>
	</g>
	<g>
		<g>
			<path class="st3" d="M800.45,385.97c3.86,0,3.87-6,0-6C796.59,379.97,796.59,385.97,800.45,385.97L800.45,385.97z"/>
		</g>
	</g>
	<g>
		<g>
			<path class="st3" d="M850.41,336.23c3.86,0,3.87-6,0-6C846.55,330.23,846.54,336.23,850.41,336.23L850.41,336.23z"/>
		</g>
	</g>
	<g>
		<g>
			<path class="st3" d="M850.51,386.11c3.86,0,3.87-6,0-6C846.65,380.11,846.64,386.11,850.51,386.11L850.51,386.11z"/>
		</g>
	</g>
	<text transform="matrix(1 0 0 1 6.4717 45.3462)"><tspan x="0" y="0" class="st4 st5">ST-циклы: 1 </tspan><tspan x="0" y="14.4" class="st4 st5">UT-циклы: 9 </tspan><tspan x="0" y="28.8" class="st4 st5">SU-циклы: 8</tspan></text>
	<text transform="matrix(1 0 0 1 7.0023 146.9227)"><tspan x="0" y="0" class="st4 st5">ST-циклы: 2 </tspan><tspan x="0" y="14.4" class="st4 st5">UT-циклы: 8 </tspan><tspan x="0" y="28.8" class="st4 st5">SU-циклы: 8</tspan></text>
	<text transform="matrix(1 0 0 1 7.0021 246.9225)"><tspan x="0" y="0" class="st4 st5">ST-циклы: 3 </tspan><tspan x="0" y="14.4" class="st4 st5">UT-циклы: 7 </tspan><tspan x="0" y="28.8" class="st4 st5">SU-циклы: 8</tspan></text>
	<text transform="matrix(1 0 0 1 7.0024 346.9224)"><tspan x="0" y="0" class="st4 st5">ST-циклы: 4 </tspan><tspan x="0" y="14.4" class="st4 st5">UT-циклы: 6 </tspan><tspan x="0" y="28.8" class="st4 st5">SU-циклы: 8</tspan></text>
	<text transform="matrix(1 0 0 1 7.0022 446.9232)"><tspan x="0" y="0" class="st4 st5">ST-циклы: 5 </tspan><tspan x="0" y="14.4" class="st4 st5">UT-циклы: 5 </tspan><tspan x="0" y="28.8" class="st4 st5">SU-циклы: 8</tspan></text>
</g>
</svg>
