<?xml version="1.0" encoding="utf-8"?>
<!-- Generator: Adobe Illustrator 28.3.0, SVG Export Plug-In . SVG Version: 6.00 Build 0)  -->
<svg version="1.1" xmlns="http://www.w3.org/2000/svg" xmlns:xlink="http://www.w3.org/1999/xlink" x="0px" y="0px"
	 viewBox="0 0 883 412" style="enable-background:new 0 0 883 412;" xml:space="preserve">
<style type="text/css">
	.st0{fill:#29ABE2;}
	.st1{fill:#FF0000;}
	.st2{fill:#666666;}
	.st3{fill:#FBB03B;}
	.st4{font-family:'MicrosoftSansSerif';}
	.st5{font-size:12px;}
</style>
<g id="Слой_1">
</g>
<g id="Слой_1__x28_копия3_x29_">
</g>
<g id="Слой_1__x28_копия2_x29_">
</g>
<g id="Слой_1__x28_копия_x29_">
</g>
<g id="Слой_1_копия_2">
	<g>
		<g>
			<path class="st0" d="M100.35,29.07c16.72-0.02,33.43-0.05,50.15-0.07c1.93,0,1.93-3,0-3c-16.72,0.02-33.43,0.05-50.15,0.07
				C98.42,26.08,98.42,29.08,100.35,29.07L100.35,29.07z"/>
		</g>
	</g>
	<g>
		<g>
			<path class="st0" d="M100.45,78.96c16.68,0.05,33.37,0.1,50.05,0.15c1.93,0.01,1.93-2.99,0-3c-16.68-0.05-33.37-0.1-50.05-0.15
				C98.52,75.95,98.52,78.95,100.45,78.96L100.45,78.96z"/>
		</g>
	</g>
	<g>
		<g>
			<path class="st0" d="M200.38,29.15c16.68,0.05,33.37,0.1,50.05,0.15c1.93,0.01,1.93-2.99,0-3c-16.68-0.05-33.37-0.1-50.05-0.15
				C198.45,26.14,198.44,29.14,200.38,29.15L200.38,29.15z"/>
		</g>
	</g>
	<g>
		<g>
			<path class="st0" d="M200.31,79.22c16.68,0.05,33.37,0.1,50.05,0.15c1.93,0.01,1.93-2.99,0-3c-16.68-0.05-33.37-0.1-50.05-0.15
				C198.38,76.21,198.38,79.21,200.31,79.22L200.31,79.22z"/>
		</g>
	</g>
	<g>
		<g>
			<path class="st0" d="M300.35,30.18c16.68,0.05,33.37,0.1,50.05,0.15c1.93,0.01,1.93-2.99,0-3c-16.68-0.05-33.37-0.1-50.05-0.15
				C298.41,27.18,298.41,30.18,300.35,30.18L300.35,30.18z"/>
		</g>
	</g>
	<g>
		<g>
			<path class="st0" d="M300.28,80.25c16.68,0.05,33.37,0.1,50.05,0.15c1.93,0.01,1.93-2.99,0-3c-16.68-0.05-33.37-0.1-50.05-0.15
				C298.35,77.24,298.35,80.24,300.28,80.25L300.28,80.25z"/>
		</g>
	</g>
	<g>
		<g>
			<path class="st0" d="M400.35,30.18c16.68,0.05,33.37,0.1,50.05,0.15c1.93,0.01,1.93-2.99,0-3c-16.68-0.05-33.37-0.1-50.05-0.15
				C398.41,27.18,398.41,30.18,400.35,30.18L400.35,30.18z"/>
		</g>
	</g>
	<g>
		<g>
			<path class="st0" d="M400.28,80.25c16.68,0.05,33.37,0.1,50.05,0.15c1.93,0.01,1.93-2.99,0-3c-16.68-0.05-33.37-0.1-50.05-0.15
				C398.35,77.24,398.35,80.24,400.28,80.25L400.28,80.25z"/>
		</g>
	</g>
	<g>
		<g>
			<path class="st0" d="M499.89,30.25c16.72-0.02,33.43-0.05,50.15-0.07c1.93,0,1.93-3,0-3c-16.72,0.02-33.43,0.05-50.15,0.07
				C497.96,27.25,497.96,30.25,499.89,30.25L499.89,30.25z"/>
		</g>
	</g>
	<g>
		<g>
			<path class="st0" d="M500,80.13c16.68,0.05,33.37,0.1,50.05,0.15c1.93,0.01,1.93-2.99,0-3c-16.68-0.05-33.37-0.1-50.05-0.15
				C498.07,77.13,498.06,80.13,500,80.13L500,80.13z"/>
		</g>
	</g>
	<g>
		<g>
			<path class="st0" d="M599.92,30.32c16.68,0.05,33.37,0.1,50.05,0.15c1.93,0.01,1.93-2.99,0-3c-16.68-0.05-33.37-0.1-50.05-0.15
				C597.99,27.32,597.99,30.32,599.92,30.32L599.92,30.32z"/>
		</g>
	</g>
	<g>
		<g>
			<path class="st0" d="M599.86,80.39c16.68,0.05,33.37,0.1,50.05,0.15c1.93,0.01,1.93-2.99,0-3c-16.68-0.05-33.37-0.1-50.05-0.15
				C597.93,77.39,597.92,80.39,599.86,80.39L599.86,80.39z"/>
		</g>
	</g>
	<g>
		<g>
			<path class="st0" d="M699.89,31.36c16.68,0.05,33.37,0.1,50.05,0.15c1.93,0.01,1.93-2.99,0-3c-16.68-0.05-33.37-0.1-50.05-0.15
				C697.96,28.35,697.96,31.35,699.89,31.36L699.89,31.36z"/>
		</g>
	</g>
	<g>
		<g>
			<path class="st0" d="M699.83,81.43c16.68,0.05,33.37,0.1,50.05,0.15c1.93,0.01,1.93-2.99,0-3c-16.68-0.05-33.37-0.1-50.05-0.15
				C697.89,78.42,697.89,81.42,699.83,81.43L699.83,81.43z"/>
		</g>
	</g>
	<g>
		<g>
			<path class="st0" d="M799.89,31.36c16.68,0.05,33.37,0.1,50.05,0.15c1.93,0.01,1.93-2.99,0-3c-16.68-0.05-33.37-0.1-50.05-0.15
				C797.96,28.35,797.96,31.35,799.89,31.36L799.89,31.36z"/>
		</g>
	</g>
	<g>
		<g>
			<path class="st0" d="M799.83,81.43c16.68,0.05,33.37,0.1,50.05,0.15c1.93,0.01,1.93-2.99,0-3c-16.68-0.05-33.37-0.1-50.05-0.15
				C797.89,78.42,797.89,81.42,799.83,81.43L799.83,81.43z"/>
		</g>
	</g>
</g>
<g id="Слой_1__x28_копия6_x29_">
	<g>
		<g>
			<path class="st1" d="M98.85,27.57c0.03,16.63,0.07,33.26,0.1,49.88c0,1.93,3,1.93,3,0c-0.03-16.63-0.07-33.26-0.1-49.88
				C101.85,25.64,98.85,25.64,98.85,27.57L98.85,27.57z"/>
		</g>
	</g>
	<g>
		<g>
			<path class="st1" d="M148.9,27.72c0.03,16.63,0.07,33.26,0.1,49.88c0,1.93,3,1.93,3,0c-0.03-16.63-0.07-33.26-0.1-49.88
				C151.9,25.79,148.9,25.79,148.9,27.72L148.9,27.72z"/>
		</g>
	</g>
	<g>
		<g>
			<path class="st1" d="M198.88,27.65c0.03,16.63,0.07,33.26,0.1,49.88c0,1.93,3,1.93,3,0c-0.03-16.63-0.07-33.26-0.1-49.88
				C201.87,25.72,198.87,25.71,198.88,27.65L198.88,27.65z"/>
		</g>
	</g>
	<g>
		<g>
			<path class="st1" d="M248.93,27.79c0.03,16.63,0.07,33.26,0.1,49.88c0,1.93,3,1.93,3,0c-0.03-16.63-0.07-33.26-0.1-49.88
				C251.93,25.86,248.93,25.86,248.93,27.79L248.93,27.79z"/>
		</g>
	</g>
	<g>
		<g>
			<path class="st1" d="M298.77,28.5c0.03,16.63,0.07,33.26,0.1,49.88c0,1.93,3,1.93,3,0c-0.03-16.63-0.07-33.26-0.1-49.88
				C301.77,26.57,298.77,26.57,298.77,28.5L298.77,28.5z"/>
		</g>
	</g>
	<g>
		<g>
			<path class="st1" d="M348.82,28.65c0.03,16.63,0.07,33.26,0.1,49.88c0,1.93,3,1.93,3,0c-0.03-16.63-0.07-33.26-0.1-49.88
				C351.82,26.72,348.82,26.71,348.82,28.65L348.82,28.65z"/>
		</g>
	</g>
	<g>
		<g>
			<path class="st1" d="M398.8,28.58c0.03,16.63,0.07,33.26,0.1,49.88c0,1.93,3,1.93,3,0c-0.03-16.63-0.07-33.26-0.1-49.88
				C401.79,26.64,398.79,26.64,398.8,28.58L398.8,28.58z"/>
		</g>
	</g>
	<g>
		<g>
			<path class="st1" d="M448.85,28.72c0.03,16.63,0.07,33.26,0.1,49.88c0,1.93,3,1.93,3,0c-0.03-16.63-0.07-33.26-0.1-49.88
				C451.85,26.79,448.85,26.79,448.85,28.72L448.85,28.72z"/>
		</g>
	</g>
	<g>
		<g>
			<path class="st1" d="M499.18,28.5c0.03,16.63,0.07,33.26,0.1,49.88c0,1.93,3,1.93,3,0c-0.03-16.63-0.07-33.26-0.1-49.88
				C502.17,26.57,499.17,26.57,499.18,28.5L499.18,28.5z"/>
		</g>
	</g>
	<g>
		<g>
			<path class="st1" d="M549.23,28.65c0.03,16.63,0.07,33.26,0.1,49.88c0,1.93,3,1.93,3,0c-0.03-16.63-0.07-33.26-0.1-49.88
				C552.22,26.72,549.22,26.71,549.23,28.65L549.23,28.65z"/>
		</g>
	</g>
	<g>
		<g>
			<path class="st1" d="M599.2,28.58c0.03,16.63,0.07,33.26,0.1,49.88c0,1.93,3,1.93,3,0c-0.03-16.63-0.07-33.26-0.1-49.88
				C602.2,26.64,599.2,26.64,599.2,28.58L599.2,28.58z"/>
		</g>
	</g>
	<g>
		<g>
			<path class="st1" d="M649.26,28.72c0.03,16.63,0.07,33.26,0.1,49.88c0,1.93,3,1.93,3,0c-0.03-16.63-0.07-33.26-0.1-49.88
				C652.25,26.79,649.25,26.79,649.26,28.72L649.26,28.72z"/>
		</g>
	</g>
	<g>
		<g>
			<path class="st1" d="M698.52,29.33c0.03,16.63,0.07,33.26,0.1,49.88c0,1.93,3,1.93,3,0c-0.03-16.63-0.07-33.26-0.1-49.88
				C701.51,27.4,698.51,27.4,698.52,29.33L698.52,29.33z"/>
		</g>
	</g>
	<g>
		<g>
			<path class="st1" d="M748.57,29.48c0.03,16.63,0.07,33.26,0.1,49.88c0,1.93,3,1.93,3,0c-0.03-16.63-0.07-33.26-0.1-49.88
				C751.57,27.55,748.57,27.54,748.57,29.48L748.57,29.48z"/>
		</g>
	</g>
	<g>
		<g>
			<path class="st1" d="M798.54,29.4c0.03,16.63,0.07,33.26,0.1,49.88c0,1.93,3,1.93,3,0c-0.03-16.63-0.07-33.26-0.1-49.88
				C801.54,27.47,798.54,27.47,798.54,29.4L798.54,29.4z"/>
		</g>
	</g>
	<g>
		<g>
			<path class="st1" d="M848.6,29.55c0.03,16.63,0.07,33.26,0.1,49.88c0,1.93,3,1.93,3,0c-0.03-16.63-0.07-33.26-0.1-49.88
				C851.59,27.62,848.59,27.62,848.6,29.55L848.6,29.55z"/>
		</g>
	</g>
</g>
<g id="Слой_1__x28_копия5_x29_">
	<g>
		<g>
			<path class="st2" d="M99.29,26.51c-0.52,0.48-0.81,1.27-1.1,1.89c-0.62,1.33-1.18,2.7-1.72,4.06c-1.63,4.08-3.06,8.25-4.35,12.45
				c-1.59,5.17-2.96,10.42-3.93,15.74c-0.89,4.91-1.55,9.98-1.17,14.97c0.29,3.83,1.18,8.02,4.02,10.82
				c1.38,1.36,3.22,2.29,4.91,3.19c1.95,1.04,3.97,1.95,6.01,2.79c9.11,3.73,18.89,5.64,28.62,6.8c11.23,1.34,22.57,1.58,33.86,1.29
				c12.05-0.32,24.08-1.28,36.05-2.62c11.72-1.32,23.4-3.01,35.03-4.96c10.22-1.71,20.41-3.63,30.57-5.71
				c7.55-1.54,15.08-3.18,22.61-4.84c3.8-0.84,7.61-1.81,11.46-2.41c-0.85,0.13,0.07,0.02,0.07,0c0.01-0.02,0.13,0.01,0.14,0
				c-0.2,0.11-0.76-0.26-0.95-0.41c1.51,1.17,3.64-0.94,2.12-2.12c-0.98-0.77-2.2-0.38-3.33-0.17c-1.77,0.33-3.54,0.73-5.3,1.11
				c-6.4,1.4-12.8,2.84-19.22,4.2c-9.3,1.97-18.63,3.84-27.99,5.54c-11.09,2.02-22.22,3.82-33.39,5.31
				c-11.87,1.59-23.8,2.83-35.75,3.55c-11.55,0.69-23.15,0.91-34.71,0.23c-10.18-0.6-20.39-1.87-30.22-4.64
				c-4.23-1.19-8.4-2.67-12.36-4.59c-3.4-1.65-6.53-3.06-8-6.5c-1.55-3.62-1.52-8.21-1.23-12.2c0.37-5.2,1.41-10.35,2.67-15.4
				c1.22-4.91,2.7-9.75,4.36-14.52c1.13-3.23,2.34-6.52,3.64-9.35c0.17-0.38,0.35-0.76,0.55-1.12c0.06-0.11,0.14-0.22,0.19-0.33
				c0.15-0.33-0.19,0.2-0.06,0.08C102.83,27.32,100.7,25.2,99.29,26.51L99.29,26.51z"/>
		</g>
	</g>
	<g>
		<g>
			<path class="st2" d="M150.5,79c4.38-0.03,8.26-1.6,11.33-4.74c3.62-3.71,6.08-8.49,8.68-12.92c3.51-5.99,7.22-11.87,10.95-17.72
				c2.45-3.84,4.93-7.88,8.36-10.94c3.02-2.7,6.7-3.66,10.68-3.68c1.93-0.01,1.93-3.01,0-3c-3.74,0.02-7.46,0.73-10.6,2.84
				c-3.49,2.34-6.05,5.81-8.39,9.24c-3.69,5.41-7.1,11.05-10.53,16.63c-3.06,4.99-5.73,10.3-9.22,15.01
				c-1.33,1.8-2.9,3.51-4.83,4.67c-1.96,1.17-4.16,1.6-6.42,1.62C148.57,76.01,148.57,79.01,150.5,79L150.5,79z"/>
		</g>
	</g>
	<g>
		<g>
			<path class="st2" d="M300.5,27c-3.93,0.04-7.36,2.38-10.19,4.91c-3.77,3.37-6.88,7.45-9.86,11.5
				c-6.49,8.83-12.1,18.56-19.74,26.48c-1.59,1.65-3.29,3.22-5.24,4.43c-1.6,0.99-3.27,1.66-4.98,1.68c-1.93,0.02-1.93,3.02,0,3
				c3.93-0.04,7.36-2.38,10.19-4.91c3.77-3.37,6.88-7.45,9.86-11.5c6.49-8.83,12.1-18.56,19.74-26.48c1.59-1.65,3.29-3.22,5.24-4.43
				c1.6-0.99,3.27-1.66,4.98-1.68C302.43,29.98,302.43,26.98,300.5,27L300.5,27z"/>
		</g>
	</g>
	<g>
		<g>
			<path class="st2" d="M350.39,29.85c16.66-0.02,33.32-0.05,49.97-0.07c1.93,0,1.93-3,0-3c-16.66,0.02-33.32,0.05-49.97,0.07
				C348.46,26.85,348.45,29.85,350.39,29.85L350.39,29.85z"/>
		</g>
	</g>
	<g>
		<g>
			<path class="st2" d="M450.42,29.92c16.64-0.01,33.29-0.03,49.93-0.04c1.93,0,1.93-3,0-3c-16.64,0.01-33.29,0.03-49.93,0.04
				C448.48,26.92,448.48,29.92,450.42,29.92L450.42,29.92z"/>
		</g>
	</g>
	<g>
		<g>
			<path class="st2" d="M550.4,30.02c16.66-0.02,33.32-0.05,49.97-0.07c1.93,0,1.93-3,0-3c-16.66,0.02-33.32,0.05-49.97,0.07
				C548.47,27.03,548.46,30.03,550.4,30.02L550.4,30.02z"/>
		</g>
	</g>
	<g>
		<g>
			<path class="st2" d="M650.42,30.1c16.63,0.14,33.27,0.28,49.9,0.41c1.93,0.02,1.93-2.98,0-3c-16.63-0.14-33.27-0.28-49.9-0.41
				C648.49,27.08,648.49,30.08,650.42,30.1L650.42,30.1z"/>
		</g>
	</g>
	<g>
		<g>
			<path class="st2" d="M800.35,27.58c-16.78-0.03-33.57-0.05-50.35-0.08c-1.93,0-1.93,3,0,3c16.78,0.03,33.57,0.05,50.35,0.08
				C802.28,30.59,802.29,27.59,800.35,27.58L800.35,27.58z"/>
		</g>
	</g>
	<g>
		<g>
			<path class="st2" d="M849.35,30.29c4.11,4.06,7.18,9.28,8.81,14.82c2.61,8.86,1.3,18.43-3.35,26.37
				c-1.37,2.33-2.98,4.51-4.86,6.46c-1.34,1.39,0.78,3.51,2.12,2.12c4.78-4.95,8.21-11.35,9.64-18.08
				c2.01-9.5,0.05-19.44-5.22-27.57c-1.45-2.24-3.12-4.37-5.02-6.24C850.09,26.81,847.97,28.93,849.35,30.29L849.35,30.29z"/>
		</g>
	</g>
	<g>
		<g>
			<path class="st2" d="M99.44,78.56c3.78,4.81,9.45,7.84,15.07,9.98c7.06,2.69,14.61,4.05,22.11,4.78
				c8.13,0.79,16.35,0.76,24.48-0.02c7.66-0.73,15.34-2.08,22.66-4.49c6.43-2.13,13.18-5.12,17.8-10.24
				c1.29-1.43-0.82-3.56-2.12-2.12c-3.78,4.19-9.11,6.81-14.34,8.73c-6.87,2.52-14.13,4-21.38,4.85
				c-15.07,1.76-31.19,1.33-45.71-3.42c-6.12-2-12.38-4.99-16.45-10.16C100.37,74.92,98.26,77.06,99.44,78.56L99.44,78.56z"/>
		</g>
	</g>
	<g>
		<g>
			<path class="st2" d="M252,28.5c0.6-5.76-4.61-9.7-9.24-11.9c-7.43-3.53-15.83-4.94-23.94-5.84c-9.78-1.09-19.69-1.19-29.5-0.46
				c-8.74,0.65-17.66,1.86-25.97,4.76c-5.3,1.85-12.06,4.79-13.97,10.61c-0.2,0.6-0.3,1.21-0.37,1.84c-0.24,1.91,2.77,1.89,3,0
				c-0.05,0.4,0.06-0.28,0.09-0.43c0.07-0.28,0.15-0.54,0.24-0.81c0.02-0.06,0.17-0.42,0.08-0.22c-0.08,0.19,0.07-0.15,0.1-0.21
				c0.13-0.24,0.25-0.49,0.4-0.72c0.14-0.22,0.29-0.44,0.44-0.65c0.22-0.3-0.09,0.1,0.08-0.11c0.1-0.12,0.2-0.24,0.31-0.36
				c0.41-0.47,0.86-0.9,1.33-1.3c0.84-0.72,2-1.5,3.23-2.18c1.39-0.77,2.8-1.41,4.17-1.94c7.62-2.96,15.9-4.27,24-5.03
				c9.39-0.88,18.89-0.94,28.29-0.17c8.07,0.66,16.33,1.86,23.93,4.74c1.41,0.54,2.72,1.11,4.14,1.89c1.2,0.66,2.4,1.46,3.19,2.14
				c0.45,0.39,0.88,0.8,1.27,1.25c0.23,0.26,0.36,0.43,0.35,0.42c0.18,0.24,0.34,0.49,0.5,0.74c0.13,0.22,0.25,0.44,0.36,0.67
				c0.03,0.06,0.18,0.4,0.1,0.21c-0.08-0.19,0.07,0.19,0.1,0.27c0.07,0.24,0.15,0.47,0.21,0.71c0.03,0.12,0.05,0.24,0.08,0.36
				c0.09,0.43,0-0.17,0.03,0.18c0.04,0.53,0.04,1.04-0.01,1.57C248.8,30.42,251.8,30.4,252,28.5L252,28.5z"/>
		</g>
	</g>
	<g>
		<g>
			<path class="st2" d="M350.8,79.03c16.66-0.02,33.32-0.05,49.97-0.07c1.93,0,1.93-3,0-3c-16.66,0.02-33.32,0.05-49.97,0.07
				C348.87,76.03,348.87,79.03,350.8,79.03L350.8,79.03z"/>
		</g>
	</g>
	<g>
		<g>
			<path class="st2" d="M450.83,79.1c16.64-0.01,33.29-0.03,49.93-0.04c1.93,0,1.93-3,0-3c-16.64,0.01-33.29,0.03-49.93,0.04
				C448.9,76.1,448.9,79.1,450.83,79.1L450.83,79.1z"/>
		</g>
	</g>
	<g>
		<g>
			<path class="st2" d="M550.81,79.2c16.66-0.02,33.32-0.05,49.97-0.07c1.93,0,1.93-3,0-3c-16.66,0.02-33.32,0.05-49.97,0.07
				C548.88,76.2,548.88,79.2,550.81,79.2L550.81,79.2z"/>
		</g>
	</g>
	<g>
		<g>
			<path class="st2" d="M650.84,79.27c16.63,0.14,33.27,0.28,49.9,0.41c1.93,0.02,1.93-2.98,0-3c-16.63-0.14-33.27-0.28-49.9-0.41
				C648.91,76.26,648.9,79.26,650.84,79.27L650.84,79.27z"/>
		</g>
	</g>
	<g>
		<g>
			<path class="st2" d="M800.77,76.76c-16.78-0.03-33.57-0.05-50.35-0.08c-1.93,0-1.93,3,0,3c16.78,0.03,33.57,0.05,50.35,0.08
				C802.7,79.76,802.7,76.76,800.77,76.76L800.77,76.76z"/>
		</g>
	</g>
</g>
<g id="Слой_1__x28_копия4_x29_">
	<g>
		<g>
			<path class="st3" d="M100.35,30.57c3.86,0,3.87-6,0-6C96.49,24.57,96.48,30.57,100.35,30.57L100.35,30.57z"/>
		</g>
	</g>
	<g>
		<g>
			<path class="st3" d="M100.45,80.46c3.86,0,3.87-6,0-6C96.59,74.46,96.58,80.46,100.45,80.46L100.45,80.46z"/>
		</g>
	</g>
	<g>
		<g>
			<path class="st3" d="M150.4,30.72c3.86,0,3.87-6,0-6C146.54,24.72,146.54,30.72,150.4,30.72L150.4,30.72z"/>
		</g>
	</g>
	<g>
		<g>
			<path class="st3" d="M150.51,80.6c3.86,0,3.87-6,0-6C146.64,74.6,146.64,80.6,150.51,80.6L150.51,80.6z"/>
		</g>
	</g>
	<g>
		<g>
			<path class="st3" d="M200.38,30.65c3.86,0,3.87-6,0-6C196.52,24.65,196.51,30.65,200.38,30.65L200.38,30.65z"/>
		</g>
	</g>
	<g>
		<g>
			<path class="st3" d="M200.48,80.53c3.86,0,3.87-6,0-6C196.62,74.53,196.61,80.53,200.48,80.53L200.48,80.53z"/>
		</g>
	</g>
	<g>
		<g>
			<path class="st3" d="M250.43,30.79c3.86,0,3.87-6,0-6C246.57,24.79,246.56,30.79,250.43,30.79L250.43,30.79z"/>
		</g>
	</g>
	<g>
		<g>
			<path class="st3" d="M250.53,80.68c3.86,0,3.87-6,0-6C246.67,74.68,246.67,80.68,250.53,80.68L250.53,80.68z"/>
		</g>
	</g>
	<g>
		<g>
			<path class="st3" d="M300.33,31.2c3.86,0,3.87-6,0-6C296.47,25.2,296.47,31.2,300.33,31.2L300.33,31.2z"/>
		</g>
	</g>
	<g>
		<g>
			<path class="st3" d="M300.44,81.09c3.86,0,3.87-6,0-6C296.58,75.09,296.57,81.09,300.44,81.09L300.44,81.09z"/>
		</g>
	</g>
	<g>
		<g>
			<path class="st3" d="M350.39,31.35c3.86,0,3.87-6,0-6C346.53,25.35,346.52,31.35,350.39,31.35L350.39,31.35z"/>
		</g>
	</g>
	<g>
		<g>
			<path class="st3" d="M350.49,81.23c3.86,0,3.87-6,0-6C346.63,75.23,346.62,81.23,350.49,81.23L350.49,81.23z"/>
		</g>
	</g>
	<g>
		<g>
			<path class="st3" d="M400.36,31.28c3.86,0,3.87-6,0-6C396.5,25.28,396.49,31.28,400.36,31.28L400.36,31.28z"/>
		</g>
	</g>
	<g>
		<g>
			<path class="st3" d="M400.46,81.16c3.86,0,3.87-6,0-6C396.6,75.16,396.6,81.16,400.46,81.16L400.46,81.16z"/>
		</g>
	</g>
	<g>
		<g>
			<path class="st3" d="M450.42,31.42c3.86,0,3.87-6,0-6C446.55,25.42,446.55,31.42,450.42,31.42L450.42,31.42z"/>
		</g>
	</g>
	<g>
		<g>
			<path class="st3" d="M450.52,81.31c3.86,0,3.87-6,0-6C446.66,75.31,446.65,81.31,450.52,81.31L450.52,81.31z"/>
		</g>
	</g>
	<g>
		<g>
			<path class="st3" d="M500.34,31.38c3.86,0,3.87-6,0-6C496.48,25.38,496.48,31.38,500.34,31.38L500.34,31.38z"/>
		</g>
	</g>
	<g>
		<g>
			<path class="st3" d="M500.44,81.26c3.86,0,3.87-6,0-6C496.58,75.26,496.58,81.26,500.44,81.26L500.44,81.26z"/>
		</g>
	</g>
	<g>
		<g>
			<path class="st3" d="M550.4,31.52c3.86,0,3.87-6,0-6C546.54,25.52,546.53,31.52,550.4,31.52L550.4,31.52z"/>
		</g>
	</g>
	<g>
		<g>
			<path class="st3" d="M550.5,81.41c3.86,0,3.87-6,0-6C546.64,75.41,546.63,81.41,550.5,81.41L550.5,81.41z"/>
		</g>
	</g>
	<g>
		<g>
			<path class="st3" d="M600.37,31.45c3.86,0,3.87-6,0-6C596.51,25.45,596.5,31.45,600.37,31.45L600.37,31.45z"/>
		</g>
	</g>
	<g>
		<g>
			<path class="st3" d="M600.47,81.33c3.86,0,3.87-6,0-6C596.61,75.33,596.6,81.33,600.47,81.33L600.47,81.33z"/>
		</g>
	</g>
	<g>
		<g>
			<path class="st3" d="M650.42,31.6c3.86,0,3.87-6,0-6C646.56,25.6,646.56,31.6,650.42,31.6L650.42,31.6z"/>
		</g>
	</g>
	<g>
		<g>
			<path class="st3" d="M650.52,81.48c3.86,0,3.87-6,0-6C646.66,75.48,646.66,81.48,650.52,81.48L650.52,81.48z"/>
		</g>
	</g>
	<g>
		<g>
			<path class="st3" d="M700.33,32.01c3.86,0,3.87-6,0-6C696.47,26.01,696.46,32.01,700.33,32.01L700.33,32.01z"/>
		</g>
	</g>
	<g>
		<g>
			<path class="st3" d="M700.43,81.89c3.86,0,3.87-6,0-6C696.57,75.89,696.56,81.89,700.43,81.89L700.43,81.89z"/>
		</g>
	</g>
	<g>
		<g>
			<path class="st3" d="M750.38,32.15c3.86,0,3.87-6,0-6C746.52,26.15,746.51,32.15,750.38,32.15L750.38,32.15z"/>
		</g>
	</g>
	<g>
		<g>
			<path class="st3" d="M750.48,82.04c3.86,0,3.87-6,0-6C746.62,76.04,746.61,82.04,750.48,82.04L750.48,82.04z"/>
		</g>
	</g>
	<g>
		<g>
			<path class="st3" d="M800.35,32.08c3.86,0,3.87-6,0-6C796.49,26.08,796.49,32.08,800.35,32.08L800.35,32.08z"/>
		</g>
	</g>
	<g>
		<g>
			<path class="st3" d="M800.45,81.97c3.86,0,3.87-6,0-6C796.59,75.97,796.59,81.97,800.45,81.97L800.45,81.97z"/>
		</g>
	</g>
	<g>
		<g>
			<path class="st3" d="M850.41,32.23c3.86,0,3.87-6,0-6C846.55,26.23,846.54,32.23,850.41,32.23L850.41,32.23z"/>
		</g>
	</g>
	<g>
		<g>
			<path class="st3" d="M850.51,82.11c3.86,0,3.87-6,0-6C846.65,76.11,846.64,82.11,850.51,82.11L850.51,82.11z"/>
		</g>
	</g>
	<g>
		<g>
			<path class="st0" d="M98.19,128.99c16.72-0.02,33.43-0.05,50.15-0.07c1.93,0,1.93-3,0-3c-16.72,0.02-33.43,0.05-50.15,0.07
				C96.26,125.99,96.26,128.99,98.19,128.99L98.19,128.99z"/>
		</g>
	</g>
	<g>
		<g>
			<path class="st0" d="M98.29,178.87c16.68,0.05,33.37,0.1,50.05,0.15c1.93,0.01,1.93-2.99,0-3c-16.68-0.05-33.37-0.1-50.05-0.15
				C96.36,175.86,96.36,178.86,98.29,178.87L98.29,178.87z"/>
		</g>
	</g>
	<g>
		<g>
			<path class="st0" d="M198.22,129.06c16.68,0.05,33.37,0.1,50.05,0.15c1.93,0.01,1.93-2.99,0-3c-16.68-0.05-33.37-0.1-50.05-0.15
				C196.29,126.05,196.28,129.05,198.22,129.06L198.22,129.06z"/>
		</g>
	</g>
	<g>
		<g>
			<path class="st0" d="M198.15,179.13c16.68,0.05,33.37,0.1,50.05,0.15c1.93,0.01,1.93-2.99,0-3c-16.68-0.05-33.37-0.1-50.05-0.15
				C196.22,176.12,196.22,179.12,198.15,179.13L198.15,179.13z"/>
		</g>
	</g>
	<g>
		<g>
			<path class="st1" d="M96.69,127.49c0.03,16.63,0.07,33.26,0.1,49.88c0,1.93,3,1.93,3,0c-0.03-16.63-0.07-33.26-0.1-49.88
				C99.69,125.56,96.69,125.55,96.69,127.49L96.69,127.49z"/>
		</g>
	</g>
	<g>
		<g>
			<path class="st1" d="M146.75,127.63c0.03,16.63,0.07,33.26,0.1,49.88c0,1.93,3,1.93,3,0c-0.03-16.63-0.07-33.26-0.1-49.88
				C149.74,125.7,146.74,125.7,146.75,127.63L146.75,127.63z"/>
		</g>
	</g>
	<g>
		<g>
			<path class="st1" d="M196.72,127.56c0.03,16.63,0.07,33.26,0.1,49.88c0,1.93,3,1.93,3,0c-0.03-16.63-0.07-33.26-0.1-49.88
				C199.71,125.63,196.71,125.62,196.72,127.56L196.72,127.56z"/>
		</g>
	</g>
	<g>
		<g>
			<path class="st1" d="M246.77,127.7c0.03,16.63,0.07,33.26,0.1,49.88c0,1.93,3,1.93,3,0c-0.03-16.63-0.07-33.26-0.1-49.88
				C249.77,125.77,246.77,125.77,246.77,127.7L246.77,127.7z"/>
		</g>
	</g>
	<g>
		<g>
			<path class="st2" d="M97.13,126.43c-0.52,0.48-0.81,1.27-1.1,1.89c-0.62,1.33-1.18,2.7-1.72,4.06
				c-1.63,4.08-3.06,8.25-4.35,12.45c-1.59,5.17-2.96,10.42-3.93,15.74c-0.89,4.91-1.55,9.98-1.17,14.97
				c0.29,3.83,1.18,8.02,4.02,10.82c1.38,1.36,3.22,2.29,4.91,3.19c1.95,1.04,3.97,1.95,6.01,2.79c9.11,3.73,18.89,5.64,28.62,6.8
				c11.23,1.34,22.57,1.58,33.86,1.29c12.05-0.32,24.08-1.28,36.05-2.62c11.72-1.32,23.4-3.01,35.03-4.96
				c10.22-1.71,20.41-3.63,30.57-5.71c7.55-1.54,15.08-3.18,22.61-4.84c3.8-0.84,7.61-1.81,11.46-2.41c-0.85,0.13,0.07,0.02,0.07,0
				c0.01-0.02,0.13,0.01,0.14,0c-0.2,0.11-0.76-0.26-0.95-0.41c1.51,1.17,3.64-0.94,2.12-2.12c-0.98-0.77-2.2-0.38-3.33-0.17
				c-1.77,0.33-3.54,0.73-5.3,1.11c-6.4,1.4-12.8,2.84-19.22,4.2c-9.3,1.97-18.63,3.84-27.99,5.54
				c-11.09,2.02-22.22,3.82-33.39,5.31c-11.87,1.59-23.8,2.83-35.75,3.55c-11.55,0.69-23.15,0.91-34.71,0.23
				c-10.18-0.6-20.39-1.87-30.22-4.64c-4.23-1.19-8.4-2.67-12.36-4.59c-3.4-1.65-6.53-3.06-8-6.5c-1.55-3.62-1.52-8.21-1.23-12.2
				c0.37-5.2,1.41-10.35,2.67-15.4c1.22-4.91,2.7-9.75,4.36-14.52c1.13-3.23,2.33-6.52,3.64-9.35c0.17-0.38,0.35-0.76,0.55-1.12
				c0.06-0.11,0.14-0.22,0.19-0.33c0.15-0.33-0.19,0.2-0.06,0.08C100.67,127.23,98.54,125.11,97.13,126.43L97.13,126.43z"/>
		</g>
	</g>
	<g>
		<g>
			<path class="st2" d="M148.34,178.91c4.38-0.03,8.26-1.6,11.33-4.74c3.62-3.71,6.08-8.49,8.68-12.92
				c3.51-5.99,7.22-11.87,10.95-17.72c2.45-3.84,4.93-7.88,8.36-10.94c3.02-2.7,6.7-3.66,10.68-3.68c1.93-0.01,1.93-3.01,0-3
				c-3.74,0.02-7.46,0.73-10.6,2.84c-3.49,2.34-6.05,5.81-8.39,9.24c-3.69,5.41-7.1,11.05-10.53,16.63
				c-3.06,4.99-5.73,10.3-9.22,15.01c-1.33,1.8-2.9,3.51-4.83,4.67c-1.96,1.17-4.16,1.6-6.42,1.62
				C146.41,175.93,146.41,178.93,148.34,178.91L148.34,178.91z"/>
		</g>
	</g>
	<g>
		<g>
			<path class="st2" d="M298.34,126.91c-3.93,0.04-7.36,2.38-10.19,4.91c-3.77,3.37-6.88,7.45-9.86,11.5
				c-6.49,8.83-12.1,18.56-19.74,26.48c-1.59,1.65-3.29,3.22-5.24,4.43c-1.6,0.99-3.27,1.66-4.98,1.68c-1.93,0.02-1.93,3.02,0,3
				c3.93-0.04,7.36-2.38,10.19-4.91c3.77-3.37,6.88-7.45,9.86-11.5c6.49-8.83,12.1-18.56,19.74-26.48c1.59-1.65,3.29-3.22,5.24-4.43
				c1.6-0.99,3.27-1.66,4.98-1.68C300.27,129.89,300.28,126.89,298.34,126.91L298.34,126.91z"/>
		</g>
	</g>
	<g>
		<g>
			<path class="st2" d="M97.28,178.47c3.78,4.81,9.45,7.84,15.07,9.98c7.06,2.69,14.61,4.05,22.11,4.78
				c8.13,0.79,16.35,0.76,24.48-0.02c7.66-0.73,15.34-2.08,22.66-4.49c6.43-2.13,13.18-5.12,17.8-10.24
				c1.29-1.43-0.82-3.56-2.12-2.12c-3.78,4.19-9.11,6.81-14.34,8.73c-6.87,2.52-14.13,4-21.38,4.85
				c-15.07,1.76-31.19,1.33-45.71-3.42c-6.12-2-12.38-4.99-16.45-10.16C98.21,174.83,96.1,176.97,97.28,178.47L97.28,178.47z"/>
		</g>
	</g>
	<g>
		<g>
			<path class="st2" d="M249.84,128.41c0.6-5.76-4.61-9.7-9.24-11.9c-7.43-3.53-15.83-4.94-23.94-5.84
				c-9.78-1.09-19.69-1.19-29.5-0.46c-8.74,0.65-17.66,1.86-25.97,4.76c-5.3,1.85-12.06,4.79-13.97,10.61
				c-0.2,0.6-0.3,1.21-0.37,1.84c-0.24,1.91,2.77,1.89,3,0c-0.05,0.4,0.06-0.28,0.09-0.43c0.07-0.28,0.15-0.54,0.24-0.81
				c0.02-0.06,0.17-0.42,0.08-0.22c-0.08,0.19,0.07-0.15,0.1-0.21c0.13-0.24,0.25-0.49,0.4-0.72c0.14-0.22,0.29-0.44,0.44-0.65
				c0.22-0.3-0.09,0.1,0.08-0.11c0.1-0.12,0.2-0.24,0.31-0.36c0.41-0.47,0.86-0.9,1.33-1.3c0.84-0.72,2-1.5,3.23-2.18
				c1.39-0.77,2.8-1.41,4.17-1.94c7.62-2.96,15.9-4.27,24-5.03c9.39-0.88,18.89-0.94,28.29-0.17c8.07,0.66,16.33,1.86,23.93,4.74
				c1.41,0.54,2.72,1.11,4.14,1.89c1.2,0.66,2.4,1.46,3.19,2.14c0.45,0.39,0.88,0.8,1.27,1.25c0.23,0.26,0.36,0.43,0.35,0.42
				c0.18,0.24,0.34,0.49,0.5,0.74c0.13,0.22,0.25,0.44,0.36,0.67c0.03,0.06,0.18,0.4,0.1,0.21c-0.08-0.19,0.07,0.19,0.1,0.27
				c0.07,0.24,0.15,0.47,0.21,0.71c0.03,0.12,0.05,0.24,0.08,0.36c0.09,0.43,0-0.17,0.03,0.18c0.04,0.53,0.04,1.04-0.01,1.57
				C246.64,130.33,249.64,130.32,249.84,128.41L249.84,128.41z"/>
		</g>
	</g>
	<g>
		<g>
			<path class="st3" d="M98.19,130.49c3.86,0,3.87-6,0-6C94.33,124.49,94.32,130.49,98.19,130.49L98.19,130.49z"/>
		</g>
	</g>
	<g>
		<g>
			<path class="st3" d="M98.29,180.37c3.86,0,3.87-6,0-6C94.43,174.37,94.43,180.37,98.29,180.37L98.29,180.37z"/>
		</g>
	</g>
	<g>
		<g>
			<path class="st3" d="M148.25,130.63c3.86,0,3.87-6,0-6C144.38,124.63,144.38,130.63,148.25,130.63L148.25,130.63z"/>
		</g>
	</g>
	<g>
		<g>
			<path class="st3" d="M148.35,180.51c3.86,0,3.87-6,0-6C144.49,174.51,144.48,180.51,148.35,180.51L148.35,180.51z"/>
		</g>
	</g>
	<g>
		<g>
			<path class="st3" d="M198.22,130.56c3.86,0,3.87-6,0-6C194.36,124.56,194.35,130.56,198.22,130.56L198.22,130.56z"/>
		</g>
	</g>
	<g>
		<g>
			<path class="st3" d="M198.32,180.44c3.86,0,3.87-6,0-6C194.46,174.44,194.45,180.44,198.32,180.44L198.32,180.44z"/>
		</g>
	</g>
	<g>
		<g>
			<path class="st3" d="M248.27,130.7c3.86,0,3.87-6,0-6C244.41,124.7,244.4,130.7,248.27,130.7L248.27,130.7z"/>
		</g>
	</g>
	<g>
		<g>
			<path class="st3" d="M248.37,180.59c3.86,0,3.87-6,0-6C244.51,174.59,244.51,180.59,248.37,180.59L248.37,180.59z"/>
		</g>
	</g>
</g>
<g id="Слой_1_копия_3">
	<g>
		<g>
			<path class="st0" d="M300.35,130.18c16.68,0.05,33.37,0.1,50.05,0.15c1.93,0.01,1.93-2.99,0-3c-16.68-0.05-33.37-0.1-50.05-0.15
				C298.41,127.18,298.41,130.18,300.35,130.18L300.35,130.18z"/>
		</g>
	</g>
	<g>
		<g>
			<path class="st0" d="M300.28,180.25c16.68,0.05,33.37,0.1,50.05,0.15c1.93,0.01,1.93-2.99,0-3c-16.68-0.05-33.37-0.1-50.05-0.15
				C298.35,177.24,298.35,180.24,300.28,180.25L300.28,180.25z"/>
		</g>
	</g>
	<g>
		<g>
			<path class="st0" d="M400.35,130.18c16.68,0.05,33.37,0.1,50.05,0.15c1.93,0.01,1.93-2.99,0-3c-16.68-0.05-33.37-0.1-50.05-0.15
				C398.41,127.18,398.41,130.18,400.35,130.18L400.35,130.18z"/>
		</g>
	</g>
	<g>
		<g>
			<path class="st0" d="M400.28,180.25c16.68,0.05,33.37,0.1,50.05,0.15c1.93,0.01,1.93-2.99,0-3c-16.68-0.05-33.37-0.1-50.05-0.15
				C398.35,177.24,398.35,180.24,400.28,180.25L400.28,180.25z"/>
		</g>
	</g>
	<g>
		<g>
			<path class="st0" d="M499.89,130.25c16.72-0.02,33.43-0.05,50.15-0.07c1.93,0,1.93-3,0-3c-16.72,0.02-33.43,0.05-50.15,0.07
				C497.96,127.25,497.96,130.25,499.89,130.25L499.89,130.25z"/>
		</g>
	</g>
	<g>
		<g>
			<path class="st0" d="M500,180.13c16.68,0.05,33.37,0.1,50.05,0.15c1.93,0.01,1.93-2.99,0-3c-16.68-0.05-33.37-0.1-50.05-0.15
				C498.07,177.13,498.06,180.13,500,180.13L500,180.13z"/>
		</g>
	</g>
	<g>
		<g>
			<path class="st0" d="M599.92,130.32c16.68,0.05,33.37,0.1,50.05,0.15c1.93,0.01,1.93-2.99,0-3c-16.68-0.05-33.37-0.1-50.05-0.15
				C597.99,127.32,597.99,130.32,599.92,130.32L599.92,130.32z"/>
		</g>
	</g>
	<g>
		<g>
			<path class="st0" d="M599.86,180.39c16.68,0.05,33.37,0.1,50.05,0.15c1.93,0.01,1.93-2.99,0-3c-16.68-0.05-33.37-0.1-50.05-0.15
				C597.93,177.39,597.92,180.39,599.86,180.39L599.86,180.39z"/>
		</g>
	</g>
	<g>
		<g>
			<path class="st0" d="M699.89,131.36c16.68,0.05,33.37,0.1,50.05,0.15c1.93,0.01,1.93-2.99,0-3c-16.68-0.05-33.37-0.1-50.05-0.15
				C697.96,128.35,697.96,131.35,699.89,131.36L699.89,131.36z"/>
		</g>
	</g>
	<g>
		<g>
			<path class="st0" d="M699.83,181.43c16.68,0.05,33.37,0.1,50.05,0.15c1.93,0.01,1.93-2.99,0-3c-16.68-0.05-33.37-0.1-50.05-0.15
				C697.89,178.42,697.89,181.42,699.83,181.43L699.83,181.43z"/>
		</g>
	</g>
	<g>
		<g>
			<path class="st0" d="M799.89,131.36c16.68,0.05,33.37,0.1,50.05,0.15c1.93,0.01,1.93-2.99,0-3c-16.68-0.05-33.37-0.1-50.05-0.15
				C797.96,128.35,797.96,131.35,799.89,131.36L799.89,131.36z"/>
		</g>
	</g>
	<g>
		<g>
			<path class="st0" d="M799.83,181.43c16.68,0.05,33.37,0.1,50.05,0.15c1.93,0.01,1.93-2.99,0-3c-16.68-0.05-33.37-0.1-50.05-0.15
				C797.89,178.42,797.89,181.42,799.83,181.43L799.83,181.43z"/>
		</g>
	</g>
</g>
<g id="Слой_1__x28_копия9_x29_">
	<g>
		<g>
			<path class="st1" d="M298.77,128.5c0.03,16.63,0.07,33.26,0.1,49.88c0,1.93,3,1.93,3,0c-0.03-16.63-0.07-33.26-0.1-49.88
				C301.77,126.57,298.77,126.57,298.77,128.5L298.77,128.5z"/>
		</g>
	</g>
	<g>
		<g>
			<path class="st1" d="M348.82,128.65c0.03,16.63,0.07,33.26,0.1,49.88c0,1.93,3,1.93,3,0c-0.03-16.63-0.07-33.26-0.1-49.88
				C351.82,126.72,348.82,126.71,348.82,128.65L348.82,128.65z"/>
		</g>
	</g>
	<g>
		<g>
			<path class="st1" d="M398.8,128.58c0.03,16.63,0.07,33.26,0.1,49.88c0,1.93,3,1.93,3,0c-0.03-16.63-0.07-33.26-0.1-49.88
				C401.79,126.64,398.79,126.64,398.8,128.58L398.8,128.58z"/>
		</g>
	</g>
	<g>
		<g>
			<path class="st1" d="M448.85,128.72c0.03,16.63,0.07,33.26,0.1,49.88c0,1.93,3,1.93,3,0c-0.03-16.63-0.07-33.26-0.1-49.88
				C451.85,126.79,448.85,126.79,448.85,128.72L448.85,128.72z"/>
		</g>
	</g>
	<g>
		<g>
			<path class="st1" d="M499.18,128.5c0.03,16.63,0.07,33.26,0.1,49.88c0,1.93,3,1.93,3,0c-0.03-16.63-0.07-33.26-0.1-49.88
				C502.17,126.57,499.17,126.57,499.18,128.5L499.18,128.5z"/>
		</g>
	</g>
	<g>
		<g>
			<path class="st1" d="M549.23,128.65c0.03,16.63,0.07,33.26,0.1,49.88c0,1.93,3,1.93,3,0c-0.03-16.63-0.07-33.26-0.1-49.88
				C552.22,126.72,549.22,126.71,549.23,128.65L549.23,128.65z"/>
		</g>
	</g>
	<g>
		<g>
			<path class="st1" d="M599.2,128.58c0.03,16.63,0.07,33.26,0.1,49.88c0,1.93,3,1.93,3,0c-0.03-16.63-0.07-33.26-0.1-49.88
				C602.2,126.64,599.2,126.64,599.2,128.58L599.2,128.58z"/>
		</g>
	</g>
	<g>
		<g>
			<path class="st1" d="M649.26,128.72c0.03,16.63,0.07,33.26,0.1,49.88c0,1.93,3,1.93,3,0c-0.03-16.63-0.07-33.26-0.1-49.88
				C652.25,126.79,649.25,126.79,649.26,128.72L649.26,128.72z"/>
		</g>
	</g>
	<g>
		<g>
			<path class="st1" d="M698.52,129.33c0.03,16.63,0.07,33.26,0.1,49.88c0,1.93,3,1.93,3,0c-0.03-16.63-0.07-33.26-0.1-49.88
				C701.51,127.4,698.51,127.4,698.52,129.33L698.52,129.33z"/>
		</g>
	</g>
	<g>
		<g>
			<path class="st1" d="M748.57,129.48c0.03,16.63,0.07,33.26,0.1,49.88c0,1.93,3,1.93,3,0c-0.03-16.63-0.07-33.26-0.1-49.88
				C751.57,127.55,748.57,127.54,748.57,129.48L748.57,129.48z"/>
		</g>
	</g>
	<g>
		<g>
			<path class="st1" d="M798.54,129.4c0.03,16.63,0.07,33.26,0.1,49.88c0,1.93,3,1.93,3,0c-0.03-16.63-0.07-33.26-0.1-49.88
				C801.54,127.47,798.54,127.47,798.54,129.4L798.54,129.4z"/>
		</g>
	</g>
	<g>
		<g>
			<path class="st1" d="M848.6,129.55c0.03,16.63,0.07,33.26,0.1,49.88c0,1.93,3,1.93,3,0c-0.03-16.63-0.07-33.26-0.1-49.88
				C851.59,127.62,848.59,127.62,848.6,129.55L848.6,129.55z"/>
		</g>
	</g>
</g>
<g id="Слой_1__x28_копия8_x29_">
	<g>
		<g>
			<path class="st2" d="M300.5,180c1.93,0,1.93-3,0-3C298.57,177,298.57,180,300.5,180L300.5,180z"/>
		</g>
	</g>
	<g>
		<g>
			<path class="st2" d="M350.5,130c1.51,0.01,3.02,0.51,4.45,1.3c1.76,0.98,3.31,2.29,4.74,3.7c3.71,3.62,6.76,7.88,9.7,12.13
				c3.29,4.75,6.41,9.62,9.7,14.37c2.98,4.29,6.07,8.61,9.78,12.31c3.1,3.1,7.03,6.15,11.63,6.19c1.93,0.02,1.93-2.98,0-3
				c-1.51-0.01-3.02-0.51-4.45-1.3c-1.76-0.98-3.31-2.29-4.74-3.7c-3.71-3.62-6.76-7.88-9.7-12.13c-3.29-4.75-6.41-9.62-9.7-14.37
				c-2.98-4.29-6.07-8.61-9.78-12.31c-3.1-3.1-7.03-6.15-11.63-6.19C348.57,126.98,348.57,129.98,350.5,130L350.5,130z"/>
		</g>
	</g>
	<g>
		<g>
			<path class="st2" d="M401.56,129.56c3.79-4.02,9.13-6.37,14.29-8.07c6.81-2.25,13.95-3.5,21.08-4.19
				c15.12-1.46,31.05-0.86,45.7,3.4c5.95,1.73,12.29,4.17,16.65,8.74c1.34,1.4,3.45-0.72,2.12-2.12c-4.07-4.26-9.72-6.81-15.22-8.65
				c-7.13-2.39-14.63-3.65-22.09-4.37c-8.14-0.78-16.36-0.85-24.52-0.22c-7.62,0.58-15.28,1.73-22.61,3.92
				c-6.28,1.88-12.93,4.58-17.52,9.45C398.12,128.84,400.23,130.97,401.56,129.56L401.56,129.56z"/>
		</g>
	</g>
	<g>
		<g>
			<path class="st2" d="M550.4,130.02c16.66-0.02,33.32-0.05,49.97-0.07c1.93,0,1.93-3,0-3c-16.66,0.02-33.32,0.05-49.97,0.07
				C548.47,127.03,548.46,130.03,550.4,130.02L550.4,130.02z"/>
		</g>
	</g>
	<g>
		<g>
			<path class="st2" d="M650.42,130.1c16.63,0.14,33.27,0.28,49.9,0.41c1.93,0.02,1.93-2.98,0-3c-16.63-0.14-33.27-0.28-49.9-0.41
				C648.49,127.08,648.49,130.08,650.42,130.1L650.42,130.1z"/>
		</g>
	</g>
	<g>
		<g>
			<path class="st2" d="M800.35,127.58c-16.78-0.03-33.57-0.05-50.35-0.08c-1.93,0-1.93,3,0,3c16.78,0.03,33.57,0.05,50.35,0.08
				C802.28,130.59,802.29,127.59,800.35,127.58L800.35,127.58z"/>
		</g>
	</g>
	<g>
		<g>
			<path class="st2" d="M849.35,130.29c4.11,4.06,7.18,9.28,8.81,14.82c2.61,8.86,1.3,18.43-3.35,26.37
				c-1.37,2.33-2.98,4.51-4.86,6.46c-1.34,1.39,0.78,3.51,2.12,2.12c4.78-4.95,8.21-11.35,9.64-18.08
				c2.01-9.5,0.05-19.44-5.22-27.57c-1.45-2.24-3.12-4.37-5.02-6.24C850.09,126.81,847.97,128.93,849.35,130.29L849.35,130.29z"/>
		</g>
	</g>
	<g>
		<g>
			<path class="st2" d="M300.5,130c1.93,0,1.93-3,0-3C298.57,127,298.57,130,300.5,130L300.5,130z"/>
		</g>
	</g>
	<g>
		<g>
			<path class="st2" d="M349.44,179.56c4.08,3.91,9.76,6.02,15.08,7.58c7.32,2.15,14.95,3.27,22.54,3.94
				c8.28,0.73,16.63,0.84,24.93,0.34c7.63-0.46,15.31-1.4,22.71-3.35c5.93-1.56,12.62-3.82,16.85-8.51
				c1.29-1.43-0.82-3.56-2.12-2.12c-3.38,3.74-8.63,5.73-13.47,7.17c-6.94,2.06-14.17,3.08-21.38,3.64
				c-15.43,1.19-31.55,0.58-46.59-3.26c-5.7-1.46-12.21-3.49-16.44-7.54C350.17,176.1,348.04,178.22,349.44,179.56L349.44,179.56z"
				/>
		</g>
	</g>
	<g>
		<g>
			<path class="st2" d="M450.5,130c1.5,0.01,3.04,0.5,4.45,1.28c1.76,0.96,3.32,2.24,4.76,3.62c3.71,3.55,6.8,7.72,9.77,11.89
				c3.31,4.66,6.46,9.44,9.78,14.09c3.02,4.25,6.17,8.51,9.92,12.15c3.12,3.03,7.03,5.97,11.58,6.01c1.93,0.02,1.93-2.98,0-3
				c-1.5-0.01-3.04-0.5-4.45-1.28c-1.76-0.96-3.32-2.24-4.76-3.62c-3.71-3.55-6.8-7.72-9.77-11.89c-3.31-4.66-6.46-9.44-9.78-14.09
				c-3.02-4.25-6.17-8.51-9.92-12.15c-3.12-3.03-7.03-5.97-11.58-6.01C448.57,126.98,448.57,129.98,450.5,130L450.5,130z"/>
		</g>
	</g>
	<g>
		<g>
			<path class="st2" d="M550.81,179.2c16.66-0.02,33.32-0.05,49.97-0.07c1.93,0,1.93-3,0-3c-16.66,0.02-33.32,0.05-49.97,0.07
				C548.88,176.2,548.88,179.2,550.81,179.2L550.81,179.2z"/>
		</g>
	</g>
	<g>
		<g>
			<path class="st2" d="M650.84,179.27c16.63,0.14,33.27,0.28,49.9,0.41c1.93,0.02,1.93-2.98,0-3c-16.63-0.14-33.27-0.28-49.9-0.41
				C648.91,176.26,648.9,179.26,650.84,179.27L650.84,179.27z"/>
		</g>
	</g>
	<g>
		<g>
			<path class="st2" d="M800.77,176.76c-16.78-0.03-33.57-0.05-50.35-0.08c-1.93,0-1.93,3,0,3c16.78,0.03,33.57,0.05,50.35,0.08
				C802.7,179.76,802.7,176.76,800.77,176.76L800.77,176.76z"/>
		</g>
	</g>
</g>
<g id="Слой_1__x28_копия7_x29_">
	<g>
		<g>
			<path class="st3" d="M300.33,131.2c3.86,0,3.87-6,0-6C296.47,125.2,296.47,131.2,300.33,131.2L300.33,131.2z"/>
		</g>
	</g>
	<g>
		<g>
			<path class="st3" d="M300.44,181.09c3.86,0,3.87-6,0-6C296.58,175.09,296.57,181.09,300.44,181.09L300.44,181.09z"/>
		</g>
	</g>
	<g>
		<g>
			<path class="st3" d="M350.39,131.35c3.86,0,3.87-6,0-6C346.53,125.35,346.52,131.35,350.39,131.35L350.39,131.35z"/>
		</g>
	</g>
	<g>
		<g>
			<path class="st3" d="M350.49,181.23c3.86,0,3.87-6,0-6C346.63,175.23,346.62,181.23,350.49,181.23L350.49,181.23z"/>
		</g>
	</g>
	<g>
		<g>
			<path class="st3" d="M400.36,131.28c3.86,0,3.87-6,0-6C396.5,125.28,396.49,131.28,400.36,131.28L400.36,131.28z"/>
		</g>
	</g>
	<g>
		<g>
			<path class="st3" d="M400.46,181.16c3.86,0,3.87-6,0-6C396.6,175.16,396.6,181.16,400.46,181.16L400.46,181.16z"/>
		</g>
	</g>
	<g>
		<g>
			<path class="st3" d="M450.42,131.42c3.86,0,3.87-6,0-6C446.55,125.42,446.55,131.42,450.42,131.42L450.42,131.42z"/>
		</g>
	</g>
	<g>
		<g>
			<path class="st3" d="M450.52,181.31c3.86,0,3.87-6,0-6C446.66,175.31,446.65,181.31,450.52,181.31L450.52,181.31z"/>
		</g>
	</g>
	<g>
		<g>
			<path class="st3" d="M500.34,131.38c3.86,0,3.87-6,0-6C496.48,125.38,496.48,131.38,500.34,131.38L500.34,131.38z"/>
		</g>
	</g>
	<g>
		<g>
			<path class="st3" d="M500.44,181.26c3.86,0,3.87-6,0-6C496.58,175.26,496.58,181.26,500.44,181.26L500.44,181.26z"/>
		</g>
	</g>
	<g>
		<g>
			<path class="st3" d="M550.4,131.52c3.86,0,3.87-6,0-6C546.54,125.52,546.53,131.52,550.4,131.52L550.4,131.52z"/>
		</g>
	</g>
	<g>
		<g>
			<path class="st3" d="M550.5,181.41c3.86,0,3.87-6,0-6C546.64,175.41,546.63,181.41,550.5,181.41L550.5,181.41z"/>
		</g>
	</g>
	<g>
		<g>
			<path class="st3" d="M600.37,131.45c3.86,0,3.87-6,0-6C596.51,125.45,596.5,131.45,600.37,131.45L600.37,131.45z"/>
		</g>
	</g>
	<g>
		<g>
			<path class="st3" d="M600.47,181.33c3.86,0,3.87-6,0-6C596.61,175.33,596.6,181.33,600.47,181.33L600.47,181.33z"/>
		</g>
	</g>
	<g>
		<g>
			<path class="st3" d="M650.42,131.6c3.86,0,3.87-6,0-6C646.56,125.6,646.56,131.6,650.42,131.6L650.42,131.6z"/>
		</g>
	</g>
	<g>
		<g>
			<path class="st3" d="M650.52,181.48c3.86,0,3.87-6,0-6C646.66,175.48,646.66,181.48,650.52,181.48L650.52,181.48z"/>
		</g>
	</g>
	<g>
		<g>
			<path class="st3" d="M700.33,132.01c3.86,0,3.87-6,0-6C696.47,126.01,696.46,132.01,700.33,132.01L700.33,132.01z"/>
		</g>
	</g>
	<g>
		<g>
			<path class="st3" d="M700.43,181.89c3.86,0,3.87-6,0-6C696.57,175.89,696.56,181.89,700.43,181.89L700.43,181.89z"/>
		</g>
	</g>
	<g>
		<g>
			<path class="st3" d="M750.38,132.15c3.86,0,3.87-6,0-6C746.52,126.15,746.51,132.15,750.38,132.15L750.38,132.15z"/>
		</g>
	</g>
	<g>
		<g>
			<path class="st3" d="M750.48,182.04c3.86,0,3.87-6,0-6C746.62,176.04,746.61,182.04,750.48,182.04L750.48,182.04z"/>
		</g>
	</g>
	<g>
		<g>
			<path class="st3" d="M800.35,132.08c3.86,0,3.87-6,0-6C796.49,126.08,796.49,132.08,800.35,132.08L800.35,132.08z"/>
		</g>
	</g>
	<g>
		<g>
			<path class="st3" d="M800.45,181.97c3.86,0,3.87-6,0-6C796.59,175.97,796.59,181.97,800.45,181.97L800.45,181.97z"/>
		</g>
	</g>
	<g>
		<g>
			<path class="st3" d="M850.41,132.23c3.86,0,3.87-6,0-6C846.55,126.23,846.54,132.23,850.41,132.23L850.41,132.23z"/>
		</g>
	</g>
	<g>
		<g>
			<path class="st3" d="M850.51,182.11c3.86,0,3.87-6,0-6C846.65,176.11,846.64,182.11,850.51,182.11L850.51,182.11z"/>
		</g>
	</g>
</g>
<g id="Слой_1_копия_4">
	<g>
		<g>
			<path class="st0" d="M300.35,330.18c16.68,0.05,33.37,0.1,50.05,0.15c1.93,0.01,1.93-2.99,0-3c-16.68-0.05-33.37-0.1-50.05-0.15
				C298.41,327.18,298.41,330.18,300.35,330.18L300.35,330.18z"/>
		</g>
	</g>
	<g>
		<g>
			<path class="st0" d="M300.28,380.25c16.68,0.05,33.37,0.1,50.05,0.15c1.93,0.01,1.93-2.99,0-3c-16.68-0.05-33.37-0.1-50.05-0.15
				C298.35,377.24,298.35,380.24,300.28,380.25L300.28,380.25z"/>
		</g>
	</g>
	<g>
		<g>
			<path class="st0" d="M400.35,330.18c16.68,0.05,33.37,0.1,50.05,0.15c1.93,0.01,1.93-2.99,0-3c-16.68-0.05-33.37-0.1-50.05-0.15
				C398.41,327.18,398.41,330.18,400.35,330.18L400.35,330.18z"/>
		</g>
	</g>
	<g>
		<g>
			<path class="st0" d="M400.28,380.25c16.68,0.05,33.37,0.1,50.05,0.15c1.93,0.01,1.93-2.99,0-3c-16.68-0.05-33.37-0.1-50.05-0.15
				C398.35,377.24,398.35,380.24,400.28,380.25L400.28,380.25z"/>
		</g>
	</g>
	<g>
		<g>
			<path class="st0" d="M499.89,330.25c16.72-0.02,33.43-0.05,50.15-0.07c1.93,0,1.93-3,0-3c-16.72,0.02-33.43,0.05-50.15,0.07
				C497.96,327.25,497.96,330.25,499.89,330.25L499.89,330.25z"/>
		</g>
	</g>
	<g>
		<g>
			<path class="st0" d="M500,380.13c16.68,0.05,33.37,0.1,50.05,0.15c1.93,0.01,1.93-2.99,0-3c-16.68-0.05-33.37-0.1-50.05-0.15
				C498.07,377.13,498.06,380.13,500,380.13L500,380.13z"/>
		</g>
	</g>
	<g>
		<g>
			<path class="st0" d="M599.92,330.32c16.68,0.05,33.37,0.1,50.05,0.15c1.93,0.01,1.93-2.99,0-3c-16.68-0.05-33.37-0.1-50.05-0.15
				C597.99,327.32,597.99,330.32,599.92,330.32L599.92,330.32z"/>
		</g>
	</g>
	<g>
		<g>
			<path class="st0" d="M599.86,380.39c16.68,0.05,33.37,0.1,50.05,0.15c1.93,0.01,1.93-2.99,0-3c-16.68-0.05-33.37-0.1-50.05-0.15
				C597.93,377.39,597.92,380.39,599.86,380.39L599.86,380.39z"/>
		</g>
	</g>
	<g>
		<g>
			<path class="st0" d="M699.89,331.36c16.68,0.05,33.37,0.1,50.05,0.15c1.93,0.01,1.93-2.99,0-3c-16.68-0.05-33.37-0.1-50.05-0.15
				C697.96,328.35,697.96,331.35,699.89,331.36L699.89,331.36z"/>
		</g>
	</g>
	<g>
		<g>
			<path class="st0" d="M699.83,381.43c16.68,0.05,33.37,0.1,50.05,0.15c1.93,0.01,1.93-2.99,0-3c-16.68-0.05-33.37-0.1-50.05-0.15
				C697.89,378.42,697.89,381.42,699.83,381.43L699.83,381.43z"/>
		</g>
	</g>
	<g>
		<g>
			<path class="st0" d="M799.89,331.36c16.68,0.05,33.37,0.1,50.05,0.15c1.93,0.01,1.93-2.99,0-3c-16.68-0.05-33.37-0.1-50.05-0.15
				C797.96,328.35,797.96,331.35,799.89,331.36L799.89,331.36z"/>
		</g>
	</g>
	<g>
		<g>
			<path class="st0" d="M799.83,381.43c16.68,0.05,33.37,0.1,50.05,0.15c1.93,0.01,1.93-2.99,0-3c-16.68-0.05-33.37-0.1-50.05-0.15
				C797.89,378.42,797.89,381.42,799.83,381.43L799.83,381.43z"/>
		</g>
	</g>
</g>
<g id="Слой_1__x28_копия12_x29_">
	<g>
		<g>
			<path class="st1" d="M298.77,328.5c0.03,16.63,0.07,33.26,0.1,49.88c0,1.93,3,1.93,3,0c-0.03-16.63-0.07-33.26-0.1-49.88
				C301.77,326.57,298.77,326.57,298.77,328.5L298.77,328.5z"/>
		</g>
	</g>
	<g>
		<g>
			<path class="st1" d="M348.82,328.65c0.03,16.63,0.07,33.26,0.1,49.88c0,1.93,3,1.93,3,0c-0.03-16.63-0.07-33.26-0.1-49.88
				C351.82,326.72,348.82,326.71,348.82,328.65L348.82,328.65z"/>
		</g>
	</g>
	<g>
		<g>
			<path class="st1" d="M398.8,328.58c0.03,16.63,0.07,33.26,0.1,49.88c0,1.93,3,1.93,3,0c-0.03-16.63-0.07-33.26-0.1-49.88
				C401.79,326.64,398.79,326.64,398.8,328.58L398.8,328.58z"/>
		</g>
	</g>
	<g>
		<g>
			<path class="st1" d="M448.85,328.72c0.03,16.63,0.07,33.26,0.1,49.88c0,1.93,3,1.93,3,0c-0.03-16.63-0.07-33.26-0.1-49.88
				C451.85,326.79,448.85,326.79,448.85,328.72L448.85,328.72z"/>
		</g>
	</g>
	<g>
		<g>
			<path class="st1" d="M499.18,328.5c0.03,16.63,0.07,33.26,0.1,49.88c0,1.93,3,1.93,3,0c-0.03-16.63-0.07-33.26-0.1-49.88
				C502.17,326.57,499.17,326.57,499.18,328.5L499.18,328.5z"/>
		</g>
	</g>
	<g>
		<g>
			<path class="st1" d="M549.23,328.65c0.03,16.63,0.07,33.26,0.1,49.88c0,1.93,3,1.93,3,0c-0.03-16.63-0.07-33.26-0.1-49.88
				C552.22,326.72,549.22,326.71,549.23,328.65L549.23,328.65z"/>
		</g>
	</g>
	<g>
		<g>
			<path class="st1" d="M599.2,328.58c0.03,16.63,0.07,33.26,0.1,49.88c0,1.93,3,1.93,3,0c-0.03-16.63-0.07-33.26-0.1-49.88
				C602.2,326.64,599.2,326.64,599.2,328.58L599.2,328.58z"/>
		</g>
	</g>
	<g>
		<g>
			<path class="st1" d="M649.26,328.72c0.03,16.63,0.07,33.26,0.1,49.88c0,1.93,3,1.93,3,0c-0.03-16.63-0.07-33.26-0.1-49.88
				C652.25,326.79,649.25,326.79,649.26,328.72L649.26,328.72z"/>
		</g>
	</g>
	<g>
		<g>
			<path class="st1" d="M698.52,329.33c0.03,16.63,0.07,33.26,0.1,49.88c0,1.93,3,1.93,3,0c-0.03-16.63-0.07-33.26-0.1-49.88
				C701.51,327.4,698.51,327.4,698.52,329.33L698.52,329.33z"/>
		</g>
	</g>
	<g>
		<g>
			<path class="st1" d="M748.57,329.48c0.03,16.63,0.07,33.26,0.1,49.88c0,1.93,3,1.93,3,0c-0.03-16.63-0.07-33.26-0.1-49.88
				C751.57,327.55,748.57,327.54,748.57,329.48L748.57,329.48z"/>
		</g>
	</g>
	<g>
		<g>
			<path class="st1" d="M798.54,329.4c0.03,16.63,0.07,33.26,0.1,49.88c0,1.93,3,1.93,3,0c-0.03-16.63-0.07-33.26-0.1-49.88
				C801.54,327.47,798.54,327.47,798.54,329.4L798.54,329.4z"/>
		</g>
	</g>
	<g>
		<g>
			<path class="st1" d="M848.6,329.55c0.03,16.63,0.07,33.26,0.1,49.88c0,1.93,3,1.93,3,0c-0.03-16.63-0.07-33.26-0.1-49.88
				C851.59,327.62,848.59,327.62,848.6,329.55L848.6,329.55z"/>
		</g>
	</g>
</g>
<g id="Слой_1__x28_копия11_x29_">
	<g>
		<g>
			<path class="st2" d="M89,353.5c1.93,0,1.93-3,0-3C87.07,350.5,87.07,353.5,89,353.5L89,353.5z"/>
		</g>
	</g>
	<g>
		<g>
			<path class="st2" d="M300.5,380c1.93,0,1.93-3,0-3C298.57,377,298.57,380,300.5,380L300.5,380z"/>
		</g>
	</g>
	<g>
		<g>
			<path class="st2" d="M350.5,330c1.51,0.01,3.02,0.51,4.45,1.3c1.76,0.98,3.31,2.29,4.74,3.7c3.71,3.62,6.76,7.88,9.7,12.13
				c3.29,4.75,6.41,9.62,9.7,14.37c2.98,4.29,6.07,8.61,9.78,12.31c3.1,3.1,7.03,6.15,11.63,6.19c1.93,0.02,1.93-2.98,0-3
				c-1.51-0.01-3.02-0.51-4.45-1.3c-1.76-0.98-3.31-2.29-4.74-3.7c-3.71-3.62-6.76-7.88-9.7-12.13c-3.29-4.75-6.41-9.62-9.7-14.37
				c-2.98-4.29-6.07-8.61-9.78-12.31c-3.1-3.1-7.03-6.15-11.63-6.19C348.57,326.98,348.57,329.98,350.5,330L350.5,330z"/>
		</g>
	</g>
	<g>
		<g>
			<path class="st2" d="M401.56,329.56c3.79-4.02,9.13-6.37,14.29-8.07c6.81-2.25,13.95-3.5,21.08-4.19
				c15.12-1.46,31.05-0.86,45.7,3.4c5.95,1.73,12.29,4.17,16.65,8.74c1.34,1.4,3.45-0.72,2.12-2.12c-4.07-4.26-9.72-6.81-15.22-8.65
				c-7.13-2.39-14.63-3.65-22.09-4.37c-8.14-0.78-16.36-0.85-24.52-0.22c-7.62,0.58-15.28,1.73-22.61,3.92
				c-6.28,1.88-12.93,4.58-17.52,9.45C398.12,328.84,400.23,330.97,401.56,329.56L401.56,329.56z"/>
		</g>
	</g>
	<g>
		<g>
			<path class="st2" d="M550.4,330.02c1.51,0.01,3.02,0.51,4.45,1.3c1.76,0.98,3.31,2.29,4.75,3.69c3.71,3.62,6.78,7.88,9.73,12.12
				c3.3,4.75,6.43,9.62,9.73,14.37c2.99,4.29,6.09,8.6,9.8,12.3c3.11,3.1,7.04,6.15,11.64,6.19c1.93,0.02,1.93-2.98,0-3
				c-1.51-0.01-3.02-0.51-4.45-1.3c-1.76-0.98-3.31-2.29-4.75-3.69c-3.71-3.62-6.78-7.88-9.73-12.12c-3.3-4.75-6.43-9.62-9.73-14.37
				c-2.99-4.29-6.09-8.6-9.8-12.3c-3.11-3.1-7.04-6.15-11.64-6.19C548.47,327.01,548.46,330.01,550.4,330.02L550.4,330.02z"/>
		</g>
	</g>
	<g>
		<g>
			<path class="st2" d="M601.56,329.56c3.78-4.08,9.13-6.48,14.32-8.2c6.81-2.26,13.96-3.49,21.09-4.14
				c15.13-1.39,31.08-0.64,45.68,3.81c5.97,1.82,12.28,4.37,16.61,9.05c1.31,1.42,3.43-0.71,2.12-2.12
				c-4.02-4.35-9.67-6.99-15.18-8.92c-7.11-2.49-14.6-3.83-22.07-4.62c-8.13-0.86-16.36-0.99-24.51-0.41
				c-7.63,0.54-15.29,1.66-22.63,3.86c-6.32,1.89-12.99,4.64-17.56,9.58C598.13,328.85,600.24,330.98,601.56,329.56L601.56,329.56z"
				/>
		</g>
	</g>
	<g>
		<g>
			<path class="st2" d="M849,379.5c0.01,0.17,0,0.33-0.01,0.49c-0.01,0.22,0.09-0.38,0.01-0.09c-0.03,0.1-0.05,0.21-0.08,0.31
				c-0.1,0.44,0.07-0.05-0.06,0.17c-0.09,0.16-0.19,0.32-0.29,0.49c-0.18,0.3,0.19-0.15-0.16,0.2c-0.15,0.15-0.3,0.31-0.45,0.46
				c-0.1,0.09-0.62,0.5-0.27,0.24c-0.21,0.16-0.43,0.31-0.66,0.46c-0.45,0.29-0.92,0.55-1.4,0.79c-0.25,0.13-0.51,0.25-0.77,0.36
				c-0.48,0.22-0.19,0.1-0.65,0.28c-1.35,0.53-2.73,0.97-4.13,1.35c-7.57,2.06-15.51,2.81-23.31,3.29
				c-9.52,0.59-19.08,0.6-28.6,0.08c-8.26-0.45-16.61-1.21-24.68-3.11c-1.58-0.37-3.15-0.79-4.69-1.29
				c-1.43-0.47-2.36-0.82-3.53-1.4c-0.5-0.25-0.99-0.51-1.47-0.81c-0.21-0.13-0.41-0.27-0.61-0.41c-0.13-0.09-0.29-0.22-0.06-0.03
				c-0.1-0.08-0.2-0.16-0.3-0.24c-0.16-0.14-0.32-0.28-0.47-0.43c-0.11-0.12-0.56-0.67-0.27-0.27c-0.11-0.15-0.21-0.3-0.31-0.46
				c-0.12-0.19-0.26-0.61-0.13-0.22c-0.05-0.16-0.09-0.33-0.15-0.49c-0.1-0.32,0,0.31-0.02-0.21c-0.08-1.92-3.08-1.93-3,0
				c0.2,5.05,7.02,7.16,10.93,8.3c7.98,2.34,16.44,3.22,24.71,3.81c9.87,0.71,19.8,0.82,29.68,0.34c8.54-0.41,17.22-1.14,25.54-3.17
				c2.85-0.69,5.76-1.56,8.35-2.98c1.76-0.97,3.62-2.39,4.15-4.44c0.11-0.44,0.17-0.92,0.14-1.37
				C851.89,377.58,848.89,377.57,849,379.5L849,379.5z"/>
		</g>
	</g>
	<g>
		<g>
			<path class="st2" d="M800.88,329.47c4.06-4.11,9.28-7.18,14.82-8.81c8.86-2.61,18.43-1.3,26.37,3.35
				c2.33,1.37,4.51,2.98,6.46,4.86c1.39,1.34,3.51-0.78,2.12-2.12c-4.95-4.78-11.35-8.21-18.08-9.64
				c-9.5-2.01-19.44-0.05-27.57,5.22c-2.24,1.45-4.37,3.12-6.24,5.02C797.4,328.73,799.52,330.85,800.88,329.47L800.88,329.47z"/>
		</g>
	</g>
	<g>
		<g>
			<path class="st2" d="M300.5,330c1.93,0,1.93-3,0-3C298.57,327,298.57,330,300.5,330L300.5,330z"/>
		</g>
	</g>
	<g>
		<g>
			<path class="st2" d="M349.44,379.56c4.08,3.91,9.76,6.02,15.08,7.58c7.32,2.15,14.95,3.27,22.54,3.94
				c8.28,0.73,16.63,0.84,24.93,0.34c7.63-0.46,15.31-1.4,22.71-3.35c5.93-1.56,12.62-3.82,16.85-8.51
				c1.29-1.43-0.82-3.56-2.12-2.12c-3.38,3.74-8.63,5.73-13.47,7.17c-6.94,2.06-14.17,3.08-21.38,3.64
				c-15.43,1.19-31.55,0.58-46.59-3.26c-5.7-1.46-12.21-3.49-16.44-7.54C350.17,376.1,348.04,378.22,349.44,379.56L349.44,379.56z"
				/>
		</g>
	</g>
	<g>
		<g>
			<path class="st2" d="M450.5,330c1.5,0.01,3.04,0.5,4.45,1.28c1.76,0.96,3.32,2.24,4.76,3.62c3.71,3.55,6.8,7.72,9.77,11.89
				c3.31,4.66,6.46,9.44,9.78,14.09c3.02,4.25,6.17,8.51,9.92,12.15c3.12,3.03,7.03,5.97,11.58,6.01c1.93,0.02,1.93-2.98,0-3
				c-1.5-0.01-3.04-0.5-4.45-1.28c-1.76-0.96-3.32-2.24-4.76-3.62c-3.71-3.55-6.8-7.72-9.77-11.89c-3.31-4.66-6.46-9.44-9.78-14.09
				c-3.02-4.25-6.17-8.51-9.92-12.15c-3.12-3.03-7.03-5.97-11.58-6.01C448.57,326.98,448.57,329.98,450.5,330L450.5,330z"/>
		</g>
	</g>
	<g>
		<g>
			<path class="st2" d="M549.75,378.76c4.15,3.97,9.72,6.28,15.11,7.99c7.16,2.27,14.64,3.5,22.1,4.24
				c8.1,0.8,16.28,0.96,24.41,0.49c7.62-0.45,15.28-1.41,22.67-3.36c6.21-1.64,12.81-4.01,17.52-8.55c1.39-1.34-0.73-3.46-2.12-2.12
				c-3.82,3.69-9.2,5.75-14.27,7.24c-6.91,2.03-14.1,3.08-21.28,3.62c-15.04,1.14-30.74,0.41-45.34-3.59
				c-5.86-1.61-12.25-3.82-16.69-8.07C550.48,375.3,548.35,377.42,549.75,378.76L549.75,378.76z"/>
		</g>
	</g>
	<g>
		<g>
			<path class="st2" d="M649.5,330c1.52,0.03,3.06,0.54,4.5,1.34c1.79,0.99,3.38,2.3,4.86,3.7c3.77,3.58,6.93,7.78,9.97,11.97
				c3.42,4.72,6.67,9.56,10.1,14.28c3.1,4.27,6.31,8.56,10.11,12.23c3.17,3.06,7.12,6.07,11.72,6.15c1.93,0.03,1.93-2.97,0-3
				c-1.52-0.03-3.06-0.54-4.5-1.34c-1.79-0.99-3.38-2.3-4.86-3.7c-3.77-3.58-6.93-7.78-9.97-11.97c-3.42-4.72-6.67-9.56-10.1-14.28
				c-3.1-4.27-6.31-8.56-10.11-12.23c-3.17-3.06-7.12-6.07-11.72-6.15C647.57,326.97,647.57,329.97,649.5,330L649.5,330z"/>
		</g>
	</g>
	<g>
		<g>
			<path class="st2" d="M799.5,378c-1.52-0.02-3.02-0.51-4.44-1.31c-1.74-0.98-3.26-2.29-4.67-3.7c-3.63-3.62-6.59-7.88-9.44-12.12
				c-3.18-4.75-6.19-9.61-9.38-14.36c-2.88-4.29-5.89-8.6-9.52-12.3c-3.07-3.13-6.96-6.15-11.55-6.2c-1.93-0.02-1.93,2.98,0,3
				c1.52,0.02,3.02,0.51,4.44,1.31c1.74,0.98,3.26,2.29,4.67,3.7c3.63,3.62,6.59,7.88,9.44,12.12c3.18,4.75,6.19,9.61,9.38,14.36
				c2.88,4.29,5.89,8.6,9.52,12.3c3.07,3.13,6.96,6.15,11.55,6.2C801.43,381.02,801.43,378.02,799.5,378L799.5,378z"/>
		</g>
	</g>
	<g>
		<g>
			<path class="st0" d="M100.19,328.46c16.72-0.02,33.43-0.05,50.15-0.07c1.93,0,1.93-3,0-3c-16.72,0.02-33.43,0.05-50.15,0.07
				C98.26,325.46,98.26,328.46,100.19,328.46L100.19,328.46z"/>
		</g>
	</g>
	<g>
		<g>
			<path class="st0" d="M100.29,378.35c16.68,0.05,33.37,0.1,50.05,0.15c1.93,0.01,1.93-2.99,0-3c-16.68-0.05-33.37-0.1-50.05-0.15
				C98.36,375.34,98.36,378.34,100.29,378.35L100.29,378.35z"/>
		</g>
	</g>
	<g>
		<g>
			<path class="st0" d="M200.22,328.53c16.68,0.05,33.37,0.1,50.05,0.15c1.93,0.01,1.93-2.99,0-3c-16.68-0.05-33.37-0.1-50.05-0.15
				C198.29,325.53,198.28,328.53,200.22,328.53L200.22,328.53z"/>
		</g>
	</g>
	<g>
		<g>
			<path class="st0" d="M200.15,378.6c16.68,0.05,33.37,0.1,50.05,0.15c1.93,0.01,1.93-2.99,0-3c-16.68-0.05-33.37-0.1-50.05-0.15
				C198.22,375.6,198.22,378.6,200.15,378.6L200.15,378.6z"/>
		</g>
	</g>
	<g>
		<g>
			<path class="st1" d="M98.69,326.96c0.03,16.63,0.07,33.26,0.1,49.88c0,1.93,3,1.93,3,0c-0.03-16.63-0.07-33.26-0.1-49.88
				C101.69,325.03,98.69,325.03,98.69,326.96L98.69,326.96z"/>
		</g>
	</g>
	<g>
		<g>
			<path class="st1" d="M148.75,327.11c0.03,16.63,0.07,33.26,0.1,49.88c0,1.93,3,1.93,3,0c-0.03-16.63-0.07-33.26-0.1-49.88
				C151.74,325.18,148.74,325.17,148.75,327.11L148.75,327.11z"/>
		</g>
	</g>
	<g>
		<g>
			<path class="st1" d="M198.72,327.03c0.03,16.63,0.07,33.26,0.1,49.88c0,1.93,3,1.93,3,0c-0.03-16.63-0.07-33.26-0.1-49.88
				C201.71,325.1,198.71,325.1,198.72,327.03L198.72,327.03z"/>
		</g>
	</g>
	<g>
		<g>
			<path class="st1" d="M248.77,327.18c0.03,16.63,0.07,33.26,0.1,49.88c0,1.93,3,1.93,3,0c-0.03-16.63-0.07-33.26-0.1-49.88
				C251.77,325.25,248.77,325.25,248.77,327.18L248.77,327.18z"/>
		</g>
	</g>
	<g>
		<g>
			<path class="st2" d="M99.13,325.9c-0.52,0.48-0.81,1.27-1.1,1.89c-0.62,1.33-1.18,2.7-1.72,4.06c-1.63,4.08-3.06,8.25-4.35,12.45
				c-1.59,5.17-2.96,10.42-3.93,15.74c-0.89,4.91-1.55,9.98-1.17,14.97c0.29,3.83,1.18,8.02,4.02,10.82
				c1.38,1.36,3.22,2.29,4.91,3.19c1.95,1.04,3.97,1.95,6.01,2.79c9.11,3.73,18.89,5.64,28.62,6.8c11.23,1.34,22.57,1.58,33.86,1.29
				c12.05-0.32,24.08-1.28,36.05-2.62c11.72-1.32,23.4-3.01,35.03-4.96c10.22-1.71,20.41-3.63,30.57-5.71
				c7.55-1.54,15.08-3.18,22.61-4.84c3.8-0.84,7.61-1.81,11.46-2.41c-0.85,0.13,0.07,0.02,0.07,0c0.01-0.02,0.13,0.01,0.14,0
				c-0.2,0.11-0.76-0.26-0.95-0.41c1.51,1.17,3.64-0.94,2.12-2.12c-0.98-0.77-2.2-0.38-3.33-0.17c-1.77,0.33-3.54,0.73-5.3,1.11
				c-6.4,1.4-12.8,2.84-19.22,4.2c-9.3,1.97-18.63,3.84-27.99,5.54c-11.09,2.02-22.22,3.82-33.39,5.31
				c-11.87,1.59-23.8,2.83-35.75,3.55c-11.55,0.69-23.15,0.91-34.71,0.23c-10.18-0.6-20.39-1.87-30.22-4.64
				c-4.23-1.19-8.4-2.67-12.36-4.59c-3.4-1.65-6.53-3.06-8-6.5c-1.55-3.62-1.52-8.21-1.23-12.2c0.37-5.2,1.41-10.35,2.67-15.4
				c1.22-4.91,2.7-9.75,4.36-14.52c1.13-3.23,2.33-6.52,3.64-9.35c0.17-0.38,0.35-0.76,0.55-1.12c0.06-0.11,0.14-0.22,0.19-0.33
				c0.15-0.33-0.19,0.2-0.06,0.08C102.67,326.7,100.54,324.58,99.13,325.9L99.13,325.9z"/>
		</g>
	</g>
	<g>
		<g>
			<path class="st2" d="M150.34,378.39c4.38-0.03,8.26-1.6,11.33-4.74c3.62-3.71,6.08-8.49,8.68-12.92
				c3.51-5.99,7.22-11.87,10.95-17.72c2.45-3.84,4.93-7.88,8.36-10.94c3.02-2.7,6.7-3.66,10.68-3.68c1.93-0.01,1.93-3.01,0-3
				c-3.74,0.02-7.46,0.73-10.6,2.84c-3.49,2.34-6.05,5.81-8.39,9.24c-3.69,5.41-7.1,11.05-10.53,16.63
				c-3.06,4.99-5.73,10.3-9.22,15.01c-1.33,1.8-2.9,3.51-4.83,4.67c-1.96,1.17-4.16,1.6-6.42,1.62
				C148.41,375.4,148.41,378.4,150.34,378.39L150.34,378.39z"/>
		</g>
	</g>
	<g>
		<g>
			<path class="st2" d="M300.34,326.39c-3.93,0.04-7.36,2.38-10.19,4.91c-3.77,3.37-6.88,7.45-9.86,11.5
				c-6.49,8.83-12.1,18.56-19.74,26.48c-1.59,1.65-3.29,3.22-5.24,4.43c-1.6,0.99-3.27,1.66-4.98,1.68c-1.93,0.02-1.93,3.02,0,3
				c3.93-0.04,7.36-2.38,10.19-4.91c3.77-3.37,6.88-7.45,9.86-11.5c6.49-8.83,12.1-18.56,19.74-26.48c1.59-1.65,3.29-3.22,5.24-4.43
				c1.6-0.99,3.27-1.66,4.98-1.68C302.27,329.37,302.28,326.37,300.34,326.39L300.34,326.39z"/>
		</g>
	</g>
	<g>
		<g>
			<path class="st2" d="M99.28,377.95c3.78,4.81,9.45,7.84,15.07,9.98c7.06,2.69,14.61,4.05,22.11,4.78
				c8.13,0.79,16.35,0.76,24.48-0.02c7.66-0.73,15.34-2.08,22.66-4.49c6.43-2.13,13.18-5.12,17.8-10.24
				c1.29-1.43-0.82-3.56-2.12-2.12c-3.78,4.19-9.11,6.81-14.34,8.73c-6.87,2.52-14.13,4-21.38,4.85
				c-15.07,1.76-31.19,1.33-45.71-3.42c-6.12-2-12.38-4.99-16.45-10.16C100.21,374.31,98.1,376.45,99.28,377.95L99.28,377.95z"/>
		</g>
	</g>
	<g>
		<g>
			<path class="st2" d="M251.84,327.89c0.6-5.76-4.61-9.7-9.24-11.9c-7.43-3.53-15.83-4.94-23.94-5.84
				c-9.78-1.09-19.69-1.19-29.5-0.46c-8.74,0.65-17.66,1.86-25.97,4.76c-5.3,1.85-12.06,4.79-13.97,10.61
				c-0.2,0.6-0.3,1.21-0.37,1.84c-0.24,1.91,2.77,1.89,3,0c-0.05,0.4,0.06-0.28,0.09-0.43c0.07-0.28,0.15-0.54,0.24-0.81
				c0.02-0.06,0.17-0.42,0.08-0.22c-0.08,0.19,0.07-0.15,0.1-0.21c0.13-0.24,0.25-0.49,0.4-0.72c0.14-0.22,0.29-0.44,0.44-0.65
				c0.22-0.3-0.09,0.1,0.08-0.11c0.1-0.12,0.2-0.24,0.31-0.36c0.41-0.47,0.86-0.9,1.33-1.3c0.84-0.72,2-1.5,3.23-2.18
				c1.39-0.77,2.8-1.41,4.17-1.94c7.62-2.96,15.9-4.27,24-5.03c9.39-0.88,18.89-0.94,28.29-0.17c8.07,0.66,16.33,1.86,23.93,4.74
				c1.41,0.54,2.72,1.11,4.14,1.89c1.2,0.66,2.4,1.46,3.19,2.14c0.45,0.39,0.88,0.8,1.27,1.25c0.23,0.26,0.36,0.43,0.35,0.42
				c0.18,0.24,0.34,0.49,0.5,0.74c0.13,0.22,0.25,0.44,0.36,0.67c0.03,0.06,0.18,0.4,0.1,0.21c-0.08-0.19,0.07,0.19,0.1,0.27
				c0.07,0.24,0.15,0.47,0.21,0.71c0.03,0.12,0.05,0.24,0.08,0.36c0.09,0.43,0-0.17,0.03,0.18c0.04,0.53,0.04,1.04-0.01,1.57
				C248.64,329.81,251.64,329.79,251.84,327.89L251.84,327.89z"/>
		</g>
	</g>
	<g>
		<g>
			<path class="st3" d="M100.19,329.96c3.86,0,3.87-6,0-6C96.33,323.96,96.32,329.96,100.19,329.96L100.19,329.96z"/>
		</g>
	</g>
	<g>
		<g>
			<path class="st3" d="M100.29,379.85c3.86,0,3.87-6,0-6C96.43,373.85,96.43,379.85,100.29,379.85L100.29,379.85z"/>
		</g>
	</g>
	<g>
		<g>
			<path class="st3" d="M150.25,330.11c3.86,0,3.87-6,0-6C146.38,324.11,146.38,330.11,150.25,330.11L150.25,330.11z"/>
		</g>
	</g>
	<g>
		<g>
			<path class="st3" d="M150.35,379.99c3.86,0,3.87-6,0-6C146.49,373.99,146.48,379.99,150.35,379.99L150.35,379.99z"/>
		</g>
	</g>
	<g>
		<g>
			<path class="st3" d="M200.22,330.03c3.86,0,3.87-6,0-6C196.36,324.03,196.35,330.03,200.22,330.03L200.22,330.03z"/>
		</g>
	</g>
	<g>
		<g>
			<path class="st3" d="M200.32,379.92c3.86,0,3.87-6,0-6C196.46,373.92,196.45,379.92,200.32,379.92L200.32,379.92z"/>
		</g>
	</g>
	<g>
		<g>
			<path class="st3" d="M250.27,330.18c3.86,0,3.87-6,0-6C246.41,324.18,246.4,330.18,250.27,330.18L250.27,330.18z"/>
		</g>
	</g>
	<g>
		<g>
			<path class="st3" d="M250.37,380.06c3.86,0,3.87-6,0-6C246.51,374.06,246.51,380.06,250.37,380.06L250.37,380.06z"/>
		</g>
	</g>
</g>
<g id="Слой_1__x28_копия10_x29_">
	<g>
		<g>
			<path class="st3" d="M300.33,331.2c3.86,0,3.87-6,0-6C296.47,325.2,296.47,331.2,300.33,331.2L300.33,331.2z"/>
		</g>
	</g>
	<g>
		<g>
			<path class="st3" d="M300.44,381.09c3.86,0,3.87-6,0-6C296.58,375.09,296.57,381.09,300.44,381.09L300.44,381.09z"/>
		</g>
	</g>
	<g>
		<g>
			<path class="st3" d="M350.39,331.35c3.86,0,3.87-6,0-6C346.53,325.35,346.52,331.35,350.39,331.35L350.39,331.35z"/>
		</g>
	</g>
	<g>
		<g>
			<path class="st3" d="M350.49,381.23c3.86,0,3.87-6,0-6C346.63,375.23,346.62,381.23,350.49,381.23L350.49,381.23z"/>
		</g>
	</g>
	<g>
		<g>
			<path class="st3" d="M400.36,331.28c3.86,0,3.87-6,0-6C396.5,325.28,396.49,331.28,400.36,331.28L400.36,331.28z"/>
		</g>
	</g>
	<g>
		<g>
			<path class="st3" d="M400.46,381.16c3.86,0,3.87-6,0-6C396.6,375.16,396.6,381.16,400.46,381.16L400.46,381.16z"/>
		</g>
	</g>
	<g>
		<g>
			<path class="st3" d="M450.42,331.42c3.86,0,3.87-6,0-6C446.55,325.42,446.55,331.42,450.42,331.42L450.42,331.42z"/>
		</g>
	</g>
	<g>
		<g>
			<path class="st3" d="M450.52,381.31c3.86,0,3.87-6,0-6C446.66,375.31,446.65,381.31,450.52,381.31L450.52,381.31z"/>
		</g>
	</g>
	<g>
		<g>
			<path class="st3" d="M500.34,331.38c3.86,0,3.87-6,0-6C496.48,325.38,496.48,331.38,500.34,331.38L500.34,331.38z"/>
		</g>
	</g>
	<g>
		<g>
			<path class="st3" d="M500.44,381.26c3.86,0,3.87-6,0-6C496.58,375.26,496.58,381.26,500.44,381.26L500.44,381.26z"/>
		</g>
	</g>
	<g>
		<g>
			<path class="st3" d="M550.4,331.52c3.86,0,3.87-6,0-6C546.54,325.52,546.53,331.52,550.4,331.52L550.4,331.52z"/>
		</g>
	</g>
	<g>
		<g>
			<path class="st3" d="M550.5,381.41c3.86,0,3.87-6,0-6C546.64,375.41,546.63,381.41,550.5,381.41L550.5,381.41z"/>
		</g>
	</g>
	<g>
		<g>
			<path class="st3" d="M600.37,331.45c3.86,0,3.87-6,0-6C596.51,325.45,596.5,331.45,600.37,331.45L600.37,331.45z"/>
		</g>
	</g>
	<g>
		<g>
			<path class="st3" d="M600.47,381.33c3.86,0,3.87-6,0-6C596.61,375.33,596.6,381.33,600.47,381.33L600.47,381.33z"/>
		</g>
	</g>
	<g>
		<g>
			<path class="st3" d="M650.42,331.6c3.86,0,3.87-6,0-6C646.56,325.6,646.56,331.6,650.42,331.6L650.42,331.6z"/>
		</g>
	</g>
	<g>
		<g>
			<path class="st3" d="M650.52,381.48c3.86,0,3.87-6,0-6C646.66,375.48,646.66,381.48,650.52,381.48L650.52,381.48z"/>
		</g>
	</g>
	<g>
		<g>
			<path class="st3" d="M700.33,332.01c3.86,0,3.87-6,0-6C696.47,326.01,696.46,332.01,700.33,332.01L700.33,332.01z"/>
		</g>
	</g>
	<g>
		<g>
			<path class="st3" d="M700.43,381.89c3.86,0,3.87-6,0-6C696.57,375.89,696.56,381.89,700.43,381.89L700.43,381.89z"/>
		</g>
	</g>
	<g>
		<g>
			<path class="st3" d="M750.38,332.15c3.86,0,3.87-6,0-6C746.52,326.15,746.51,332.15,750.38,332.15L750.38,332.15z"/>
		</g>
	</g>
	<g>
		<g>
			<path class="st3" d="M750.48,382.04c3.86,0,3.87-6,0-6C746.62,376.04,746.61,382.04,750.48,382.04L750.48,382.04z"/>
		</g>
	</g>
	<g>
		<g>
			<path class="st3" d="M800.35,332.08c3.86,0,3.87-6,0-6C796.49,326.08,796.49,332.08,800.35,332.08L800.35,332.08z"/>
		</g>
	</g>
	<g>
		<g>
			<path class="st3" d="M800.45,381.97c3.86,0,3.87-6,0-6C796.59,375.97,796.59,381.97,800.45,381.97L800.45,381.97z"/>
		</g>
	</g>
	<g>
		<g>
			<path class="st3" d="M850.41,332.23c3.86,0,3.87-6,0-6C846.55,326.23,846.54,332.23,850.41,332.23L850.41,332.23z"/>
		</g>
	</g>
	<g>
		<g>
			<path class="st3" d="M850.51,382.11c3.86,0,3.87-6,0-6C846.65,376.11,846.64,382.11,850.51,382.11L850.51,382.11z"/>
		</g>
	</g>
</g>
<g id="Слой_1_копия_5">
	<g>
		<g>
			<path class="st0" d="M300.35,230.18c16.68,0.05,33.37,0.1,50.05,0.15c1.93,0.01,1.93-2.99,0-3c-16.68-0.05-33.37-0.1-50.05-0.15
				C298.41,227.18,298.41,230.18,300.35,230.18L300.35,230.18z"/>
		</g>
	</g>
	<g>
		<g>
			<path class="st0" d="M300.28,280.25c16.68,0.05,33.37,0.1,50.05,0.15c1.93,0.01,1.93-2.99,0-3c-16.68-0.05-33.37-0.1-50.05-0.15
				C298.35,277.24,298.35,280.24,300.28,280.25L300.28,280.25z"/>
		</g>
	</g>
	<g>
		<g>
			<path class="st0" d="M400.35,230.18c16.68,0.05,33.37,0.1,50.05,0.15c1.93,0.01,1.93-2.99,0-3c-16.68-0.05-33.37-0.1-50.05-0.15
				C398.41,227.18,398.41,230.18,400.35,230.18L400.35,230.18z"/>
		</g>
	</g>
	<g>
		<g>
			<path class="st0" d="M400.28,280.25c16.68,0.05,33.37,0.1,50.05,0.15c1.93,0.01,1.93-2.99,0-3c-16.68-0.05-33.37-0.1-50.05-0.15
				C398.35,277.24,398.35,280.24,400.28,280.25L400.28,280.25z"/>
		</g>
	</g>
	<g>
		<g>
			<path class="st0" d="M499.89,230.25c16.72-0.02,33.43-0.05,50.15-0.07c1.93,0,1.93-3,0-3c-16.72,0.02-33.43,0.05-50.15,0.07
				C497.96,227.25,497.96,230.25,499.89,230.25L499.89,230.25z"/>
		</g>
	</g>
	<g>
		<g>
			<path class="st0" d="M500,280.13c16.68,0.05,33.37,0.1,50.05,0.15c1.93,0.01,1.93-2.99,0-3c-16.68-0.05-33.37-0.1-50.05-0.15
				C498.07,277.13,498.06,280.13,500,280.13L500,280.13z"/>
		</g>
	</g>
	<g>
		<g>
			<path class="st0" d="M599.92,230.32c16.68,0.05,33.37,0.1,50.05,0.15c1.93,0.01,1.93-2.99,0-3c-16.68-0.05-33.37-0.1-50.05-0.15
				C597.99,227.32,597.99,230.32,599.92,230.32L599.92,230.32z"/>
		</g>
	</g>
	<g>
		<g>
			<path class="st0" d="M599.86,280.39c16.68,0.05,33.37,0.1,50.05,0.15c1.93,0.01,1.93-2.99,0-3c-16.68-0.05-33.37-0.1-50.05-0.15
				C597.93,277.39,597.92,280.39,599.86,280.39L599.86,280.39z"/>
		</g>
	</g>
	<g>
		<g>
			<path class="st0" d="M699.89,231.36c16.68,0.05,33.37,0.1,50.05,0.15c1.93,0.01,1.93-2.99,0-3c-16.68-0.05-33.37-0.1-50.05-0.15
				C697.96,228.35,697.96,231.35,699.89,231.36L699.89,231.36z"/>
		</g>
	</g>
	<g>
		<g>
			<path class="st0" d="M699.83,281.43c16.68,0.05,33.37,0.1,50.05,0.15c1.93,0.01,1.93-2.99,0-3c-16.68-0.05-33.37-0.1-50.05-0.15
				C697.89,278.42,697.89,281.42,699.83,281.43L699.83,281.43z"/>
		</g>
	</g>
	<g>
		<g>
			<path class="st0" d="M799.89,231.36c16.68,0.05,33.37,0.1,50.05,0.15c1.93,0.01,1.93-2.99,0-3c-16.68-0.05-33.37-0.1-50.05-0.15
				C797.96,228.35,797.96,231.35,799.89,231.36L799.89,231.36z"/>
		</g>
	</g>
	<g>
		<g>
			<path class="st0" d="M799.83,281.43c16.68,0.05,33.37,0.1,50.05,0.15c1.93,0.01,1.93-2.99,0-3c-16.68-0.05-33.37-0.1-50.05-0.15
				C797.89,278.42,797.89,281.42,799.83,281.43L799.83,281.43z"/>
		</g>
	</g>
</g>
<g id="Слой_1__x28_копия15_x29_">
	<g>
		<g>
			<path class="st1" d="M298.77,228.5c0.03,16.63,0.07,33.26,0.1,49.88c0,1.93,3,1.93,3,0c-0.03-16.63-0.07-33.26-0.1-49.88
				C301.77,226.57,298.77,226.57,298.77,228.5L298.77,228.5z"/>
		</g>
	</g>
	<g>
		<g>
			<path class="st1" d="M348.82,228.65c0.03,16.63,0.07,33.26,0.1,49.88c0,1.93,3,1.93,3,0c-0.03-16.63-0.07-33.26-0.1-49.88
				C351.82,226.72,348.82,226.71,348.82,228.65L348.82,228.65z"/>
		</g>
	</g>
	<g>
		<g>
			<path class="st1" d="M398.8,228.58c0.03,16.63,0.07,33.26,0.1,49.88c0,1.93,3,1.93,3,0c-0.03-16.63-0.07-33.26-0.1-49.88
				C401.79,226.64,398.79,226.64,398.8,228.58L398.8,228.58z"/>
		</g>
	</g>
	<g>
		<g>
			<path class="st1" d="M448.85,228.72c0.03,16.63,0.07,33.26,0.1,49.88c0,1.93,3,1.93,3,0c-0.03-16.63-0.07-33.26-0.1-49.88
				C451.85,226.79,448.85,226.79,448.85,228.72L448.85,228.72z"/>
		</g>
	</g>
	<g>
		<g>
			<path class="st1" d="M499.18,228.5c0.03,16.63,0.07,33.26,0.1,49.88c0,1.93,3,1.93,3,0c-0.03-16.63-0.07-33.26-0.1-49.88
				C502.17,226.57,499.17,226.57,499.18,228.5L499.18,228.5z"/>
		</g>
	</g>
	<g>
		<g>
			<path class="st1" d="M549.23,228.65c0.03,16.63,0.07,33.26,0.1,49.88c0,1.93,3,1.93,3,0c-0.03-16.63-0.07-33.26-0.1-49.88
				C552.22,226.72,549.22,226.71,549.23,228.65L549.23,228.65z"/>
		</g>
	</g>
	<g>
		<g>
			<path class="st1" d="M599.2,228.58c0.03,16.63,0.07,33.26,0.1,49.88c0,1.93,3,1.93,3,0c-0.03-16.63-0.07-33.26-0.1-49.88
				C602.2,226.64,599.2,226.64,599.2,228.58L599.2,228.58z"/>
		</g>
	</g>
	<g>
		<g>
			<path class="st1" d="M649.26,228.72c0.03,16.63,0.07,33.26,0.1,49.88c0,1.93,3,1.93,3,0c-0.03-16.63-0.07-33.26-0.1-49.88
				C652.25,226.79,649.25,226.79,649.26,228.72L649.26,228.72z"/>
		</g>
	</g>
	<g>
		<g>
			<path class="st1" d="M698.52,229.33c0.03,16.63,0.07,33.26,0.1,49.88c0,1.93,3,1.93,3,0c-0.03-16.63-0.07-33.26-0.1-49.88
				C701.51,227.4,698.51,227.4,698.52,229.33L698.52,229.33z"/>
		</g>
	</g>
	<g>
		<g>
			<path class="st1" d="M748.57,229.48c0.03,16.63,0.07,33.26,0.1,49.88c0,1.93,3,1.93,3,0c-0.03-16.63-0.07-33.26-0.1-49.88
				C751.57,227.55,748.57,227.54,748.57,229.48L748.57,229.48z"/>
		</g>
	</g>
	<g>
		<g>
			<path class="st1" d="M798.54,229.4c0.03,16.63,0.07,33.26,0.1,49.88c0,1.93,3,1.93,3,0c-0.03-16.63-0.07-33.26-0.1-49.88
				C801.54,227.47,798.54,227.47,798.54,229.4L798.54,229.4z"/>
		</g>
	</g>
	<g>
		<g>
			<path class="st1" d="M848.6,229.55c0.03,16.63,0.07,33.26,0.1,49.88c0,1.93,3,1.93,3,0c-0.03-16.63-0.07-33.26-0.1-49.88
				C851.59,227.62,848.59,227.62,848.6,229.55L848.6,229.55z"/>
		</g>
	</g>
</g>
<g id="Слой_1__x28_копия14_x29_">
	<g>
		<g>
			<path class="st2" d="M300.5,280c1.93,0,1.93-3,0-3C298.57,277,298.57,280,300.5,280L300.5,280z"/>
		</g>
	</g>
	<g>
		<g>
			<path class="st2" d="M350.5,230c1.51,0.01,3.02,0.51,4.45,1.3c1.76,0.98,3.31,2.29,4.74,3.7c3.71,3.62,6.76,7.88,9.7,12.13
				c3.29,4.75,6.41,9.62,9.7,14.37c2.98,4.29,6.07,8.61,9.78,12.31c3.1,3.1,7.03,6.15,11.63,6.19c1.93,0.02,1.93-2.98,0-3
				c-1.51-0.01-3.02-0.51-4.45-1.3c-1.76-0.98-3.31-2.29-4.74-3.7c-3.71-3.62-6.76-7.88-9.7-12.13c-3.29-4.75-6.41-9.62-9.7-14.37
				c-2.98-4.29-6.07-8.61-9.78-12.31c-3.1-3.1-7.03-6.15-11.63-6.19C348.57,226.98,348.57,229.98,350.5,230L350.5,230z"/>
		</g>
	</g>
	<g>
		<g>
			<path class="st2" d="M401.56,229.56c3.79-4.02,9.13-6.37,14.29-8.07c6.81-2.25,13.95-3.5,21.08-4.19
				c15.12-1.46,31.05-0.86,45.7,3.4c5.95,1.73,12.29,4.17,16.65,8.74c1.34,1.4,3.45-0.72,2.12-2.12c-4.07-4.26-9.72-6.81-15.22-8.65
				c-7.13-2.39-14.63-3.65-22.09-4.37c-8.14-0.78-16.36-0.85-24.52-0.22c-7.62,0.58-15.28,1.73-22.61,3.92
				c-6.28,1.88-12.93,4.58-17.52,9.45C398.12,228.84,400.23,230.97,401.56,229.56L401.56,229.56z"/>
		</g>
	</g>
	<g>
		<g>
			<path class="st2" d="M550.4,230.02c1.51,0.01,3.05,0.5,4.47,1.28c1.77,0.97,3.32,2.25,4.77,3.64c3.68,3.53,6.74,7.68,9.68,11.82
				c3.31,4.67,6.45,9.45,9.76,14.12c3,4.22,6.11,8.46,9.83,12.08c3.12,3.05,7.04,6,11.6,6.03c1.93,0.02,1.93-2.98,0-3
				c-1.51-0.01-3.05-0.5-4.47-1.28c-1.77-0.97-3.32-2.25-4.77-3.64c-3.68-3.53-6.74-7.68-9.68-11.82
				c-3.31-4.67-6.45-9.45-9.76-14.12c-3-4.22-6.11-8.46-9.83-12.08c-3.12-3.05-7.04-6-11.6-6.03
				C548.47,227.01,548.46,230.01,550.4,230.02L550.4,230.02z"/>
		</g>
	</g>
	<g>
		<g>
			<path class="st2" d="M600.56,229.56c3.81-3.23,9.37-5.03,14.31-6.31c7.04-1.82,14.29-2.76,21.53-3.27
				c15.25-1.08,31.07-0.56,46,2.97c5.79,1.37,12.38,3.28,16.87,7.11c1.46,1.25,3.59-0.87,2.12-2.12c-4.31-3.67-9.91-5.66-15.29-7.14
				c-7.3-2.01-14.88-3.05-22.42-3.67c-15.73-1.29-32.13-0.86-47.55,2.72c-6.16,1.43-12.77,3.42-17.68,7.58
				C596.96,228.69,599.1,230.8,600.56,229.56L600.56,229.56z"/>
		</g>
	</g>
	<g>
		<g>
			<path class="st2" d="M800.35,227.58c-16.78-0.03-33.57-0.05-50.35-0.08c-1.93,0-1.93,3,0,3c16.78,0.03,33.57,0.05,50.35,0.08
				C802.28,230.59,802.29,227.59,800.35,227.58L800.35,227.58z"/>
		</g>
	</g>
	<g>
		<g>
			<path class="st2" d="M849.35,230.29c4.11,4.06,7.18,9.28,8.81,14.82c2.61,8.86,1.3,18.43-3.35,26.37
				c-1.37,2.33-2.98,4.51-4.86,6.46c-1.34,1.39,0.78,3.51,2.12,2.12c4.78-4.95,8.21-11.35,9.64-18.08
				c2.01-9.5,0.05-19.44-5.22-27.57c-1.45-2.24-3.12-4.37-5.02-6.24C850.09,226.81,847.97,228.93,849.35,230.29L849.35,230.29z"/>
		</g>
	</g>
	<g>
		<g>
			<path class="st2" d="M300.5,230c1.93,0,1.93-3,0-3C298.57,227,298.57,230,300.5,230L300.5,230z"/>
		</g>
	</g>
	<g>
		<g>
			<path class="st2" d="M349.44,279.56c4.08,3.91,9.76,6.02,15.08,7.58c7.32,2.15,14.95,3.27,22.54,3.94
				c8.28,0.73,16.63,0.84,24.93,0.34c7.63-0.46,15.31-1.4,22.71-3.35c5.93-1.56,12.62-3.82,16.85-8.51
				c1.29-1.43-0.82-3.56-2.12-2.12c-3.38,3.74-8.63,5.73-13.47,7.17c-6.94,2.06-14.17,3.08-21.38,3.64
				c-15.43,1.19-31.55,0.58-46.59-3.26c-5.7-1.46-12.21-3.49-16.44-7.54C350.17,276.1,348.04,278.22,349.44,279.56L349.44,279.56z"
				/>
		</g>
	</g>
	<g>
		<g>
			<path class="st2" d="M450.5,230c1.5,0.01,3.04,0.5,4.45,1.28c1.76,0.96,3.32,2.24,4.76,3.62c3.71,3.55,6.8,7.72,9.77,11.89
				c3.31,4.66,6.46,9.44,9.78,14.09c3.02,4.25,6.17,8.51,9.92,12.15c3.12,3.03,7.03,5.97,11.58,6.01c1.93,0.02,1.93-2.98,0-3
				c-1.5-0.01-3.04-0.5-4.45-1.28c-1.76-0.96-3.32-2.24-4.76-3.62c-3.71-3.55-6.8-7.72-9.77-11.89c-3.31-4.66-6.46-9.44-9.78-14.09
				c-3.02-4.25-6.17-8.51-9.92-12.15c-3.12-3.03-7.03-5.97-11.58-6.01C448.57,226.98,448.57,229.98,450.5,230L450.5,230z"/>
		</g>
	</g>
	<g>
		<g>
			<path class="st2" d="M549.75,278.76c4.63,4,10.51,6.38,16.31,8.13c7.3,2.2,14.89,3.43,22.46,4.14
				c8.09,0.77,16.26,0.91,24.37,0.41c7.45-0.46,14.95-1.42,22.16-3.39c5.85-1.6,12.29-3.91,16.51-8.49
				c1.31-1.42-0.81-3.54-2.12-2.12c-3.38,3.67-8.45,5.69-13.21,7.15c-6.71,2.06-13.71,3.1-20.69,3.67
				c-15.24,1.23-31.1,0.45-45.92-3.48c-6.2-1.64-12.83-3.89-17.74-8.14C550.42,275.38,548.29,277.5,549.75,278.76L549.75,278.76z"/>
		</g>
	</g>
	<g>
		<g>
			<path class="st2" d="M649.5,230c1.52,0.03,3.06,0.54,4.5,1.34c1.79,0.99,3.38,2.3,4.86,3.7c3.77,3.58,6.93,7.78,9.97,11.97
				c3.42,4.72,6.67,9.56,10.1,14.28c3.1,4.27,6.31,8.56,10.11,12.23c3.17,3.06,7.12,6.07,11.72,6.15c1.93,0.03,1.93-2.97,0-3
				c-1.52-0.03-3.06-0.54-4.5-1.34c-1.79-0.99-3.38-2.3-4.86-3.7c-3.77-3.58-6.93-7.78-9.97-11.97c-3.42-4.72-6.67-9.56-10.1-14.28
				c-3.1-4.27-6.31-8.56-10.11-12.23c-3.17-3.06-7.12-6.07-11.72-6.15C647.57,226.97,647.57,229.97,649.5,230L649.5,230z"/>
		</g>
	</g>
	<g>
		<g>
			<path class="st2" d="M800.77,276.76c-16.78-0.03-33.57-0.05-50.35-0.08c-1.93,0-1.93,3,0,3c16.78,0.03,33.57,0.05,50.35,0.08
				C802.7,279.76,802.7,276.76,800.77,276.76L800.77,276.76z"/>
		</g>
	</g>
	<g>
		<g>
			<path class="st0" d="M100.19,229.2c16.72-0.02,33.43-0.05,50.15-0.07c1.93,0,1.93-3,0-3c-16.72,0.02-33.43,0.05-50.15,0.07
				C98.26,226.21,98.26,229.21,100.19,229.2L100.19,229.2z"/>
		</g>
	</g>
	<g>
		<g>
			<path class="st0" d="M100.29,279.09c16.68,0.05,33.37,0.1,50.05,0.15c1.93,0.01,1.93-2.99,0-3c-16.68-0.05-33.37-0.1-50.05-0.15
				C98.36,276.08,98.36,279.08,100.29,279.09L100.29,279.09z"/>
		</g>
	</g>
	<g>
		<g>
			<path class="st0" d="M200.22,229.28c16.68,0.05,33.37,0.1,50.05,0.15c1.93,0.01,1.93-2.99,0-3c-16.68-0.05-33.37-0.1-50.05-0.15
				C198.29,226.27,198.28,229.27,200.22,229.28L200.22,229.28z"/>
		</g>
	</g>
	<g>
		<g>
			<path class="st0" d="M200.15,279.34c16.68,0.05,33.37,0.1,50.05,0.15c1.93,0.01,1.93-2.99,0-3c-16.68-0.05-33.37-0.1-50.05-0.15
				C198.22,276.34,198.22,279.34,200.15,279.34L200.15,279.34z"/>
		</g>
	</g>
	<g>
		<g>
			<path class="st1" d="M98.69,227.7c0.03,16.63,0.07,33.26,0.1,49.88c0,1.93,3,1.93,3,0c-0.03-16.63-0.07-33.26-0.1-49.88
				C101.69,225.77,98.69,225.77,98.69,227.7L98.69,227.7z"/>
		</g>
	</g>
	<g>
		<g>
			<path class="st1" d="M148.75,227.85c0.03,16.63,0.07,33.26,0.1,49.88c0,1.93,3,1.93,3,0c-0.03-16.63-0.07-33.26-0.1-49.88
				C151.74,225.92,148.74,225.91,148.75,227.85L148.75,227.85z"/>
		</g>
	</g>
	<g>
		<g>
			<path class="st1" d="M198.72,227.78c0.03,16.63,0.07,33.26,0.1,49.88c0,1.93,3,1.93,3,0c-0.03-16.63-0.07-33.26-0.1-49.88
				C201.71,225.85,198.71,225.84,198.72,227.78L198.72,227.78z"/>
		</g>
	</g>
	<g>
		<g>
			<path class="st1" d="M248.77,227.92c0.03,16.63,0.07,33.26,0.1,49.88c0,1.93,3,1.93,3,0c-0.03-16.63-0.07-33.26-0.1-49.88
				C251.77,225.99,248.77,225.99,248.77,227.92L248.77,227.92z"/>
		</g>
	</g>
	<g>
		<g>
			<path class="st2" d="M99.13,226.64c-0.52,0.48-0.81,1.27-1.1,1.89c-0.62,1.33-1.18,2.7-1.72,4.06
				c-1.63,4.08-3.06,8.25-4.35,12.45c-1.59,5.17-2.96,10.42-3.93,15.74c-0.89,4.91-1.55,9.98-1.17,14.97
				c0.29,3.83,1.18,8.02,4.02,10.82c1.38,1.36,3.22,2.29,4.91,3.19c1.95,1.04,3.97,1.95,6.01,2.79c9.11,3.73,18.89,5.64,28.62,6.8
				c11.23,1.34,22.57,1.58,33.86,1.29c12.05-0.32,24.08-1.28,36.05-2.62c11.72-1.32,23.4-3.01,35.03-4.96
				c10.22-1.71,20.41-3.63,30.57-5.71c7.55-1.54,15.08-3.18,22.61-4.84c3.8-0.84,7.61-1.81,11.46-2.41c-0.85,0.13,0.07,0.02,0.07,0
				c0.01-0.02,0.13,0.01,0.14,0c-0.2,0.11-0.76-0.26-0.95-0.41c1.51,1.17,3.64-0.94,2.12-2.12c-0.98-0.77-2.2-0.38-3.33-0.17
				c-1.77,0.33-3.54,0.73-5.3,1.11c-6.4,1.4-12.8,2.84-19.22,4.2c-9.3,1.97-18.63,3.84-27.99,5.54
				c-11.09,2.02-22.22,3.82-33.39,5.31c-11.87,1.59-23.8,2.83-35.75,3.55c-11.55,0.69-23.15,0.91-34.71,0.23
				c-10.18-0.6-20.39-1.87-30.22-4.64c-4.23-1.19-8.4-2.67-12.36-4.59c-3.4-1.65-6.53-3.06-8-6.5c-1.55-3.62-1.52-8.21-1.23-12.2
				c0.37-5.2,1.41-10.35,2.67-15.4c1.22-4.91,2.7-9.75,4.36-14.52c1.13-3.23,2.33-6.52,3.64-9.35c0.17-0.38,0.35-0.76,0.55-1.12
				c0.06-0.11,0.14-0.22,0.19-0.33c0.15-0.33-0.19,0.2-0.06,0.08C102.67,227.44,100.54,225.33,99.13,226.64L99.13,226.64z"/>
		</g>
	</g>
	<g>
		<g>
			<path class="st2" d="M150.34,279.13c4.38-0.03,8.26-1.6,11.33-4.74c3.62-3.71,6.08-8.49,8.68-12.92
				c3.51-5.99,7.22-11.87,10.95-17.72c2.45-3.84,4.93-7.88,8.36-10.94c3.02-2.7,6.7-3.66,10.68-3.68c1.93-0.01,1.93-3.01,0-3
				c-3.74,0.02-7.46,0.73-10.6,2.84c-3.49,2.34-6.05,5.81-8.39,9.24c-3.69,5.41-7.1,11.05-10.53,16.63
				c-3.06,4.99-5.73,10.3-9.22,15.01c-1.33,1.8-2.9,3.51-4.83,4.67c-1.96,1.17-4.16,1.6-6.42,1.62
				C148.41,276.14,148.41,279.14,150.34,279.13L150.34,279.13z"/>
		</g>
	</g>
	<g>
		<g>
			<path class="st2" d="M300.34,227.13c-3.93,0.04-7.36,2.38-10.19,4.91c-3.77,3.37-6.88,7.45-9.86,11.5
				c-6.49,8.83-12.1,18.56-19.74,26.48c-1.59,1.65-3.29,3.22-5.24,4.43c-1.6,0.99-3.27,1.66-4.98,1.68c-1.93,0.02-1.93,3.02,0,3
				c3.93-0.04,7.36-2.38,10.19-4.91c3.77-3.37,6.88-7.45,9.86-11.5c6.49-8.83,12.1-18.56,19.74-26.48c1.59-1.65,3.29-3.22,5.24-4.43
				c1.6-0.99,3.27-1.66,4.98-1.68C302.27,230.11,302.28,227.11,300.34,227.13L300.34,227.13z"/>
		</g>
	</g>
	<g>
		<g>
			<path class="st2" d="M99.28,278.69c3.78,4.81,9.45,7.84,15.07,9.98c7.06,2.69,14.61,4.05,22.11,4.78
				c8.13,0.79,16.35,0.76,24.48-0.02c7.66-0.73,15.34-2.08,22.66-4.49c6.43-2.13,13.18-5.12,17.8-10.24
				c1.29-1.43-0.82-3.56-2.12-2.12c-3.78,4.19-9.11,6.81-14.34,8.73c-6.87,2.52-14.13,4-21.38,4.85
				c-15.07,1.76-31.19,1.33-45.71-3.42c-6.12-2-12.38-4.99-16.45-10.16C100.21,275.05,98.1,277.19,99.28,278.69L99.28,278.69z"/>
		</g>
	</g>
	<g>
		<g>
			<path class="st2" d="M251.84,228.63c0.6-5.76-4.61-9.7-9.24-11.9c-7.43-3.53-15.83-4.94-23.94-5.84
				c-9.78-1.09-19.69-1.19-29.5-0.46c-8.74,0.65-17.66,1.86-25.97,4.76c-5.3,1.85-12.06,4.79-13.97,10.61
				c-0.2,0.6-0.3,1.21-0.37,1.84c-0.24,1.91,2.77,1.89,3,0c-0.05,0.4,0.06-0.28,0.09-0.43c0.07-0.28,0.15-0.54,0.24-0.81
				c0.02-0.06,0.17-0.42,0.08-0.22c-0.08,0.19,0.07-0.15,0.1-0.21c0.13-0.24,0.25-0.49,0.4-0.72c0.14-0.22,0.29-0.44,0.44-0.65
				c0.22-0.3-0.09,0.1,0.08-0.11c0.1-0.12,0.2-0.24,0.31-0.36c0.41-0.47,0.86-0.9,1.33-1.3c0.84-0.72,2-1.5,3.23-2.18
				c1.39-0.77,2.8-1.41,4.17-1.94c7.62-2.96,15.9-4.27,24-5.03c9.39-0.88,18.89-0.94,28.29-0.17c8.07,0.66,16.33,1.86,23.93,4.74
				c1.41,0.54,2.72,1.11,4.14,1.89c1.2,0.66,2.4,1.46,3.19,2.14c0.45,0.39,0.88,0.8,1.27,1.25c0.23,0.26,0.36,0.43,0.35,0.42
				c0.18,0.24,0.34,0.49,0.5,0.74c0.13,0.22,0.25,0.44,0.36,0.67c0.03,0.06,0.18,0.4,0.1,0.21c-0.08-0.19,0.07,0.19,0.1,0.27
				c0.07,0.24,0.15,0.47,0.21,0.71c0.03,0.12,0.05,0.24,0.08,0.36c0.09,0.43,0-0.17,0.03,0.18c0.04,0.53,0.04,1.04-0.01,1.57
				C248.64,230.55,251.64,230.53,251.84,228.63L251.84,228.63z"/>
		</g>
	</g>
	<g>
		<g>
			<path class="st3" d="M100.19,230.7c3.86,0,3.87-6,0-6C96.33,224.7,96.32,230.7,100.19,230.7L100.19,230.7z"/>
		</g>
	</g>
	<g>
		<g>
			<path class="st3" d="M100.29,280.59c3.86,0,3.87-6,0-6C96.43,274.59,96.43,280.59,100.29,280.59L100.29,280.59z"/>
		</g>
	</g>
	<g>
		<g>
			<path class="st3" d="M150.25,230.85c3.86,0,3.87-6,0-6C146.38,224.85,146.38,230.85,150.25,230.85L150.25,230.85z"/>
		</g>
	</g>
	<g>
		<g>
			<path class="st3" d="M150.35,280.73c3.86,0,3.87-6,0-6C146.49,274.73,146.48,280.73,150.35,280.73L150.35,280.73z"/>
		</g>
	</g>
	<g>
		<g>
			<path class="st3" d="M200.22,230.78c3.86,0,3.87-6,0-6C196.36,224.78,196.35,230.78,200.22,230.78L200.22,230.78z"/>
		</g>
	</g>
	<g>
		<g>
			<path class="st3" d="M200.32,280.66c3.86,0,3.87-6,0-6C196.46,274.66,196.45,280.66,200.32,280.66L200.32,280.66z"/>
		</g>
	</g>
	<g>
		<g>
			<path class="st3" d="M250.27,230.92c3.86,0,3.87-6,0-6C246.41,224.92,246.4,230.92,250.27,230.92L250.27,230.92z"/>
		</g>
	</g>
	<g>
		<g>
			<path class="st3" d="M250.37,280.8c3.86,0,3.87-6,0-6C246.51,274.8,246.51,280.8,250.37,280.8L250.37,280.8z"/>
		</g>
	</g>
</g>
<g id="Слой_1__x28_копия13_x29_">
	<g>
		<g>
			<path class="st3" d="M300.33,231.2c3.86,0,3.87-6,0-6C296.47,225.2,296.47,231.2,300.33,231.2L300.33,231.2z"/>
		</g>
	</g>
	<g>
		<g>
			<path class="st3" d="M300.44,281.09c3.86,0,3.87-6,0-6C296.58,275.09,296.57,281.09,300.44,281.09L300.44,281.09z"/>
		</g>
	</g>
	<g>
		<g>
			<path class="st3" d="M350.39,231.35c3.86,0,3.87-6,0-6C346.53,225.35,346.52,231.35,350.39,231.35L350.39,231.35z"/>
		</g>
	</g>
	<g>
		<g>
			<path class="st3" d="M350.49,281.23c3.86,0,3.87-6,0-6C346.63,275.23,346.62,281.23,350.49,281.23L350.49,281.23z"/>
		</g>
	</g>
	<g>
		<g>
			<path class="st3" d="M400.36,231.28c3.86,0,3.87-6,0-6C396.5,225.28,396.49,231.28,400.36,231.28L400.36,231.28z"/>
		</g>
	</g>
	<g>
		<g>
			<path class="st3" d="M400.46,281.16c3.86,0,3.87-6,0-6C396.6,275.16,396.6,281.16,400.46,281.16L400.46,281.16z"/>
		</g>
	</g>
	<g>
		<g>
			<path class="st3" d="M450.42,231.42c3.86,0,3.87-6,0-6C446.55,225.42,446.55,231.42,450.42,231.42L450.42,231.42z"/>
		</g>
	</g>
	<g>
		<g>
			<path class="st3" d="M450.52,281.31c3.86,0,3.87-6,0-6C446.66,275.31,446.65,281.31,450.52,281.31L450.52,281.31z"/>
		</g>
	</g>
	<g>
		<g>
			<path class="st3" d="M500.34,231.38c3.86,0,3.87-6,0-6C496.48,225.38,496.48,231.38,500.34,231.38L500.34,231.38z"/>
		</g>
	</g>
	<g>
		<g>
			<path class="st3" d="M500.44,281.26c3.86,0,3.87-6,0-6C496.58,275.26,496.58,281.26,500.44,281.26L500.44,281.26z"/>
		</g>
	</g>
	<g>
		<g>
			<path class="st3" d="M550.4,231.52c3.86,0,3.87-6,0-6C546.54,225.52,546.53,231.52,550.4,231.52L550.4,231.52z"/>
		</g>
	</g>
	<g>
		<g>
			<path class="st3" d="M550.5,281.41c3.86,0,3.87-6,0-6C546.64,275.41,546.63,281.41,550.5,281.41L550.5,281.41z"/>
		</g>
	</g>
	<g>
		<g>
			<path class="st3" d="M600.37,231.45c3.86,0,3.87-6,0-6C596.51,225.45,596.5,231.45,600.37,231.45L600.37,231.45z"/>
		</g>
	</g>
	<g>
		<g>
			<path class="st3" d="M600.47,281.33c3.86,0,3.87-6,0-6C596.61,275.33,596.6,281.33,600.47,281.33L600.47,281.33z"/>
		</g>
	</g>
	<g>
		<g>
			<path class="st3" d="M650.42,231.6c3.86,0,3.87-6,0-6C646.56,225.6,646.56,231.6,650.42,231.6L650.42,231.6z"/>
		</g>
	</g>
	<g>
		<g>
			<path class="st3" d="M650.52,281.48c3.86,0,3.87-6,0-6C646.66,275.48,646.66,281.48,650.52,281.48L650.52,281.48z"/>
		</g>
	</g>
	<g>
		<g>
			<path class="st3" d="M700.33,232.01c3.86,0,3.87-6,0-6C696.47,226.01,696.46,232.01,700.33,232.01L700.33,232.01z"/>
		</g>
	</g>
	<g>
		<g>
			<path class="st3" d="M700.43,281.89c3.86,0,3.87-6,0-6C696.57,275.89,696.56,281.89,700.43,281.89L700.43,281.89z"/>
		</g>
	</g>
	<g>
		<g>
			<path class="st3" d="M750.38,232.15c3.86,0,3.87-6,0-6C746.52,226.15,746.51,232.15,750.38,232.15L750.38,232.15z"/>
		</g>
	</g>
	<g>
		<g>
			<path class="st3" d="M750.48,282.04c3.86,0,3.87-6,0-6C746.62,276.04,746.61,282.04,750.48,282.04L750.48,282.04z"/>
		</g>
	</g>
	<g>
		<g>
			<path class="st3" d="M800.35,232.08c3.86,0,3.87-6,0-6C796.49,226.08,796.49,232.08,800.35,232.08L800.35,232.08z"/>
		</g>
	</g>
	<g>
		<g>
			<path class="st3" d="M800.45,281.97c3.86,0,3.87-6,0-6C796.59,275.97,796.59,281.97,800.45,281.97L800.45,281.97z"/>
		</g>
	</g>
	<g>
		<g>
			<path class="st3" d="M850.41,232.23c3.86,0,3.87-6,0-6C846.55,226.23,846.54,232.23,850.41,232.23L850.41,232.23z"/>
		</g>
	</g>
	<g>
		<g>
			<path class="st3" d="M850.51,282.11c3.86,0,3.87-6,0-6C846.65,276.11,846.64,282.11,850.51,282.11L850.51,282.11z"/>
		</g>
	</g>
	<text transform="matrix(1 0 0 1 7.0023 42.9227)"><tspan x="0" y="0" class="st4 st5">ST-циклы: 1 </tspan><tspan x="0" y="14.4" class="st4 st5">UT-циклы: 7 </tspan><tspan x="0" y="28.8" class="st4 st5">SU-циклы: 8</tspan></text>
	<text transform="matrix(1 0 0 1 7.0021 142.9225)"><tspan x="0" y="0" class="st4 st5">ST-циклы: 2 </tspan><tspan x="0" y="14.4" class="st4 st5">UT-циклы: 6 </tspan><tspan x="0" y="28.8" class="st4 st5">SU-циклы: 8</tspan></text>
	<text transform="matrix(1 0 0 1 7.0024 242.9223)"><tspan x="0" y="0" class="st4 st5">ST-циклы: 3 </tspan><tspan x="0" y="14.4" class="st4 st5">UT-циклы: 5 </tspan><tspan x="0" y="28.8" class="st4 st5">SU-циклы: 8</tspan></text>
	<text transform="matrix(1 0 0 1 7.0022 342.9232)"><tspan x="0" y="0" class="st4 st5">ST-циклы: 4 </tspan><tspan x="0" y="14.4" class="st4 st5">UT-циклы: 4 </tspan><tspan x="0" y="28.8" class="st4 st5">SU-циклы: 8</tspan></text>
</g>
</svg>
